<?xml version="1.0" encoding="UTF-8" standalone="no"?>
<!-- Created with Inkscape (http://www.inkscape.org/) -->

<svg
   xmlns:dc="http://purl.org/dc/elements/1.1/"
   xmlns:cc="http://creativecommons.org/ns#"
   xmlns:rdf="http://www.w3.org/1999/02/22-rdf-syntax-ns#"
   xmlns:svg="http://www.w3.org/2000/svg"
   xmlns="http://www.w3.org/2000/svg"
   xmlns:sodipodi="http://sodipodi.sourceforge.net/DTD/sodipodi-0.dtd"
   xmlns:inkscape="http://www.inkscape.org/namespaces/inkscape"
   width="55"
   height="55"
   viewBox="0 0 14.552083 14.552084"
   version="1.1"
   id="svg5625"
   inkscape:version="0.92.4 (f8dce91, 2019-08-02)"
   sodipodi:docname="normal_on.svg">
  <defs
     id="defs5619">
    <marker
       inkscape:stockid="Arrow2Lend"
       orient="auto"
       refY="0"
       refX="0"
       id="Arrow2Lend"
       style="overflow:visible"
       inkscape:isstock="true">
      <path
         inkscape:connector-curvature="0"
         id="path4845"
         style="fill:#000000;fill-opacity:1;fill-rule:evenodd;stroke:#000000;stroke-width:0.625;stroke-linejoin:round;stroke-opacity:1"
         d="M 8.7185878,4.0337352 -2.2072895,0.01601326 8.7185884,-4.0017078 c -1.7454984,2.3720609 -1.7354408,5.6174519 -6e-7,8.035443 z"
         transform="matrix(-1.1,0,0,-1.1,-1.1,0)" />
    </marker>
  </defs>
  <sodipodi:namedview
     id="base"
     pagecolor="#ffffff"
     bordercolor="#666666"
     borderopacity="1.0"
     inkscape:pageopacity="0.0"
     inkscape:pageshadow="2"
     inkscape:zoom="3.0738805"
     inkscape:cx="-15.147723"
     inkscape:cy="2.9686527"
     inkscape:document-units="mm"
     inkscape:current-layer="layer1"
     showgrid="false"
     units="px"
     inkscape:window-width="1280"
     inkscape:window-height="996"
     inkscape:window-x="1366"
     inkscape:window-y="0"
     inkscape:window-maximized="1" />
  <metadata
     id="metadata5622">
    <rdf:RDF>
      <cc:Work
         rdf:about="">
        <dc:format>image/svg+xml</dc:format>
        <dc:type
           rdf:resource="http://purl.org/dc/dcmitype/StillImage" />
        <dc:title></dc:title>
      </cc:Work>
    </rdf:RDF>
  </metadata>
  <g
     inkscape:groupmode="layer"
     id="layer3"
     inkscape:label="background"
     style="display:none">
    <rect
       style="fill:#ffffff;stroke:#000000;stroke-width:0.26499999;stroke-miterlimit:4;stroke-dasharray:none;stroke-opacity:0"
       id="rect5632"
       width="18.757069"
       height="17.434153"
       x="-0.8976934"
       y="-0.94494051" />
  </g>
  <g
     inkscape:label="Layer 1"
     inkscape:groupmode="layer"
     id="layer1"
     transform="translate(0,-282.4479)"
     style="display:inline">
    <path
       style="fill:#4d4d4d;stroke-width:0.99999994;opacity:0.4"
       d="M 5.0390625 0.072265625 C 2.3170469 0.072265625 0.12695312 2.2643125 0.12695312 4.9863281 L 0.12695312 49.960938 C 0.12695312 52.682953 2.3170469 54.873047 5.0390625 54.873047 L 50.519531 54.873047 C 53.241547 54.873047 55.431641 52.682953 55.431641 49.960938 L 55.431641 4.9863281 C 55.431641 2.2643125 53.241547 0.072265625 50.519531 0.072265625 L 5.0390625 0.072265625 z M 7.0664062 2.1445312 L 47.822266 2.1445312 C 50.261515 2.1445312 52.224609 4.1076258 52.224609 6.546875 L 52.224609 48.386719 C 52.224609 50.825968 50.261515 52.791016 47.822266 52.791016 L 7.0664062 52.791016 C 4.627157 52.791016 2.6640625 50.825968 2.6640625 48.386719 L 2.6640625 6.546875 C 2.6640625 4.1076258 4.627157 2.1445312 7.0664062 2.1445312 z "
       transform="matrix(0.26458333,0,0,0.26458333,0,282.4479)"
       id="rect978" />
    <rect
       id="rect978-5"
       width="13.11291"
       height="13.400226"
       x="0.70492369"
       y="283.01511"
       rx="1.1649543"
       style="display:inline;fill:#ffffff;stroke-width:0.24078348;opacity:0.4" />
    <path
       style="opacity:0.4;fill:#4d4d4d;stroke-width:0.08838835"
       d="M 3.6636139,54.632469 C 2.0471442,54.109252 0.91102243,52.989954 0.37888179,51.396377 L 0.17227413,50.777658 V 27.487329 c 0,-22.3142041 0.006777,-23.3125567 0.16169836,-23.82066 C 0.87300422,1.8987801 2.2853196,0.5927968 4.0613614,0.21991199 4.9970432,0.02346305 50.594251,0.02401712 51.525904,0.22048916 53.307408,0.59618163 54.772273,2.001122 55.2319,3.774884 c 0.124568,0.4807256 0.138789,2.9281776 0.137848,23.725203 -0.0011,25.463313 0.04051,23.547766 -0.537726,24.722337 -0.354552,0.720195 -1.262873,1.645601 -1.987492,2.024875 -1.138544,0.595927 0.855123,0.55252 -25.135759,0.547275 C 5.367592,54.790068 4.1246198,54.781687 3.6636139,54.632469 Z M 49.095224,52.64765 c 1.595304,-0.534705 2.8024,-1.885788 3.086902,-3.455118 0.06616,-0.364918 0.09461,-6.979563 0.09355,-21.743534 C 52.274377,9.5763289 52.25457,6.1376239 52.150072,5.6446235 51.791157,3.9513428 50.417986,2.5634223 48.759418,2.2175494 48.425125,2.147837 42.312958,2.1198729 27.410105,2.1198729 4.538443,2.1198729 6.09217,2.0844554 4.9917127,2.6309045 3.8768831,3.1844904 2.9057289,4.5393345 2.6970314,5.8321835 2.634144,6.2217614 2.6045682,13.207041 2.6051561,27.531523 c 9.449e-4,23.019521 -0.025997,21.769846 0.4921767,22.828955 0.126415,0.258383 0.4458527,0.703101 0.7098615,0.988262 0.7548267,0.815303 1.5162573,1.236508 2.5522641,1.41185 0.243068,0.04114 9.8486716,0.06922 21.3457856,0.0624 20.059107,-0.0119 20.92349,-0.01898 21.38998,-0.175338 z"
       id="path9211"
       inkscape:connector-curvature="0"
       transform="matrix(0.26458333,0,0,0.26458333,0,282.4479)" />
    <path
       style="opacity:1;fill:#cdcdcd;fill-opacity:0.4;stroke:none;stroke-width:0.17388637;stroke-miterlimit:4;stroke-dasharray:none;stroke-opacity:1"
       d="M 6.2073122,52.654096 C 4.9568032,52.404286 3.6012637,51.330135 3.0614163,50.161236 L 2.8090533,49.614811 V 27.473733 5.3326548 L 3.1439985,4.6713371 C 3.562315,3.8454106 4.3371264,3.0494384 5.0981834,2.6637817 5.5541191,2.4327416 5.9461372,2.3476597 6.8908194,2.2747158 8.4889709,2.1513141 47.312415,2.1520454 48.376997,2.2754972 c 1.544091,0.1790571 2.629815,0.9580868 3.341141,2.3973383 l 0.433889,0.8779057 V 27.467757 49.384773 l -0.365115,0.770707 c -0.464518,0.980534 -1.219183,1.7352 -2.199718,2.199717 l -0.770706,0.365115 -21.048401,0.01807 C 15.849496,52.748619 6.4974418,52.712055 6.2073122,52.654096 Z M 39.622721,48.235513 c 1.968028,-0.499231 3.725894,-1.467416 5.196527,-2.862106 5.735717,-5.439526 4.618022,-14.865441 -2.225115,-18.765171 -3.180305,-1.812375 -7.042818,-2.042977 -10.451412,-0.623976 -0.931705,0.38787 -2.261676,1.206607 -2.969328,1.827934 l -0.429312,0.376941 -0.955925,-1.996716 c -0.525758,-1.098194 -2.136202,-4.466693 -3.578765,-7.485552 -1.686794,-3.529967 -2.694151,-5.51147 -2.822653,-5.552256 -0.350489,-0.111241 -0.571556,0.0672 -0.690628,0.557472 -0.219249,0.902748 -0.605656,2.088152 -0.830355,2.547338 -0.259242,0.529776 -1.153764,1.897806 -1.240929,1.897806 -0.03224,0 -2.756154,-2.626737 -6.053141,-5.837193 C 9.2746991,9.1095776 6.4255904,6.3408355 6.2403326,6.1672737 L 5.9035003,5.8517068 5.4135497,6.3509301 4.923599,6.8501534 l 6.345468,6.1947476 6.345467,6.194749 -0.329098,0.270941 c -0.956477,0.787454 -2.209361,1.37088 -4.067201,1.893958 -0.431621,0.121524 -0.523512,0.197063 -0.553283,0.454825 -0.02567,0.222221 0.03899,0.355956 0.230037,0.475806 0.146156,0.09169 3.552393,1.631389 7.569417,3.421559 4.017024,1.790171 7.320217,3.266115 7.340427,3.279875 0.02021,0.01376 -0.197335,0.342999 -0.483435,0.731637 -1.613935,2.192376 -2.311267,4.314013 -2.307961,7.021987 0.0019,1.588278 0.114786,2.364134 0.535333,3.680595 1.360549,4.258994 5.266373,7.489344 9.738513,8.054331 1.177868,0.148805 3.117959,0.01919 4.335438,-0.289651 z"
       id="path6306"
       inkscape:connector-curvature="0"
       transform="matrix(0.26458333,0,0,0.26458333,0,282.4479)" />
    <g
       id="g841"
       transform="translate(0.19895936,0.06806748)">
      <circle
         style="display:inline;fill:none;stroke:#000000;stroke-width:0.21456756;stroke-opacity:1"
         r="2.9964027"
         cy="292.19153"
         cx="9.7218885"
         id="path3715" />
      <path
         inkscape:connector-curvature="0"
         id="path4822"
         d="m 1.4498236,284.14083 5.7449538,5.60341"
         style="display:inline;fill:none;stroke:#000000;stroke-width:0.34725958;stroke-linecap:butt;stroke-linejoin:miter;stroke-miterlimit:4;stroke-dasharray:none;stroke-opacity:1;marker-end:url(#Arrow2Lend)" />
      <path
         transform="matrix(0.26458333,0,0,0.26458333,0,282.4479)"
         inkscape:connector-curvature="0"
         id="path6308"
         d="m 35.25639,47.560677 c -2.227925,-0.295932 -4.346291,-1.34027 -6.016609,-2.966144 -4.164258,-4.053452 -4.444073,-10.280643 -0.668968,-14.887661 1.183106,-1.443825 3.691737,-2.95532 5.736767,-3.456504 1.152021,-0.28233 3.732314,-0.28161 4.879826,0.0014 3.926789,0.968332 7.072296,4.078344 8.076067,7.984937 0.354634,1.380205 0.354634,3.824941 0,5.205147 -1.37277,5.342706 -6.550384,8.843668 -12.007083,8.118863 z"
         style="opacity:1;fill:#cdcdcd;fill-opacity:0.4;stroke:none;stroke-width:0.24591246;stroke-miterlimit:4;stroke-dasharray:none;stroke-opacity:1" />
    </g>
  </g>
</svg>
