<?xml version="1.0" encoding="UTF-8" standalone="no"?>
<!-- Created with Inkscape (http://www.inkscape.org/) -->

<svg
   xmlns:dc="http://purl.org/dc/elements/1.1/"
   xmlns:cc="http://creativecommons.org/ns#"
   xmlns:rdf="http://www.w3.org/1999/02/22-rdf-syntax-ns#"
   xmlns:svg="http://www.w3.org/2000/svg"
   xmlns="http://www.w3.org/2000/svg"
   xmlns:sodipodi="http://sodipodi.sourceforge.net/DTD/sodipodi-0.dtd"
   xmlns:inkscape="http://www.inkscape.org/namespaces/inkscape"
   width="55"
   height="55"
   viewBox="0 0 14.552083 14.552084"
   version="1.1"
   id="svg5625"
   inkscape:version="0.92.4 (f8dce91, 2019-08-02)"
   sodipodi:docname="disabled_off.svg">
  <defs
     id="defs5619">
    <marker
       inkscape:stockid="Arrow2Lend"
       orient="auto"
       refY="0"
       refX="0"
       id="Arrow2Lend"
       style="overflow:visible"
       inkscape:isstock="true">
      <path
         inkscape:connector-curvature="0"
         id="path4845"
         style="fill:#000000;fill-opacity:1;fill-rule:evenodd;stroke:#000000;stroke-width:0.625;stroke-linejoin:round;stroke-opacity:1"
         d="M 8.7185878,4.0337352 -2.2072895,0.01601326 8.7185884,-4.0017078 c -1.7454984,2.3720609 -1.7354408,5.6174519 -6e-7,8.035443 z"
         transform="matrix(-1.1,0,0,-1.1,-1.1,0)" />
    </marker>
    <marker
       inkscape:stockid="Arrow2Lend"
       orient="auto"
       refY="0"
       refX="0"
       id="marker6482"
       style="overflow:visible"
       inkscape:isstock="true">
      <path
         inkscape:connector-curvature="0"
         id="path6480"
         style="fill:#b0b0b0;fill-opacity:1;fill-rule:evenodd;stroke:#b0b0b0;stroke-width:0.625;stroke-linejoin:round;stroke-opacity:1"
         d="M 8.7185878,4.0337352 -2.2072895,0.01601326 8.7185884,-4.0017078 c -1.7454984,2.3720609 -1.7354408,5.6174519 -6e-7,8.035443 z"
         transform="matrix(-1.1,0,0,-1.1,-1.1,0)" />
    </marker>
  </defs>
  <sodipodi:namedview
     id="base"
     pagecolor="#ffffff"
     bordercolor="#666666"
     borderopacity="1.0"
     inkscape:pageopacity="0.0"
     inkscape:pageshadow="2"
     inkscape:zoom="5.6568545"
     inkscape:cx="20.304712"
     inkscape:cy="75.312161"
     inkscape:document-units="mm"
     inkscape:current-layer="layer1"
     showgrid="false"
     units="px"
     inkscape:window-width="1280"
     inkscape:window-height="996"
     inkscape:window-x="1366"
     inkscape:window-y="0"
     inkscape:window-maximized="1" />
  <metadata
     id="metadata5622">
    <rdf:RDF>
      <cc:Work
         rdf:about="">
        <dc:format>image/svg+xml</dc:format>
        <dc:type
           rdf:resource="http://purl.org/dc/dcmitype/StillImage" />
        <dc:title></dc:title>
      </cc:Work>
    </rdf:RDF>
  </metadata>
  <g
     inkscape:groupmode="layer"
     id="layer3"
     inkscape:label="background"
     style="display:none">
    <rect
       style="fill:#ffffff;stroke:#000000;stroke-width:0.26499999;stroke-miterlimit:4;stroke-dasharray:none;stroke-opacity:0"
       id="rect5632"
       width="18.757069"
       height="17.434153"
       x="-0.8976934"
       y="-0.94494051" />
  </g>
  <g
     inkscape:label="Layer 1"
     inkscape:groupmode="layer"
     id="layer1"
     transform="translate(0,-282.4479)"
     style="display:inline">
    <path
       style="fill:#4d4d4d;stroke-width:0.99999994;opacity:0.4"
       d="M 5.0390625 0.072265625 C 2.3170469 0.072265625 0.12695312 2.2643125 0.12695312 4.9863281 L 0.12695312 49.960938 C 0.12695312 52.682953 2.3170469 54.873047 5.0390625 54.873047 L 50.519531 54.873047 C 53.241547 54.873047 55.431641 52.682953 55.431641 49.960938 L 55.431641 4.9863281 C 55.431641 2.2643125 53.241547 0.072265625 50.519531 0.072265625 L 5.0390625 0.072265625 z M 7.0664062 2.1445312 L 47.822266 2.1445312 C 50.261515 2.1445312 52.224609 4.1076258 52.224609 6.546875 L 52.224609 48.386719 C 52.224609 50.825968 50.261515 52.791016 47.822266 52.791016 L 7.0664062 52.791016 C 4.627157 52.791016 2.6640625 50.825968 2.6640625 48.386719 L 2.6640625 6.546875 C 2.6640625 4.1076258 4.627157 2.1445312 7.0664062 2.1445312 z "
       transform="matrix(0.26458333,0,0,0.26458333,0,282.4479)"
       id="rect978" />
    <rect
       id="rect978-5"
       width="13.11291"
       height="13.400226"
       x="0.70492369"
       y="283.01511"
       rx="1.1649543"
       style="display:inline;fill:#ffffff;stroke-width:0.24078348;opacity:0.4" />
    <path
       style="opacity:0.4;fill:#4d4d4d;stroke-width:0.08838835"
       d="M 3.6636139,54.632469 C 2.0471442,54.109252 0.91102243,52.989954 0.37888179,51.396377 L 0.17227413,50.777658 V 27.487329 c 0,-22.3142041 0.006777,-23.3125567 0.16169836,-23.82066 C 0.87300422,1.8987801 2.2853196,0.5927968 4.0613614,0.21991199 4.9970432,0.02346305 50.594251,0.02401712 51.525904,0.22048916 53.307408,0.59618163 54.772273,2.001122 55.2319,3.774884 c 0.124568,0.4807256 0.138789,2.9281776 0.137848,23.725203 -0.0011,25.463313 0.04051,23.547766 -0.537726,24.722337 -0.354552,0.720195 -1.262873,1.645601 -1.987492,2.024875 -1.138544,0.595927 0.855123,0.55252 -25.135759,0.547275 C 5.367592,54.790068 4.1246198,54.781687 3.6636139,54.632469 Z M 49.095224,52.64765 c 1.595304,-0.534705 2.8024,-1.885788 3.086902,-3.455118 0.06616,-0.364918 0.09461,-6.979563 0.09355,-21.743534 C 52.274377,9.5763289 52.25457,6.1376239 52.150072,5.6446235 51.791157,3.9513428 50.417986,2.5634223 48.759418,2.2175494 48.425125,2.147837 42.312958,2.1198729 27.410105,2.1198729 4.538443,2.1198729 6.09217,2.0844554 4.9917127,2.6309045 3.8768831,3.1844904 2.9057289,4.5393345 2.6970314,5.8321835 2.634144,6.2217614 2.6045682,13.207041 2.6051561,27.531523 c 9.449e-4,23.019521 -0.025997,21.769846 0.4921767,22.828955 0.126415,0.258383 0.4458527,0.703101 0.7098615,0.988262 0.7548267,0.815303 1.5162573,1.236508 2.5522641,1.41185 0.243068,0.04114 9.8486716,0.06922 21.3457856,0.0624 20.059107,-0.0119 20.92349,-0.01898 21.38998,-0.175338 z"
       id="path9211"
       inkscape:connector-curvature="0"
       transform="matrix(0.26458333,0,0,0.26458333,0,282.4479)" />
    <path
       style="opacity:0.4;fill:#f9f9f9;fill-opacity:0.85882353;stroke-width:0.125"
       d="M 3.7806842,54.598785 C 2.494568,54.342464 1.0798149,53.068265 0.50846128,51.651655 l -0.29461199,-0.730458 -0.0311987,-17.3125 c -0.0171593,-9.521875 0.012811,-20.18125 0.0666007,-23.6875003 l 0.0977994,-6.375 0.34746928,-0.6675266 C 1.1821618,1.9418569 1.8954863,1.2140138 2.8073374,0.72284978 l 0.7815119,-0.4209574 2.8125,-0.0854722 c 3.6589647,-0.11119633 39.0910347,-0.11119633 42.7499997,0 l 2.8125,0.0854722 0.781511,0.4209574 c 0.909045,0.48965252 1.621537,1.21523612 2.116919,2.15582032 l 0.35157,0.6675266 v 23.9375003 23.9375 l -0.354134,0.672586 c -0.452183,0.858806 -1.364473,1.771096 -2.22328,2.22328 l -0.672586,0.354134 -23.8125,0.01942 c -13.499296,0.011 -24.0542412,-0.02877 -24.3706648,-0.09183 z M 49.655515,52.456504 c 0.882969,-0.433646 1.784995,-1.335672 2.218642,-2.218641 l 0.339692,-0.691666 V 27.483697 5.4211967 L 51.880077,4.7091345 C 51.454297,3.8007871 50.584259,2.9307492 49.675912,2.5049695 L 48.963849,2.1711967 H 27.401349 5.8388493 L 5.1146257,2.538156 C 4.2688559,2.966702 3.5584754,3.6917502 3.0664027,4.6286701 l -0.3505868,0.6675266 -0.08011,5.2500003 c -0.1071946,7.024962 -0.1062066,32.220308 0.00141,36.0625 0.084771,3.026421 0.089868,3.07036 0.4326537,3.729687 0.6155116,1.183899 1.7442296,2.104891 2.9233841,2.385375 0.2693749,0.06407 9.5594053,0.10351 21.7206913,0.0922 l 21.25,-0.01976 0.691666,-0.339693 z"
       id="path9380"
       inkscape:connector-curvature="0"
       transform="matrix(0.26458333,0,0,0.26458333,0,282.4479)" />
    <path
       style="opacity:0.4;fill:#f9f9f9;fill-opacity:0.85882353;stroke-width:0.125"
       d="M 48.776349,54.733374 C 49.841974,54.69336 40.159385,54.649522 27.259484,54.635953 13.870389,54.62187 3.6782497,54.563384 3.5094843,54.499667 3.346885,54.438278 3.1716618,54.41289 3.1200993,54.44325 c -0.051563,0.03036 -0.09375,-0.0077 -0.09375,-0.08455 0,-0.07686 -0.05625,-0.10499 -0.125,-0.0625 -0.06875,0.04249 -0.125,0.01436 -0.125,-0.0625 0,-0.07686 -0.050356,-0.108633 -0.1119019,-0.07059 -0.061546,0.03804 -0.1455237,-0.01846 -0.1866171,-0.125547 -0.041093,-0.107087 -0.1173001,-0.175906 -0.1693481,-0.15293 -0.117727,0.05197 -1.2684489,-1.122946 -1.1832586,-1.208136 0.034049,-0.03405 -0.030195,-0.09725 -0.14276536,-0.140449 -0.11257017,-0.0432 -0.17355142,-0.128896 -0.13551387,-0.190441 0.0380375,-0.06155 2.1446e-4,-0.111902 -0.0840513,-0.111902 -0.0842658,0 -0.11951617,-0.03369 -0.0783343,-0.07488 0.0411819,-0.04118 -0.0478806,-0.308368 -0.19791668,-0.59375 l -0.27279285,-0.518873 0.001846,-20.5 C 0.21671112,19.271197 0.25846326,8.5367415 0.30847816,6.6918517 0.39084621,3.6535578 0.42235498,3.3052896 0.64289029,2.9955764 0.77680208,2.8075146 0.90379994,2.581018 0.92510778,2.4922505 0.98075592,2.2604229 2.1108828,1.220592 2.8090018,0.75887758 c 0.5188424,-0.34314635 0.7352127,-0.40257775 1.6875,-0.463513 1.2882927,-0.0824357 45.1167262,-0.0876889 46.6208252,-0.005588 0.833715,0.0455082 1.115806,0.11548064 1.489631,0.36950145 0.253635,0.1723492 0.493945,0.30095944 0.534022,0.28580053 0.04008,-0.0151589 0.388037,0.29670384 0.773242,0.69302834 0.385205,0.3963243 0.67972,0.7205898 0.654476,0.7205898 -0.02524,0 0.09542,0.2135383 0.268132,0.4745294 l 0.314029,0.4745293 0.0027,24.1589396 c 0.0027,23.921567 2.5e-4,24.162374 -0.246062,24.50833 -0.136833,0.192165 -0.228092,0.371167 -0.202797,0.397782 0.02529,0.02661 -0.370116,0.462116 -0.878692,0.967782 -0.508578,0.505666 -0.924685,0.881524 -0.924685,0.835239 0,-0.04629 -0.154688,0.02478 -0.34375,0.157924 -0.517468,0.364416 -1.780853,0.527882 -3.853989,0.498658 l -1.86476,-0.02629 z m 0.86375,-2.279 c 0.994675,-0.569095 1.58152,-1.145849 2.141511,-2.104685 l 0.492638,-0.843514 V 27.497328 5.4884805 L 51.83354,4.6867105 C 51.338895,3.7868136 50.381168,2.8212456 49.679954,2.5154914 49.423597,2.4037106 49.171662,2.3227032 49.120099,2.3354751 c -0.05156,0.012772 -0.09375,-0.032993 -0.09375,-0.1016994 0,-0.082754 -7.299456,-0.1242531 -21.625,-0.122942 -14.090661,0.00129 -21.6249997,0.044813 -21.6249997,0.124921 0,0.067618 -0.042187,0.1115714 -0.09375,0.097674 C 5.4763078,2.2778279 4.4722299,2.9062935 3.9808773,3.3985591 3.4114939,3.9690002 2.6659585,5.1936656 2.6628532,5.5636318 2.6040012,12.575297 2.5855322,43.464412 2.6386855,45.983697 c 0.069786,3.307603 0.094655,3.60469 0.3475729,4.152153 0.5496228,1.189707 1.8818376,2.290199 3.1333313,2.588328 0.2656916,0.06329 9.6576283,0.114605 21.6500503,0.118285 l 21.180792,0.0065 z"
       id="path9382"
       inkscape:connector-curvature="0"
       transform="matrix(0.26458333,0,0,0.26458333,0,282.4479)" />
    <path
       style="opacity:0.4;fill:#f9f9f9;fill-opacity:0.85882353;stroke-width:0.125"
       d="M 49.338849,54.741617 C 49.999407,54.674597 22.953148,54.556239 4.8699768,54.54701 3.9933469,54.54651 3.2761594,54.51083 3.2762268,54.46761 3.2762942,54.42439 3.0979908,54.315146 2.8799972,54.224851 2.2877264,53.979525 1.1265609,52.770762 0.67332217,51.927722 L 0.27361227,51.184248 0.28444484,29.427722 C 0.29040277,17.461633 0.33671594,6.6868217 0.38736303,5.4836967 l 0.0920856,-2.1875 0.41147441,-0.6599916 C 1.3235084,1.9423521 2.3471128,1.0277392 3.2049149,0.56860266 L 3.7138493,0.29619673 27.834647,0.27008258 c 13.266437,-0.0143628 24.150812,0.0151387 24.1875,0.0655588 0.03669,0.0504201 0.337361,0.2309215 0.668166,0.40111415 0.330805,0.17019266 0.909397,0.64694117 1.285761,1.05944117 0.785716,0.8611583 1.05364,1.1744664 1.042206,1.21875 -0.0044,0.017187 0.02582,0.1195475 0.06723,0.2274668 0.04141,0.1079192 0.05911,11.0204195 0.03932,24.2499995 l -0.03598,24.053784 -0.285616,0.534827 c -0.405336,0.75901 -1.64629,1.923161 -2.490873,2.336713 -0.656708,0.321558 -0.854462,0.354667 -2.283738,0.382348 -1.21826,0.02359 -1.371008,0.01065 -0.689773,-0.05847 z m -0.312587,-2.046548 c 4.8e-5,-0.05562 0.04925,-0.07074 0.109346,-0.0336 0.144097,0.08906 1.488704,-0.795551 1.906912,-1.254546 0.413157,-0.453449 1.025495,-1.433462 1.025495,-1.641244 0,-0.08634 0.04588,-0.156981 0.101954,-0.156981 0.05607,0 0.101136,-9.941969 0.100136,-22.093263 L 52.268293,5.4221713 51.778925,4.5984447 C 51.509774,4.1453951 51.064122,3.5710496 50.788588,3.3221214 50.290924,2.872515 49.299555,2.2850606 49.120099,2.3334287 c -0.05156,0.013897 -0.09375,-0.030747 -0.09375,-0.099209 0,-0.082168 -7.352079,-0.1235006 -21.630279,-0.1216044 -16.18932,0.00215 -21.6080705,0.038805 -21.5419936,0.1457195 0.058395,0.094486 0.017863,0.1158237 -0.1197215,0.063028 -0.1144031,-0.043901 -0.2080056,-0.022015 -0.2080056,0.048635 0,0.07065 -0.045012,0.1006351 -0.1000264,0.066634 C 5.13935,2.2592724 2.727283,4.6012971 2.9586414,4.8326555 2.9893332,4.8633472 2.9354735,4.9674296 2.8389534,5.0639498 2.6127095,5.2901936 2.5872974,7.9910866 2.593904,31.108697 l 0.00505,17.6875 0.2770014,0.897058 c 0.2140743,0.693272 0.4173065,1.050575 0.8946164,1.572828 0.7048007,0.771165 1.8285294,1.409057 2.5682727,1.457899 0.275,0.01816 0.5179842,0.05044 0.5399647,0.07174 0.094195,0.09129 42.1473698,-0.0091 42.1474478,-0.100658 z"
       id="path9384"
       inkscape:connector-curvature="0"
       transform="matrix(0.26458333,0,0,0.26458333,0,282.4479)" />
    <g
       transform="translate(-0.37982126,-0.21445848)"
       style="display:inline;stroke:#b0b0b0;stroke-opacity:1"
       id="g3345">
      <circle
         style="fill:none;stroke:#b0b0b0;stroke-width:0.16633809;stroke-opacity:1"
         r="2.3228853"
         cy="293.41879"
         cx="10.970906"
         id="path3715-53" />
      <circle
         style="display:inline;fill:none;stroke:#b0b0b0;stroke-width:0.16633809;stroke-opacity:1"
         r="2.3228855"
         cy="286.45801"
         cx="4.3408198"
         id="path3715-5" />
      <path
         sodipodi:nodetypes="cc"
         inkscape:connector-curvature="0"
         id="path6478"
         d="m 6.7179361,286.61304 c 2.6127657,0.10884 3.5490639,2.60922 4.2891439,4.28914"
         style="fill:none;stroke:#b0b0b0;stroke-width:0.16500001;stroke-linecap:butt;stroke-linejoin:miter;stroke-miterlimit:4;stroke-dasharray:none;stroke-opacity:1;marker-end:url(#marker6482)" />
    </g>
    <path
       style="opacity:1;fill:#e5e5e5;fill-opacity:0.34509804;stroke:none;stroke-width:0.26725295;stroke-miterlimit:4;stroke-dasharray:none;stroke-opacity:1"
       d="M 5.6048054,52.455426 C 4.5877252,52.092464 3.8361288,51.429801 3.2583437,50.386608 L 2.7325433,49.437273 V 27.516964 c 0,-19.8566272 0.027043,-21.9797688 0.2872452,-22.5518841 C 3.4282173,4.0670547 4.3471401,3.0766132 5.1906797,2.6252306 L 5.9145237,2.2378977 H 27.392891 48.871259 l 0.835563,0.41152 c 0.940125,0.4630171 1.628672,1.195868 2.104703,2.2401303 0.306278,0.6718769 0.322531,1.7894021 0.32622,22.43013 0.003,16.54853 -0.04733,21.896343 -0.211099,22.450639 -0.286893,0.971006 -1.751337,2.435451 -2.722344,2.722343 C 48.088896,52.822218 6.5331752,52.786728 5.6048054,52.45543 Z M 41.521443,49.692313 c 3.417931,-0.554567 6.483016,-3.319646 7.343998,-6.625181 0.351662,-1.350119 0.346443,-3.650219 -0.01105,-4.867288 -0.96385,-3.281449 -3.741697,-5.870301 -7.000772,-6.524463 l -1.007226,-0.202171 -0.09123,-0.740687 c -0.05017,-0.407376 -0.135324,-1.575955 -0.189222,-2.596841 -0.168922,-3.199606 -0.303824,-4.419417 -0.488761,-4.419417 -0.09837,0 -0.512222,0.357973 -0.919663,0.795495 -0.40744,0.437523 -0.8586,0.795495 -1.002578,0.795495 -0.143979,0 -0.443701,-0.37786 -0.666049,-0.839689 -0.748576,-1.554832 -2.735893,-4.359483 -3.989881,-5.630823 -2.181699,-2.211889 -4.761247,-3.581734 -7.695339,-4.086542 -0.827405,-0.142354 -1.522404,-0.276173 -1.544441,-0.297375 -0.02204,-0.0212 -0.122135,-0.617183 -0.222436,-1.324402 C 23.13899,6.7980836 16.467929,3.3420375 10.733812,6.2366102 9.3348034,6.9428276 7.4627452,8.8000564 6.8350787,10.10446 c -1.8016755,3.744206 -1.1723685,7.774914 1.6623311,10.647223 4.6368832,4.698403 12.4074162,3.153813 14.9702722,-2.97572 0.207466,-0.496192 0.429958,-1.232025 0.494424,-1.635185 0.113024,-0.706815 0.140672,-0.733017 0.773452,-0.733017 1.108151,0 3.303685,0.657823 4.829339,1.44696 2.49984,1.293029 5.559929,4.683401 7.256775,8.04001 l 0.461695,0.913301 -0.698756,0.118055 c -0.384316,0.06493 -0.93156,0.06692 -1.216098,0.0044 -0.301203,-0.06616 -0.566356,-0.03432 -0.634659,0.07619 -0.06459,0.104515 0.998129,1.359379 2.364751,2.792299 l 2.482065,2.602478 -1.299875,0.277014 c -3.469951,0.739478 -6.078857,3.145807 -7.070344,6.521345 -0.357487,1.217069 -0.362705,3.517169 -0.01105,4.867288 0.402676,1.545981 1.089233,2.695099 2.409886,4.033526 2.145416,2.174292 4.907791,3.079118 7.912149,2.591654 z"
       id="path3556"
       inkscape:connector-curvature="0"
       transform="matrix(0.26458333,0,0,0.26458333,0,282.4479)" />
    <path
       style="opacity:1;fill:#e5e5e5;fill-opacity:0.34509804;stroke:none;stroke-width:0.26725295;stroke-miterlimit:4;stroke-dasharray:none;stroke-opacity:1"
       d=""
       id="path3558"
       inkscape:connector-curvature="0"
       transform="matrix(0.26458333,0,0,0.26458333,0,282.4479)" />
    <path
       style="opacity:1;fill:#e5e5e5;fill-opacity:0.34509804;stroke:none;stroke-width:0.26725295;stroke-miterlimit:4;stroke-dasharray:none;stroke-opacity:1"
       d="m 37.428805,48.580852 c -5.743544,-1.957412 -7.637881,-9.033258 -3.610986,-13.487973 1.683828,-1.862718 3.681866,-2.745375 6.214605,-2.745375 4.185924,0 7.550611,2.877229 8.2534,7.057692 1.013692,6.029829 -5.050192,11.154634 -10.857019,9.175656 z"
       id="path3560"
       inkscape:connector-curvature="0"
       transform="matrix(0.26458333,0,0,0.26458333,0,282.4479)" />
    <path
       style="opacity:1;fill:#e5e5e5;fill-opacity:0.34509804;stroke:none;stroke-width:0.26725295;stroke-miterlimit:4;stroke-dasharray:none;stroke-opacity:1"
       d="M 12.326515,22.241125 C 10.075973,21.474136 8.4401935,20.016934 7.4285948,17.877909 5.4598188,13.714934 7.1947482,8.8925446 11.41087,6.8088242 c 1.212138,-0.599071 1.521388,-0.6747637 3.025609,-0.7405531 2.065055,-0.090318 3.517221,0.2608048 4.96237,1.1998646 4.431817,2.8798023 5.239117,8.7826723 1.734288,12.6808853 -2.20607,2.453682 -5.679701,3.357766 -8.806622,2.292104 z"
       id="path3562"
       inkscape:connector-curvature="0"
       transform="matrix(0.26458333,0,0,0.26458333,0,282.4479)" />
  </g>
</svg>
