<?xml version="1.0" encoding="UTF-8" standalone="no"?>
<!-- Created with Inkscape (http://www.inkscape.org/) -->

<svg
   xmlns:dc="http://purl.org/dc/elements/1.1/"
   xmlns:cc="http://creativecommons.org/ns#"
   xmlns:rdf="http://www.w3.org/1999/02/22-rdf-syntax-ns#"
   xmlns:svg="http://www.w3.org/2000/svg"
   xmlns="http://www.w3.org/2000/svg"
   xmlns:sodipodi="http://sodipodi.sourceforge.net/DTD/sodipodi-0.dtd"
   xmlns:inkscape="http://www.inkscape.org/namespaces/inkscape"
   width="55"
   height="55"
   viewBox="0 0 14.552083 14.552084"
   version="1.1"
   id="svg5625"
   inkscape:version="0.92.4 (f8dce91, 2019-08-02)"
   sodipodi:docname="normal_on.svg">
  <defs
     id="defs5619">
    <marker
       inkscape:stockid="Arrow2Lend"
       orient="auto"
       refY="0"
       refX="0"
       id="Arrow2Lend"
       style="overflow:visible"
       inkscape:isstock="true">
      <path
         inkscape:connector-curvature="0"
         id="path4845"
         style="fill:#000000;fill-opacity:1;fill-rule:evenodd;stroke:#000000;stroke-width:0.625;stroke-linejoin:round;stroke-opacity:1"
         d="M 8.7185878,4.0337352 -2.2072895,0.01601326 8.7185884,-4.0017078 c -1.7454984,2.3720609 -1.7354408,5.6174519 -6e-7,8.035443 z"
         transform="matrix(-1.1,0,0,-1.1,-1.1,0)" />
    </marker>
    <marker
       inkscape:stockid="Arrow2Lend"
       orient="auto"
       refY="0"
       refX="0"
       id="marker6482"
       style="overflow:visible"
       inkscape:isstock="true">
      <path
         inkscape:connector-curvature="0"
         id="path6480"
         style="fill:#000000;fill-opacity:1;fill-rule:evenodd;stroke:#000000;stroke-width:0.625;stroke-linejoin:round;stroke-opacity:1"
         d="M 8.7185878,4.0337352 -2.2072895,0.01601326 8.7185884,-4.0017078 c -1.7454984,2.3720609 -1.7354408,5.6174519 -6e-7,8.035443 z"
         transform="matrix(-1.1,0,0,-1.1,-1.1,0)" />
    </marker>
  </defs>
  <sodipodi:namedview
     id="base"
     pagecolor="#ffffff"
     bordercolor="#666666"
     borderopacity="1.0"
     inkscape:pageopacity="0.0"
     inkscape:pageshadow="2"
     inkscape:zoom="4.3471235"
     inkscape:cx="3.3615066"
     inkscape:cy="22.731449"
     inkscape:document-units="mm"
     inkscape:current-layer="layer1"
     showgrid="false"
     units="px"
     inkscape:window-width="1280"
     inkscape:window-height="996"
     inkscape:window-x="1366"
     inkscape:window-y="0"
     inkscape:window-maximized="1" />
  <metadata
     id="metadata5622">
    <rdf:RDF>
      <cc:Work
         rdf:about="">
        <dc:format>image/svg+xml</dc:format>
        <dc:type
           rdf:resource="http://purl.org/dc/dcmitype/StillImage" />
        <dc:title></dc:title>
      </cc:Work>
    </rdf:RDF>
  </metadata>
  <g
     inkscape:groupmode="layer"
     id="layer3"
     inkscape:label="background"
     style="display:none">
    <rect
       style="fill:#ffffff;stroke:#000000;stroke-width:0.26499999;stroke-miterlimit:4;stroke-dasharray:none;stroke-opacity:0"
       id="rect5632"
       width="18.757069"
       height="17.434153"
       x="-0.8976934"
       y="-0.94494051" />
  </g>
  <g
     inkscape:label="Layer 1"
     inkscape:groupmode="layer"
     id="layer1"
     transform="translate(0,-282.4479)"
     style="display:inline">
    <path
       style="fill:#4d4d4d;stroke-width:0.99999994;opacity:0.4"
       d="M 5.0390625 0.072265625 C 2.3170469 0.072265625 0.12695312 2.2643125 0.12695312 4.9863281 L 0.12695312 49.960938 C 0.12695312 52.682953 2.3170469 54.873047 5.0390625 54.873047 L 50.519531 54.873047 C 53.241547 54.873047 55.431641 52.682953 55.431641 49.960938 L 55.431641 4.9863281 C 55.431641 2.2643125 53.241547 0.072265625 50.519531 0.072265625 L 5.0390625 0.072265625 z M 7.0664062 2.1445312 L 47.822266 2.1445312 C 50.261515 2.1445312 52.224609 4.1076258 52.224609 6.546875 L 52.224609 48.386719 C 52.224609 50.825968 50.261515 52.791016 47.822266 52.791016 L 7.0664062 52.791016 C 4.627157 52.791016 2.6640625 50.825968 2.6640625 48.386719 L 2.6640625 6.546875 C 2.6640625 4.1076258 4.627157 2.1445312 7.0664062 2.1445312 z "
       transform="matrix(0.26458333,0,0,0.26458333,0,282.4479)"
       id="rect978" />
    <rect
       id="rect978-5"
       width="13.11291"
       height="13.400226"
       x="0.70492369"
       y="283.01511"
       rx="1.1649543"
       style="display:inline;fill:#ffffff;stroke-width:0.24078348;opacity:0.4" />
    <path
       style="opacity:0.4;fill:#4d4d4d;stroke-width:0.08838835"
       d="M 3.6636139,54.632469 C 2.0471442,54.109252 0.91102243,52.989954 0.37888179,51.396377 L 0.17227413,50.777658 V 27.487329 c 0,-22.3142041 0.006777,-23.3125567 0.16169836,-23.82066 C 0.87300422,1.8987801 2.2853196,0.5927968 4.0613614,0.21991199 4.9970432,0.02346305 50.594251,0.02401712 51.525904,0.22048916 53.307408,0.59618163 54.772273,2.001122 55.2319,3.774884 c 0.124568,0.4807256 0.138789,2.9281776 0.137848,23.725203 -0.0011,25.463313 0.04051,23.547766 -0.537726,24.722337 -0.354552,0.720195 -1.262873,1.645601 -1.987492,2.024875 -1.138544,0.595927 0.855123,0.55252 -25.135759,0.547275 C 5.367592,54.790068 4.1246198,54.781687 3.6636139,54.632469 Z M 49.095224,52.64765 c 1.595304,-0.534705 2.8024,-1.885788 3.086902,-3.455118 0.06616,-0.364918 0.09461,-6.979563 0.09355,-21.743534 C 52.274377,9.5763289 52.25457,6.1376239 52.150072,5.6446235 51.791157,3.9513428 50.417986,2.5634223 48.759418,2.2175494 48.425125,2.147837 42.312958,2.1198729 27.410105,2.1198729 4.538443,2.1198729 6.09217,2.0844554 4.9917127,2.6309045 3.8768831,3.1844904 2.9057289,4.5393345 2.6970314,5.8321835 2.634144,6.2217614 2.6045682,13.207041 2.6051561,27.531523 c 9.449e-4,23.019521 -0.025997,21.769846 0.4921767,22.828955 0.126415,0.258383 0.4458527,0.703101 0.7098615,0.988262 0.7548267,0.815303 1.5162573,1.236508 2.5522641,1.41185 0.243068,0.04114 9.8486716,0.06922 21.3457856,0.0624 20.059107,-0.0119 20.92349,-0.01898 21.38998,-0.175338 z"
       id="path9211"
       inkscape:connector-curvature="0"
       transform="matrix(0.26458333,0,0,0.26458333,0,282.4479)" />
    <g
       transform="translate(-0.37982126,-0.21445848)"
       style="display:inline"
       id="g3345">
      <circle
         style="fill:none;stroke:#000000;stroke-width:0.16633809;stroke-opacity:1"
         r="2.3228853"
         cy="293.41879"
         cx="10.970906"
         id="path3715-6" />
      <circle
         style="display:inline;fill:none;stroke:#000000;stroke-width:0.16633809;stroke-opacity:1"
         r="2.3228855"
         cy="286.45801"
         cx="4.3408198"
         id="path3715-5" />
      <path
         sodipodi:nodetypes="cc"
         inkscape:connector-curvature="0"
         id="path6478"
         d="m 6.7179361,286.61304 c 2.6127657,0.10884 3.5490639,2.60922 4.2891439,4.28914"
         style="fill:none;stroke:#000000;stroke-width:0.16500001;stroke-linecap:butt;stroke-linejoin:miter;stroke-miterlimit:4;stroke-dasharray:none;stroke-opacity:1;marker-end:url(#marker6482)" />
    </g>
    <path
       style="opacity:1;fill:#cdcdcd;fill-opacity:0.4;stroke:none;stroke-width:0.34777275;stroke-miterlimit:4;stroke-dasharray:none;stroke-opacity:1"
       d="M 5.684882,52.468193 C 4.6902763,52.119195 3.29436,50.697365 3.0217617,49.755639 2.8678234,49.223839 2.810957,41.399407 2.8559529,26.941479 L 2.924436,4.9367115 3.6389366,4.0527801 C 4.031912,3.5666178 4.7047707,2.9618152 5.1341783,2.7087743 5.8997434,2.2576428 6.3285242,2.2486999 27.193358,2.2486999 c 11.703141,0 21.561211,0.079133 21.906822,0.1758518 0.34561,0.096718 0.997878,0.5002725 1.449482,0.8967869 1.670974,1.4671344 1.55735,-0.2927274 1.556963,24.1147964 l -4.6e-4,21.970185 -0.49907,0.977401 c -0.286242,0.560587 -0.906853,1.247287 -1.455284,1.61026 l -0.956212,0.63286 -21.410358,0.04175 C 13.283406,52.696878 6.1523173,52.632215 5.684882,52.468193 Z m 38.121316,-3.458017 c 4.62787,-2.135063 6.697257,-7.795433 4.512396,-12.342718 -1.168019,-2.430967 -4.166942,-4.695425 -6.661465,-5.030009 -0.777256,-0.104253 -0.891838,-0.196818 -0.893598,-0.721901 -0.0059,-1.752303 -0.49273,-7.055027 -0.663409,-7.225705 -0.110843,-0.110843 -0.420376,0.113936 -0.702508,0.510152 -1.000273,1.404754 -1.226862,1.345345 -2.371761,-0.621848 -3.068579,-5.272504 -6.577414,-8.045111 -11.180276,-8.834414 L 24.282623,14.475716 24.035604,13.03363 C 23.68711,10.999138 22.80598,9.2262535 21.488559,7.9088327 15.518811,1.9390853 5.2729701,6.5104024 5.8582905,14.882483 c 0.1771247,2.533488 0.8987736,4.123002 2.6810188,5.905247 2.0406347,2.040635 3.4415387,2.607622 6.4620787,2.615394 1.9808,0.0051 2.329177,-0.06236 3.721911,-0.720648 0.845107,-0.399449 1.995132,-1.14897 2.555611,-1.665601 1.183119,-1.090561 2.377488,-3.194412 2.598644,-4.577446 0.14864,-0.92954 0.184087,-0.963592 1.003081,-0.963592 0.466947,0 1.411246,0.166914 2.098443,0.37092 3.910768,1.16098 6.815785,3.809563 9.748614,8.888077 l 0.631018,1.092676 h -1.273486 c -0.700417,0 -1.321854,0.07826 -1.380966,0.173904 -0.05911,0.09565 1.018915,1.375518 2.395616,2.844156 l 2.503094,2.670253 -1.187557,0.14065 c -2.693319,0.318983 -5.3812,2.39053 -6.691901,5.15744 -0.673683,1.422157 -0.734539,1.741207 -0.734539,3.850995 0,2.016057 0.07643,2.463438 0.618345,3.619741 1.173451,2.503807 2.892947,4.13486 5.298699,5.026158 1.813233,0.671777 5.103117,0.528443 6.900183,-0.300631 z"
       id="path3456"
       inkscape:connector-curvature="0"
       transform="matrix(0.26458333,0,0,0.26458333,0,282.4479)" />
    <path
       style="opacity:1;fill:#cdcdcd;fill-opacity:0.4;stroke:none;stroke-width:0.34777275;stroke-miterlimit:4;stroke-dasharray:none;stroke-opacity:1"
       d="M 12.435135,22.297327 C 10.137492,21.446713 8.6090476,20.106194 7.4672421,17.940245 6.8939792,16.852794 6.8350679,16.515956 6.8350679,14.325652 c 0,-2.314823 0.032851,-2.475981 0.7889907,-3.870609 0.9141217,-1.6860105 2.1407462,-2.839228 3.9267714,-3.6917746 1.090877,-0.5207228 1.566315,-0.6039365 3.450558,-0.6039365 1.931213,0 2.338891,0.075396 3.505635,0.6483316 1.682131,0.8260193 3.186333,2.3302217 4.012353,4.0123525 0.572935,1.166744 0.648331,1.574422 0.648331,3.505636 0,1.949029 -0.07262,2.333255 -0.671527,3.553045 -0.856368,1.744155 -2.332279,3.218737 -3.999033,3.99543 -1.566936,0.730179 -4.651205,0.945497 -6.062012,0.4232 z"
       id="path3458"
       inkscape:connector-curvature="0"
       transform="matrix(0.26458333,0,0,0.26458333,0,282.4479)" />
    <path
       style="opacity:1;fill:#cdcdcd;fill-opacity:0.4;stroke:none;stroke-width:0.34777275;stroke-miterlimit:4;stroke-dasharray:none;stroke-opacity:1"
       d="m 38.176695,48.825599 c -2.528183,-0.637064 -5.031804,-2.842362 -5.919059,-5.213763 -0.655711,-1.752544 -0.658699,-4.133326 -0.0074,-5.874153 0.814659,-2.17737 2.228965,-3.651981 4.527016,-4.720042 1.12856,-0.524518 1.654862,-0.62411 3.298159,-0.62411 1.629905,0 2.172582,0.101021 3.260811,0.607012 1.823712,0.847966 3.270033,2.262233 4.157904,4.065754 0.676362,1.373887 0.747605,1.716816 0.747605,3.598611 0,1.88578 -0.07047,2.223151 -0.754654,3.612929 -1.36585,2.774436 -3.912811,4.461948 -7.051427,4.671988 -0.767473,0.05136 -1.784016,-0.0045 -2.258983,-0.124226 z"
       id="path3460"
       inkscape:connector-curvature="0"
       transform="matrix(0.26458333,0,0,0.26458333,0,282.4479)" />
  </g>
</svg>
