<?xml version="1.0" encoding="UTF-8" standalone="no"?>
<!-- Created with Inkscape (http://www.inkscape.org/) -->

<svg
   xmlns:dc="http://purl.org/dc/elements/1.1/"
   xmlns:cc="http://creativecommons.org/ns#"
   xmlns:rdf="http://www.w3.org/1999/02/22-rdf-syntax-ns#"
   xmlns:svg="http://www.w3.org/2000/svg"
   xmlns="http://www.w3.org/2000/svg"
   xmlns:sodipodi="http://sodipodi.sourceforge.net/DTD/sodipodi-0.dtd"
   xmlns:inkscape="http://www.inkscape.org/namespaces/inkscape"
   width="55"
   height="55"
   viewBox="0 0 14.552083 14.552084"
   version="1.1"
   id="svg5625"
   inkscape:version="0.92.4 (f8dce91, 2019-08-02)"
   sodipodi:docname="selected_on.svg">
  <defs
     id="defs5619">
    <marker
       inkscape:stockid="Arrow2Lend"
       orient="auto"
       refY="0"
       refX="0"
       id="Arrow2Lend"
       style="overflow:visible"
       inkscape:isstock="true">
      <path
         inkscape:connector-curvature="0"
         id="path4845"
         style="fill:#000000;fill-opacity:1;fill-rule:evenodd;stroke:#000000;stroke-width:0.625;stroke-linejoin:round;stroke-opacity:1"
         d="M 8.7185878,4.0337352 -2.2072895,0.01601326 8.7185884,-4.0017078 c -1.7454984,2.3720609 -1.7354408,5.6174519 -6e-7,8.035443 z"
         transform="matrix(-1.1,0,0,-1.1,-1.1,0)" />
    </marker>
    <marker
       inkscape:stockid="Arrow2Lend"
       orient="auto"
       refY="0"
       refX="0"
       id="marker6482"
       style="overflow:visible"
       inkscape:isstock="true">
      <path
         inkscape:connector-curvature="0"
         id="path6480"
         style="fill:#000000;fill-opacity:1;fill-rule:evenodd;stroke:#000000;stroke-width:0.625;stroke-linejoin:round;stroke-opacity:1"
         d="M 8.7185878,4.0337352 -2.2072895,0.01601326 8.7185884,-4.0017078 c -1.7454984,2.3720609 -1.7354408,5.6174519 -6e-7,8.035443 z"
         transform="matrix(-1.1,0,0,-1.1,-1.1,0)" />
    </marker>
  </defs>
  <sodipodi:namedview
     id="base"
     pagecolor="#ffffff"
     bordercolor="#666666"
     borderopacity="1.0"
     inkscape:pageopacity="0.0"
     inkscape:pageshadow="2"
     inkscape:zoom="4.3471235"
     inkscape:cx="26.964239"
     inkscape:cy="18.645968"
     inkscape:document-units="mm"
     inkscape:current-layer="layer1"
     showgrid="false"
     units="px"
     inkscape:window-width="1280"
     inkscape:window-height="996"
     inkscape:window-x="1366"
     inkscape:window-y="0"
     inkscape:window-maximized="1" />
  <metadata
     id="metadata5622">
    <rdf:RDF>
      <cc:Work
         rdf:about="">
        <dc:format>image/svg+xml</dc:format>
        <dc:type
           rdf:resource="http://purl.org/dc/dcmitype/StillImage" />
        <dc:title></dc:title>
      </cc:Work>
    </rdf:RDF>
  </metadata>
  <g
     inkscape:groupmode="layer"
     id="layer3"
     inkscape:label="background"
     style="display:none">
    <rect
       style="fill:#ffffff;stroke:#000000;stroke-width:0.26499999;stroke-miterlimit:4;stroke-dasharray:none;stroke-opacity:0"
       id="rect5632"
       width="18.757069"
       height="17.434153"
       x="-0.8976934"
       y="-0.94494051" />
  </g>
  <g
     inkscape:label="Layer 1"
     inkscape:groupmode="layer"
     id="layer1"
     transform="translate(0,-282.4479)"
     style="display:inline">
    <path
       style="fill:#4d4d4d;stroke-width:0.99999994;opacity:0.4"
       d="M 5.0390625 0.072265625 C 2.3170469 0.072265625 0.12695312 2.2643125 0.12695312 4.9863281 L 0.12695312 49.960938 C 0.12695312 52.682953 2.3170469 54.873047 5.0390625 54.873047 L 50.519531 54.873047 C 53.241547 54.873047 55.431641 52.682953 55.431641 49.960938 L 55.431641 4.9863281 C 55.431641 2.2643125 53.241547 0.072265625 50.519531 0.072265625 L 5.0390625 0.072265625 z M 7.0664062 2.1445312 L 47.822266 2.1445312 C 50.261515 2.1445312 52.224609 4.1076258 52.224609 6.546875 L 52.224609 48.386719 C 52.224609 50.825968 50.261515 52.791016 47.822266 52.791016 L 7.0664062 52.791016 C 4.627157 52.791016 2.6640625 50.825968 2.6640625 48.386719 L 2.6640625 6.546875 C 2.6640625 4.1076258 4.627157 2.1445312 7.0664062 2.1445312 z "
       transform="matrix(0.26458333,0,0,0.26458333,0,282.4479)"
       id="rect978" />
    <rect
       id="rect978-5"
       width="13.11291"
       height="13.400226"
       x="0.70492369"
       y="283.01511"
       rx="1.1649543"
       style="display:inline;fill:#ffffff;stroke-width:0.24078348;opacity:0.4" />
    <path
       style="opacity:0.4;fill:#4d4d4d;stroke-width:0.08838835"
       d="M 3.6636139,54.632469 C 2.0471442,54.109252 0.91102243,52.989954 0.37888179,51.396377 L 0.17227413,50.777658 V 27.487329 c 0,-22.3142041 0.006777,-23.3125567 0.16169836,-23.82066 C 0.87300422,1.8987801 2.2853196,0.5927968 4.0613614,0.21991199 4.9970432,0.02346305 50.594251,0.02401712 51.525904,0.22048916 53.307408,0.59618163 54.772273,2.001122 55.2319,3.774884 c 0.124568,0.4807256 0.138789,2.9281776 0.137848,23.725203 -0.0011,25.463313 0.04051,23.547766 -0.537726,24.722337 -0.354552,0.720195 -1.262873,1.645601 -1.987492,2.024875 -1.138544,0.595927 0.855123,0.55252 -25.135759,0.547275 C 5.367592,54.790068 4.1246198,54.781687 3.6636139,54.632469 Z M 49.095224,52.64765 c 1.595304,-0.534705 2.8024,-1.885788 3.086902,-3.455118 0.06616,-0.364918 0.09461,-6.979563 0.09355,-21.743534 C 52.274377,9.5763289 52.25457,6.1376239 52.150072,5.6446235 51.791157,3.9513428 50.417986,2.5634223 48.759418,2.2175494 48.425125,2.147837 42.312958,2.1198729 27.410105,2.1198729 4.538443,2.1198729 6.09217,2.0844554 4.9917127,2.6309045 3.8768831,3.1844904 2.9057289,4.5393345 2.6970314,5.8321835 2.634144,6.2217614 2.6045682,13.207041 2.6051561,27.531523 c 9.449e-4,23.019521 -0.025997,21.769846 0.4921767,22.828955 0.126415,0.258383 0.4458527,0.703101 0.7098615,0.988262 0.7548267,0.815303 1.5162573,1.236508 2.5522641,1.41185 0.243068,0.04114 9.8486716,0.06922 21.3457856,0.0624 20.059107,-0.0119 20.92349,-0.01898 21.38998,-0.175338 z"
       id="path9211"
       inkscape:connector-curvature="0"
       transform="matrix(0.26458333,0,0,0.26458333,0,282.4479)" />
    <path
       style="opacity:0.4;fill:#0000aa;fill-opacity:0.85882353;stroke-width:0.11501858"
       d="M 4.1780566,54.646316 C 2.7072355,54.49528 1.3760432,53.465776 0.63409128,51.905517 L 0.21197929,51.017855 0.22385045,27.496554 0.23572161,3.9752526 0.4922967,3.3101794 C 0.970759,2.0699481 2.0803834,0.9548863 3.3354619,0.45308237 L 4.0075927,0.18435184 25.516068,0.14858757 c 11.829662,-0.0196703 22.621281,0.007744 23.981376,0.060921 l 2.472899,0.0966852 0.715784,0.38242468 C 53.607149,1.180696 54.472508,2.1009137 54.937656,3.0828778 l 0.368226,0.7773562 0.03494,20.818364 c 0.01922,11.4501 -0.01164,22.164082 -0.06856,23.808848 -0.09972,2.881123 -0.114299,3.011704 -0.398746,3.570763 -0.404285,0.794591 -1.19771,1.643479 -1.96999,2.107696 -0.579999,0.348636 -0.769172,0.397192 -1.881681,0.482972 -1.458742,0.112478 -45.7470891,0.110056 -46.8437884,-0.0026 z M 49.81225,52.354094 c 0.882608,-0.478648 1.672105,-1.303797 2.079874,-2.173797 L 52.20038,49.522613 52.23031,27.731326 C 52.257294,8.0902291 52.242185,5.8771512 52.077189,5.3027013 51.707777,4.0165561 50.870791,3.0743626 49.546917,2.4543785 L 48.864841,2.1349552 27.931459,2.1019252 C 12.983742,2.0783397 6.7843775,2.1053873 6.2507187,2.1965173 4.8234905,2.4402374 3.6837447,3.3555593 2.9937015,4.812205 L 2.6273696,5.5855128 2.5954884,26.346368 c -0.017907,11.661081 0.013718,21.343107 0.072153,22.089246 0.078383,1.000849 0.168008,1.454611 0.3634882,1.840297 0.5731995,1.130931 1.4596546,1.925319 2.5867233,2.318069 0.5398312,0.188115 1.8903538,0.198831 22.0260591,0.174778 l 21.450967,-0.02562 z"
       id="path9567"
       inkscape:connector-curvature="0"
       transform="matrix(0.26458333,0,0,0.26458333,0,282.4479)" />
    <path
       style="opacity:0.4;fill:#0000aa;fill-opacity:0.85882353;stroke-width:0.11501858"
       d="M 11.941304,54.643148 3.6573965,54.583431 2.9002688,54.210623 C 1.9618748,53.748561 1.2272669,52.983 0.6805616,51.897389 L 0.26948859,51.081107 V 27.457369 3.8336318 L 0.67152531,3.0300077 C 1.1946796,1.9842839 2.0386826,1.146831 3.0961458,0.62420437 L 3.9273575,0.21339729 27.258739,0.20400384 c 16.457816,-0.006626 23.580066,0.027964 24.17551,0.11741135 1.37309,0.20626545 2.628071,1.20037541 3.421505,2.71028331 l 0.422396,0.8038211 0.0031,22.7860374 c 0.0019,14.225175 -0.03962,23.196563 -0.11061,23.878714 -0.06254,0.600972 -0.210173,1.295722 -0.328078,1.543889 -0.338668,0.71284 -1.484109,1.8576 -2.220584,2.219268 l -0.651629,0.320003 -9.431524,0.0724 c -10.436742,0.08012 -18.169652,0.07691 -30.597515,-0.01268 z m 37.850453,-2.252089 c 0.9518,-0.57049 1.585115,-1.225506 2.06158,-2.13222 l 0.407445,-0.77537 -0.0302,-22.063996 L 52.20038,5.3554756 51.882583,4.7086125 C 51.394013,3.7141467 50.772738,3.0883169 49.741452,2.5517835 L 48.829716,2.0774459 h -20.98096 c -14.60645,0 -21.1883134,0.037971 -21.6634407,0.1249773 C 4.8066712,2.454883 3.728996,3.3355434 2.9809333,4.8209975 l -0.411073,0.816282 0.00355,21.2525555 c 0.0021,12.564413 0.047721,21.592583 0.1115983,22.084318 0.2214715,1.70492 1.3136648,3.060791 2.9098205,3.612312 0.5670919,0.195948 1.7111026,0.206862 22.0558489,0.210422 l 21.457733,0.0038 z"
       id="path9569"
       inkscape:connector-curvature="0"
       transform="matrix(0.26458333,0,0,0.26458333,0,282.4479)" />
    <g
       transform="translate(-0.37982126,-0.21445848)"
       style="display:inline"
       id="g3345">
      <circle
         style="fill:none;stroke:#000000;stroke-width:0.16633809;stroke-opacity:1"
         r="2.3228853"
         cy="293.41879"
         cx="10.970906"
         id="path3715-3" />
      <circle
         style="display:inline;fill:none;stroke:#000000;stroke-width:0.16633809;stroke-opacity:1"
         r="2.3228855"
         cy="286.45801"
         cx="4.3408198"
         id="path3715-5" />
      <path
         sodipodi:nodetypes="cc"
         inkscape:connector-curvature="0"
         id="path6478"
         d="m 6.7179361,286.61304 c 2.6127657,0.10884 3.5490639,2.60922 4.2891439,4.28914"
         style="fill:none;stroke:#000000;stroke-width:0.16500001;stroke-linecap:butt;stroke-linejoin:miter;stroke-miterlimit:4;stroke-dasharray:none;stroke-opacity:1;marker-end:url(#marker6482)" />
    </g>
    <path
       style="opacity:1;fill:#a8a8ff;fill-opacity:0.34509804;stroke:none;stroke-width:0.34777275;stroke-miterlimit:4;stroke-dasharray:none;stroke-opacity:1"
       d="M 5.5634672,52.438132 C 4.6271874,52.164436 3.2749231,50.656225 2.9649491,49.539942 2.6055408,48.245636 2.6246926,6.3321321 2.985175,5.2758311 3.349491,4.2082969 3.9741515,3.4410389 4.9786442,2.8272925 L 5.8238226,2.3108874 H 27.447317 49.070811 l 0.845177,0.5164051 c 1.081686,0.6609102 1.683804,1.4394734 2.003314,2.5903616 0.177469,0.6392498 0.254833,7.3913439 0.255727,22.3187509 l 0.0014,21.402224 -0.517584,1.013065 c -0.284671,0.557187 -0.915352,1.329617 -1.401513,1.716512 l -0.883929,0.703447 -21.544695,0.03854 C 15.34198,52.632527 5.981105,52.560188 5.5635638,52.438132 Z M 43.351756,49.204431 c 6.067796,-2.270253 7.800698,-10.38738 3.199805,-14.988273 -1.272133,-1.272133 -2.439353,-1.929981 -4.381865,-2.469637 l -1.380223,-0.383442 -0.230037,-3.754812 c -0.134358,-2.193069 -0.329609,-3.787609 -0.469435,-3.833665 -0.131668,-0.04337 -0.59192,0.284858 -1.022782,0.729396 -0.430864,0.444537 -0.85724,0.80825 -0.947507,0.80825 -0.09027,0 -0.584161,-0.76534 -1.097549,-1.700755 -2.747541,-5.006165 -6.458247,-7.987547 -11.012578,-8.848105 -1.893436,-0.357771 -1.897807,-0.360245 -1.897807,-1.07412 0,-0.393538 -0.164411,-1.277775 -0.365358,-1.964971 C 21.799683,5.066872 13.363076,2.9558268 8.5114408,7.9121333 7.0332766,9.4221879 6.2868407,10.853703 5.9266391,12.86927 c -0.707515,3.959012 1.5198124,8.110797 5.3030569,9.88501 1.105281,0.51834 1.570513,0.593927 3.680595,0.597995 2.241143,0.0043 2.526588,-0.04802 3.956803,-0.725572 2.546318,-1.206293 4.339914,-3.395982 5.031545,-6.142694 0.23474,-0.932239 0.343526,-1.06336 0.882229,-1.06336 1.530249,0 4.758205,1.213664 6.232025,2.343151 2.039556,1.563046 4.436173,4.503928 5.710811,7.007717 l 0.485926,0.95451 -0.597485,0.149959 c -0.328615,0.08248 -0.894748,0.08467 -1.258071,0.0049 -0.432757,-0.09506 -0.660586,-0.05257 -0.660586,0.123192 0,0.147559 1.084639,1.420532 2.410309,2.828829 l 2.410311,2.560539 -1.374877,0.28045 c -3.645022,0.743517 -6.445529,3.675925 -7.147152,7.483774 -0.671763,3.645795 1.191609,7.572856 4.518363,9.522465 2.148816,1.25929 5.311676,1.470779 7.841314,0.524319 z"
       id="path3403"
       inkscape:connector-curvature="0"
       transform="matrix(0.26458333,0,0,0.26458333,0,282.4479)" />
    <path
       style="opacity:1;fill:#a8a8ff;fill-opacity:0.34509804;stroke:none;stroke-width:0.34777275;stroke-miterlimit:4;stroke-dasharray:none;stroke-opacity:1"
       d="M 13.393676,22.554288 C 10.857693,22.025839 8.4664503,20.131096 7.3623505,17.775261 6.834411,16.648789 6.7439713,16.152317 6.7439713,14.380645 c 0,-1.876338 0.071632,-2.220678 0.7476053,-3.593774 0.8863235,-1.8003786 2.3301122,-3.2138988 4.1579034,-4.0707348 1.118094,-0.5241424 1.602686,-0.6106341 3.37583,-0.6025293 1.797674,0.00822 2.250222,0.096421 3.43624,0.6697411 5.41026,2.6153149 6.476652,9.644053 2.073707,13.668096 -1.909838,1.745485 -4.788641,2.59315 -7.141581,2.102844 z"
       id="path3405"
       inkscape:connector-curvature="0"
       transform="matrix(0.26458333,0,0,0.26458333,0,282.4479)" />
    <path
       style="opacity:1;fill:#a8a8ff;fill-opacity:0.34509804;stroke:none;stroke-width:0.34777275;stroke-miterlimit:4;stroke-dasharray:none;stroke-opacity:1"
       d="m 37.79899,48.699292 c -3.523931,-1.171908 -5.79064,-3.993133 -6.043089,-7.521441 -0.431832,-6.035416 5.614951,-10.44519 11.333944,-8.265574 1.909829,0.727872 3.985678,2.804196 4.691163,4.692237 1.6032,4.290531 -0.448879,9.023933 -4.691163,10.820813 -1.224421,0.518621 -4.10643,0.667854 -5.290855,0.273965 z"
       id="path3407"
       inkscape:connector-curvature="0"
       transform="matrix(0.26458333,0,0,0.26458333,0,282.4479)" />
  </g>
</svg>
