<?xml version="1.0" encoding="UTF-8" standalone="no"?>
<!-- Created with Inkscape (http://www.inkscape.org/) -->

<svg
   xmlns:dc="http://purl.org/dc/elements/1.1/"
   xmlns:cc="http://creativecommons.org/ns#"
   xmlns:rdf="http://www.w3.org/1999/02/22-rdf-syntax-ns#"
   xmlns:svg="http://www.w3.org/2000/svg"
   xmlns="http://www.w3.org/2000/svg"
   xmlns:sodipodi="http://sodipodi.sourceforge.net/DTD/sodipodi-0.dtd"
   xmlns:inkscape="http://www.inkscape.org/namespaces/inkscape"
   width="55"
   height="55"
   viewBox="0 0 14.552083 14.552084"
   version="1.1"
   id="svg5625"
   inkscape:version="0.92.4 (f8dce91, 2019-08-02)"
   sodipodi:docname="selected_on.svg">
  <defs
     id="defs5619" />
  <sodipodi:namedview
     id="base"
     pagecolor="#ffffff"
     bordercolor="#666666"
     borderopacity="1.0"
     inkscape:pageopacity="0.0"
     inkscape:pageshadow="2"
     inkscape:zoom="3.0738805"
     inkscape:cx="-16.447562"
     inkscape:cy="27.886853"
     inkscape:document-units="mm"
     inkscape:current-layer="layer1"
     showgrid="false"
     units="px"
     inkscape:window-width="1280"
     inkscape:window-height="996"
     inkscape:window-x="1366"
     inkscape:window-y="0"
     inkscape:window-maximized="1" />
  <metadata
     id="metadata5622">
    <rdf:RDF>
      <cc:Work
         rdf:about="">
        <dc:format>image/svg+xml</dc:format>
        <dc:type
           rdf:resource="http://purl.org/dc/dcmitype/StillImage" />
        <dc:title></dc:title>
      </cc:Work>
    </rdf:RDF>
  </metadata>
  <g
     inkscape:groupmode="layer"
     id="layer3"
     inkscape:label="background"
     style="display:none">
    <rect
       style="fill:#ffffff;stroke:#000000;stroke-width:0.26499999;stroke-miterlimit:4;stroke-dasharray:none;stroke-opacity:0"
       id="rect5632"
       width="18.757069"
       height="17.434153"
       x="-0.8976934"
       y="-0.94494051" />
  </g>
  <g
     inkscape:label="Layer 1"
     inkscape:groupmode="layer"
     id="layer1"
     transform="translate(0,-282.4479)"
     style="display:inline">
    <path
       style="fill:#4d4d4d;stroke-width:0.99999994;opacity:0.4"
       d="M 5.0390625 0.072265625 C 2.3170469 0.072265625 0.12695312 2.2643125 0.12695312 4.9863281 L 0.12695312 49.960938 C 0.12695312 52.682953 2.3170469 54.873047 5.0390625 54.873047 L 50.519531 54.873047 C 53.241547 54.873047 55.431641 52.682953 55.431641 49.960938 L 55.431641 4.9863281 C 55.431641 2.2643125 53.241547 0.072265625 50.519531 0.072265625 L 5.0390625 0.072265625 z M 7.0664062 2.1445312 L 47.822266 2.1445312 C 50.261515 2.1445312 52.224609 4.1076258 52.224609 6.546875 L 52.224609 48.386719 C 52.224609 50.825968 50.261515 52.791016 47.822266 52.791016 L 7.0664062 52.791016 C 4.627157 52.791016 2.6640625 50.825968 2.6640625 48.386719 L 2.6640625 6.546875 C 2.6640625 4.1076258 4.627157 2.1445312 7.0664062 2.1445312 z "
       transform="matrix(0.26458333,0,0,0.26458333,0,282.4479)"
       id="rect978" />
    <rect
       id="rect978-5"
       width="13.11291"
       height="13.400226"
       x="0.70492369"
       y="283.01511"
       rx="1.1649543"
       style="display:inline;fill:#ffffff;stroke-width:0.24078348;opacity:0.4" />
    <path
       style="opacity:0.4;fill:#4d4d4d;stroke-width:0.08838835"
       d="M 3.6636139,54.632469 C 2.0471442,54.109252 0.91102243,52.989954 0.37888179,51.396377 L 0.17227413,50.777658 V 27.487329 c 0,-22.3142041 0.006777,-23.3125567 0.16169836,-23.82066 C 0.87300422,1.8987801 2.2853196,0.5927968 4.0613614,0.21991199 4.9970432,0.02346305 50.594251,0.02401712 51.525904,0.22048916 53.307408,0.59618163 54.772273,2.001122 55.2319,3.774884 c 0.124568,0.4807256 0.138789,2.9281776 0.137848,23.725203 -0.0011,25.463313 0.04051,23.547766 -0.537726,24.722337 -0.354552,0.720195 -1.262873,1.645601 -1.987492,2.024875 -1.138544,0.595927 0.855123,0.55252 -25.135759,0.547275 C 5.367592,54.790068 4.1246198,54.781687 3.6636139,54.632469 Z M 49.095224,52.64765 c 1.595304,-0.534705 2.8024,-1.885788 3.086902,-3.455118 0.06616,-0.364918 0.09461,-6.979563 0.09355,-21.743534 C 52.274377,9.5763289 52.25457,6.1376239 52.150072,5.6446235 51.791157,3.9513428 50.417986,2.5634223 48.759418,2.2175494 48.425125,2.147837 42.312958,2.1198729 27.410105,2.1198729 4.538443,2.1198729 6.09217,2.0844554 4.9917127,2.6309045 3.8768831,3.1844904 2.9057289,4.5393345 2.6970314,5.8321835 2.634144,6.2217614 2.6045682,13.207041 2.6051561,27.531523 c 9.449e-4,23.019521 -0.025997,21.769846 0.4921767,22.828955 0.126415,0.258383 0.4458527,0.703101 0.7098615,0.988262 0.7548267,0.815303 1.5162573,1.236508 2.5522641,1.41185 0.243068,0.04114 9.8486716,0.06922 21.3457856,0.0624 20.059107,-0.0119 20.92349,-0.01898 21.38998,-0.175338 z"
       id="path9211"
       inkscape:connector-curvature="0"
       transform="matrix(0.26458333,0,0,0.26458333,0,282.4479)" />
    <path
       style="opacity:0.4;fill:#0000aa;fill-opacity:0.85882353;stroke-width:0.11501858"
       d="M 4.1780566,54.646316 C 2.7072355,54.49528 1.3760432,53.465776 0.63409128,51.905517 L 0.21197929,51.017855 0.22385045,27.496554 0.23572161,3.9752526 0.4922967,3.3101794 C 0.970759,2.0699481 2.0803834,0.9548863 3.3354619,0.45308237 L 4.0075927,0.18435184 25.516068,0.14858757 c 11.829662,-0.0196703 22.621281,0.007744 23.981376,0.060921 l 2.472899,0.0966852 0.715784,0.38242468 C 53.607149,1.180696 54.472508,2.1009137 54.937656,3.0828778 l 0.368226,0.7773562 0.03494,20.818364 c 0.01922,11.4501 -0.01164,22.164082 -0.06856,23.808848 -0.09972,2.881123 -0.114299,3.011704 -0.398746,3.570763 -0.404285,0.794591 -1.19771,1.643479 -1.96999,2.107696 -0.579999,0.348636 -0.769172,0.397192 -1.881681,0.482972 -1.458742,0.112478 -45.7470891,0.110056 -46.8437884,-0.0026 z M 49.81225,52.354094 c 0.882608,-0.478648 1.672105,-1.303797 2.079874,-2.173797 L 52.20038,49.522613 52.23031,27.731326 C 52.257294,8.0902291 52.242185,5.8771512 52.077189,5.3027013 51.707777,4.0165561 50.870791,3.0743626 49.546917,2.4543785 L 48.864841,2.1349552 27.931459,2.1019252 C 12.983742,2.0783397 6.7843775,2.1053873 6.2507187,2.1965173 4.8234905,2.4402374 3.6837447,3.3555593 2.9937015,4.812205 L 2.6273696,5.5855128 2.5954884,26.346368 c -0.017907,11.661081 0.013718,21.343107 0.072153,22.089246 0.078383,1.000849 0.168008,1.454611 0.3634882,1.840297 0.5731995,1.130931 1.4596546,1.925319 2.5867233,2.318069 0.5398312,0.188115 1.8903538,0.198831 22.0260591,0.174778 l 21.450967,-0.02562 z"
       id="path9567"
       inkscape:connector-curvature="0"
       transform="matrix(0.26458333,0,0,0.26458333,0,282.4479)" />
    <path
       style="opacity:0.4;fill:#0000aa;fill-opacity:0.85882353;stroke-width:0.11501858"
       d="M 11.941304,54.643148 3.6573965,54.583431 2.9002688,54.210623 C 1.9618748,53.748561 1.2272669,52.983 0.6805616,51.897389 L 0.26948859,51.081107 V 27.457369 3.8336318 L 0.67152531,3.0300077 C 1.1946796,1.9842839 2.0386826,1.146831 3.0961458,0.62420437 L 3.9273575,0.21339729 27.258739,0.20400384 c 16.457816,-0.006626 23.580066,0.027964 24.17551,0.11741135 1.37309,0.20626545 2.628071,1.20037541 3.421505,2.71028331 l 0.422396,0.8038211 0.0031,22.7860374 c 0.0019,14.225175 -0.03962,23.196563 -0.11061,23.878714 -0.06254,0.600972 -0.210173,1.295722 -0.328078,1.543889 -0.338668,0.71284 -1.484109,1.8576 -2.220584,2.219268 l -0.651629,0.320003 -9.431524,0.0724 c -10.436742,0.08012 -18.169652,0.07691 -30.597515,-0.01268 z m 37.850453,-2.252089 c 0.9518,-0.57049 1.585115,-1.225506 2.06158,-2.13222 l 0.407445,-0.77537 -0.0302,-22.063996 L 52.20038,5.3554756 51.882583,4.7086125 C 51.394013,3.7141467 50.772738,3.0883169 49.741452,2.5517835 L 48.829716,2.0774459 h -20.98096 c -14.60645,0 -21.1883134,0.037971 -21.6634407,0.1249773 C 4.8066712,2.454883 3.728996,3.3355434 2.9809333,4.8209975 l -0.411073,0.816282 0.00355,21.2525555 c 0.0021,12.564413 0.047721,21.592583 0.1115983,22.084318 0.2214715,1.70492 1.3136648,3.060791 2.9098205,3.612312 0.5670919,0.195948 1.7111026,0.206862 22.0558489,0.210422 l 21.457733,0.0038 z"
       id="path9569"
       inkscape:connector-curvature="0"
       transform="matrix(0.26458333,0,0,0.26458333,0,282.4479)" />
    <path
       style="opacity:0.4;fill:#aaaaff;fill-opacity:0.85882353;stroke-width:0.030432"
       d="m -12.938378,283.73656 c -0.05021,-0.004 -0.625378,-0.0127 -1.278144,-0.0191 -0.652767,-0.006 -1.20739,-0.0173 -1.232496,-0.0241 -0.02511,-0.007 -0.112422,-0.0498 -0.194033,-0.0954 -0.08161,-0.0456 -0.156931,-0.0831 -0.167376,-0.0833 -0.02713,-4.6e-4 -0.193572,-0.18014 -0.272696,-0.29438 -0.168457,-0.24321 -0.158844,0.13301 -0.15791,-6.18031 l 8.61e-4,-5.82363 0.06457,-0.1501 c 0.03551,-0.0826 0.07658,-0.15011 0.09126,-0.15011 0.01468,0 0.02668,-0.013 0.02668,-0.029 0,-0.0621 0.309783,-0.33437 0.462947,-0.40682 l 0.161514,-0.0764 5.7056974,-0.0102 c 3.6583782,-0.007 5.7220768,4.4e-4 5.7513455,0.0194 0.025106,0.0163 0.06348,0.0323 0.085276,0.0356 0.021794,0.003 0.07507,0.0311 0.1183886,0.0617 0.043318,0.0306 0.098932,0.0694 0.123586,0.0862 0.077248,0.0524 0.2205255,0.20127 0.2205255,0.22907 0,0.0146 0.017119,0.0375 0.03804,0.0509 0.020923,0.0134 0.072276,0.0928 0.1141198,0.1765 l 0.07608,0.15216 0.00792,5.79605 c 0.00698,5.11214 0.00246,5.81482 -0.038348,5.95519 -0.025448,0.0875 -0.066669,0.17956 -0.091606,0.20449 -0.024937,0.0249 -0.04534,0.0538 -0.04534,0.0642 0,0.0323 -0.2996795,0.32026 -0.333303,0.32026 -0.017534,0 -0.031881,0.0127 -0.031881,0.0283 0,0.0155 -0.071896,0.0551 -0.1597681,0.088 -0.1555173,0.0582 -0.2767608,0.06 -4.557192,0.0711 -2.4185837,0.006 -4.4385077,0.008 -4.4887197,0.004 z m 3.6705102,-2.59492 c 0.1370063,-0.0251 0.1826509,-0.0513 0.2779877,-0.15977 0.1173305,-0.13348 0.1365813,-0.19202 0.1577922,-0.47979 0.03365,-0.45655 0.2928308,-0.74829 0.5708658,-0.64258 0.043557,0.0166 0.087449,0.0219 0.097539,0.0118 0.010089,-0.0101 0.018346,-0.005 0.018346,0.0116 0,0.0164 0.051464,0.0588 0.1143645,0.0942 0.062901,0.0354 0.1484908,0.10083 0.1902,0.14551 0.1833946,0.19645 0.4495583,0.24818 0.6780797,0.13178 0.1733608,-0.0883 0.5557422,-0.46275 0.6636631,-0.64989 0.1469419,-0.25481 0.11205,-0.42099 -0.1572204,-0.74879 -0.074175,-0.0903 -0.1419889,-0.17102 -0.1506982,-0.17939 -0.046127,-0.0443 -0.090677,-0.20149 -0.090677,-0.31991 0,-0.25847 0.2343131,-0.42706 0.6086398,-0.43793 0.271712,-0.008 0.4066998,-0.0492 0.5150033,-0.15746 0.1293894,-0.12939 0.1679879,-0.29227 0.1689134,-0.71281 6.086e-4,-0.28188 -0.011845,-0.39796 -0.054639,-0.50887 -0.096157,-0.24921 -0.1977898,-0.30317 -0.6444935,-0.34222 -0.2527776,-0.0221 -0.4660786,-0.10367 -0.5272654,-0.20164 -0.053114,-0.0851 -0.076498,-0.30365 -0.042017,-0.39279 0.016187,-0.0418 0.029901,-0.0882 0.030477,-0.10311 5.821e-4,-0.0149 0.013885,-0.0354 0.029578,-0.0457 0.051214,-0.0334 0.3047151,-0.35864 0.3543176,-0.45456 0.1291058,-0.24967 0.031816,-0.48134 -0.3563538,-0.84857 -0.2726224,-0.25792 -0.4247441,-0.3436 -0.6100694,-0.3436 -0.1422196,0 -0.1893993,0.027 -0.6020506,0.34426 -0.1645386,0.12651 -0.2072748,0.14539 -0.3138805,0.13867 -0.067875,-0.004 -0.1542209,-0.0272 -0.1918803,-0.051 -0.03766,-0.0238 -0.068472,-0.0338 -0.068472,-0.0222 0,0.0116 -0.035761,-0.0215 -0.079468,-0.0734 -0.081555,-0.0969 -0.1216877,-0.21789 -0.1519537,-0.45801 -0.026392,-0.20938 -0.092965,-0.45134 -0.146781,-0.53347 -0.1012103,-0.15447 -0.2063652,-0.18168 -0.7021335,-0.18168 -0.4234349,0 -0.4646299,0.005 -0.5690659,0.07 -0.180598,0.11229 -0.276618,0.31174 -0.310591,0.64514 -0.0094,0.0921 -0.03352,0.22216 -0.05365,0.28911 -0.02012,0.0669 -0.03748,0.13238 -0.03856,0.1454 -0.0011,0.013 -0.05674,0.0544 -0.123692,0.092 -0.191785,0.10767 -0.371247,0.10313 -0.515427,-0.0131 -0.635747,-0.51225 -0.783789,-0.51584 -1.268874,-0.0308 -0.335949,0.33595 -0.4502,0.55093 -0.393451,0.74034 0.02072,0.0692 0.105871,0.19651 0.199503,0.29836 0.258227,0.28089 0.32517,0.4535 0.256536,0.66146 -0.02021,0.0612 -0.05876,0.13455 -0.08569,0.16296 -0.07068,0.0746 -0.320841,0.15117 -0.550297,0.1685 -0.53491,0.0404 -0.670286,0.21483 -0.670286,0.86362 0,0.64868 0.149304,0.83991 0.66758,0.85504 0.263615,0.008 0.380296,0.044 0.507112,0.1578 0.106625,0.0957 0.181266,0.28549 0.154121,0.39193 -0.02196,0.0861 -0.17177,0.31829 -0.347537,0.53859 -0.198617,0.24895 -0.204074,0.35196 -0.03284,0.62009 0.112724,0.17651 0.529866,0.57399 0.674329,0.64254 0.182069,0.0864 0.348475,0.0664 0.532454,-0.0639 0.388355,-0.27509 0.452856,-0.31518 0.558604,-0.3472 0.155399,-0.0471 0.318822,0.0204 0.425578,0.17557 0.04454,0.0648 0.07689,0.12472 0.0719,0.13327 -0.0243,0.0416 0.0827,0.59534 0.13474,0.69734 0.03264,0.064 0.111377,0.15883 0.174969,0.21076 0.114967,0.0939 0.117713,0.0944 0.4842607,0.0955 0.2027512,5.5e-4 0.4424032,-0.0125 0.5325605,-0.029 z"
       id="path9571"
       inkscape:connector-curvature="0" />
    <circle
       style="display:inline;opacity:1;fill:none;fill-opacity:0.85882353;stroke:#000000;stroke-width:0.40000001;stroke-miterlimit:4;stroke-dasharray:none;stroke-opacity:1"
       id="path2753-3"
       cx="7.2760415"
       cy="289.72394"
       r="4.3252535" />
    <path
       style="opacity:0.4;fill:#87aade;fill-opacity:0.34509804;stroke-width:0.16266085"
       d="M 5.5344221,52.467489 C 4.7285446,52.214675 3.2112394,50.646942 2.9661541,49.813864 2.8162515,49.304326 2.7695674,43.940718 2.7707767,27.366668 L 2.7723657,5.5889866 3.1539767,4.7694847 C 3.6083294,3.7937709 4.7779003,2.7117117 5.6656638,2.4457312 6.1409214,2.3033406 11.748808,2.2544393 27.602567,2.2544393 h 21.298425 l 0.841425,0.4192994 c 0.953528,0.4751628 1.559427,1.1191714 2.054077,2.1832741 0.339945,0.7312948 0.34026,0.7523397 0.34026,22.6911882 v 21.959214 l -0.47968,0.865933 c -0.263825,0.476263 -0.751451,1.081179 -1.083614,1.344257 -1.297974,1.028015 0.285139,0.963287 -23.115264,0.94509 C 12.448891,52.651024 5.9345723,52.593021 5.5344221,52.467489 Z M 29.570597,44.541343 c 4.592407,-0.575839 8.831033,-3.005229 11.600713,-6.649002 1.07492,-1.414158 2.501696,-4.327199 2.915372,-5.952298 0.788868,-3.099006 0.756156,-6.180035 -0.09723,-9.158384 -1.763829,-6.155815 -6.780345,-10.804061 -13.060094,-12.10133 -2.110368,-0.43596 -5.79651,-0.346193 -7.746233,0.18864 -4.038536,1.107822 -7.511283,3.545751 -9.812611,6.888623 -3.434367,4.988704 -3.9834565,11.546378 -1.42074,16.96763 0.959949,2.030705 1.863322,3.322191 3.412763,4.878981 3.759503,3.777329 8.982726,5.592341 14.20806,4.93714 z"
       id="path2867"
       inkscape:connector-curvature="0"
       transform="matrix(0.26458333,0,0,0.26458333,0,282.4479)" />
    <path
       style="opacity:0.4;fill:#87aade;fill-opacity:0.34509804;stroke-width:0.16266085"
       d="m 25.744523,42.909457 c -3.462103,-0.422052 -6.440547,-1.845054 -8.963591,-4.282508 -2.040449,-1.971231 -3.350703,-4.11791 -4.201738,-6.883998 -0.402916,-1.309581 -0.440394,-1.661514 -0.446709,-4.19475 -0.006,-2.405644 0.04125,-2.932234 0.363365,-4.049448 0.467668,-1.622071 1.258993,-3.340514 2.151742,-4.672734 1.009323,-1.506178 3.283673,-3.664204 4.844204,-4.596441 1.532746,-0.915639 3.965332,-1.794012 5.724588,-2.067069 1.504961,-0.233588 4.597754,-0.101488 5.937121,0.253587 5.557308,1.47328 9.734035,5.533362 11.311082,10.995195 0.44534,1.542352 0.609185,4.844078 0.327145,6.59243 -1.298871,8.051651 -9.005556,13.886063 -17.047209,12.905736 z"
       id="path2875"
       inkscape:connector-curvature="0"
       transform="matrix(0.26458333,0,0,0.26458333,0,282.4479)" />
    <path
       style="opacity:0.4;fill:#87aade;fill-opacity:0.34509804;stroke-width:0.16266085"
       d="M 5.5077868,52.451774 C 4.7772337,52.19131 4.0899168,51.64328 3.5491135,50.890032 2.6449673,49.630708 2.6859231,50.780738 2.7116276,27.373636 L 2.735398,5.7278415 3.0951096,4.8916691 C 3.5360204,3.8667445 4.7696592,2.6718366 5.6349333,2.4315851 6.0714709,2.3103763 12.84679,2.2559735 27.583695,2.2553464 l 21.317297,-9.071e-4 0.841425,0.4192994 c 0.908681,0.452815 1.472704,1.0298214 2.036125,2.0829986 l 0.358212,0.6695884 V 27.46687 49.507415 l -0.358212,0.669588 c -0.562261,1.051009 -1.12702,1.629972 -2.027883,2.078892 l -0.833181,0.41519 -21.406871,-0.0034 C 10.312985,52.66492 5.9865533,52.622469 5.5077868,52.451774 Z M 29.449833,44.540403 c 3.96464,-0.484718 7.406143,-2.154309 10.174904,-4.9362 9.380719,-9.425204 5.038465,-25.228402 -7.901919,-28.758244 -1.200243,-0.3274 -1.758092,-0.377139 -4.229182,-0.377085 -2.589764,5.6e-5 -2.985972,0.03922 -4.391843,0.434162 -3.045159,0.855448 -5.568827,2.314274 -7.713272,4.458719 -5.194713,5.194713 -6.4954131,12.978625 -3.286685,19.668845 3.10983,6.484017 10.219419,10.381343 17.347997,9.509803 z"
       id="path2877"
       inkscape:connector-curvature="0"
       transform="matrix(0.26458333,0,0,0.26458333,0,282.4479)" />
    <path
       style="opacity:0.4;fill:#87aade;fill-opacity:0.34509804;stroke-width:0.16266085"
       d="M 25.785697,42.922178 C 18.918422,42.138844 13.290071,36.788677 12.19554,30.003721 c -0.28204,-1.748352 -0.118194,-5.050078 0.327144,-6.59243 1.557633,-5.39459 5.68154,-9.46741 11.077963,-10.940727 1.985598,-0.542103 5.792427,-0.542538 7.796849,-8.92e-4 5.292661,1.430212 9.378008,5.408062 11.009467,10.719773 0.403986,1.3153 0.440234,1.660757 0.448802,4.277425 0.0099,3.031418 -0.06965,3.502575 -0.988981,5.855791 -1.724441,4.414041 -5.817048,7.999294 -10.469288,9.171426 -1.778029,0.447975 -3.970946,0.61526 -5.611799,0.428091 z"
       id="path2879"
       inkscape:connector-curvature="0"
       transform="matrix(0.26458333,0,0,0.26458333,0,282.4479)" />
  </g>
</svg>
