<?xml version="1.0" encoding="UTF-8" standalone="no"?>
<!-- Created with Inkscape (http://www.inkscape.org/) -->

<svg
   xmlns:dc="http://purl.org/dc/elements/1.1/"
   xmlns:cc="http://creativecommons.org/ns#"
   xmlns:rdf="http://www.w3.org/1999/02/22-rdf-syntax-ns#"
   xmlns:svg="http://www.w3.org/2000/svg"
   xmlns="http://www.w3.org/2000/svg"
   xmlns:sodipodi="http://sodipodi.sourceforge.net/DTD/sodipodi-0.dtd"
   xmlns:inkscape="http://www.inkscape.org/namespaces/inkscape"
   width="55"
   height="55"
   viewBox="0 0 14.552083 14.552084"
   version="1.1"
   id="svg5625"
   inkscape:version="0.92.4 (f8dce91, 2019-08-02)"
   sodipodi:docname="normal_on.svg">
  <defs
     id="defs5619" />
  <sodipodi:namedview
     id="base"
     pagecolor="#ffffff"
     bordercolor="#666666"
     borderopacity="1.0"
     inkscape:pageopacity="0.0"
     inkscape:pageshadow="2"
     inkscape:zoom="4.3471235"
     inkscape:cx="14.750209"
     inkscape:cy="26.99241"
     inkscape:document-units="mm"
     inkscape:current-layer="layer1"
     showgrid="false"
     units="px"
     inkscape:window-width="1280"
     inkscape:window-height="996"
     inkscape:window-x="1366"
     inkscape:window-y="0"
     inkscape:window-maximized="1" />
  <metadata
     id="metadata5622">
    <rdf:RDF>
      <cc:Work
         rdf:about="">
        <dc:format>image/svg+xml</dc:format>
        <dc:type
           rdf:resource="http://purl.org/dc/dcmitype/StillImage" />
        <dc:title></dc:title>
      </cc:Work>
    </rdf:RDF>
  </metadata>
  <g
     inkscape:groupmode="layer"
     id="layer3"
     inkscape:label="background"
     style="display:none">
    <rect
       style="fill:#ffffff;stroke:#000000;stroke-width:0.26499999;stroke-miterlimit:4;stroke-dasharray:none;stroke-opacity:0"
       id="rect5632"
       width="18.757069"
       height="17.434153"
       x="-0.8976934"
       y="-0.94494051" />
  </g>
  <g
     inkscape:label="Layer 1"
     inkscape:groupmode="layer"
     id="layer1"
     transform="translate(0,-282.4479)"
     style="display:inline">
    <path
       style="fill:#4d4d4d;stroke-width:0.99999994;opacity:0.4"
       d="M 5.0390625 0.072265625 C 2.3170469 0.072265625 0.12695312 2.2643125 0.12695312 4.9863281 L 0.12695312 49.960938 C 0.12695312 52.682953 2.3170469 54.873047 5.0390625 54.873047 L 50.519531 54.873047 C 53.241547 54.873047 55.431641 52.682953 55.431641 49.960938 L 55.431641 4.9863281 C 55.431641 2.2643125 53.241547 0.072265625 50.519531 0.072265625 L 5.0390625 0.072265625 z M 7.0664062 2.1445312 L 47.822266 2.1445312 C 50.261515 2.1445312 52.224609 4.1076258 52.224609 6.546875 L 52.224609 48.386719 C 52.224609 50.825968 50.261515 52.791016 47.822266 52.791016 L 7.0664062 52.791016 C 4.627157 52.791016 2.6640625 50.825968 2.6640625 48.386719 L 2.6640625 6.546875 C 2.6640625 4.1076258 4.627157 2.1445312 7.0664062 2.1445312 z "
       transform="matrix(0.26458333,0,0,0.26458333,0,282.4479)"
       id="rect978" />
    <rect
       id="rect978-5"
       width="13.11291"
       height="13.400226"
       x="0.70492369"
       y="283.01511"
       rx="1.1649543"
       style="display:inline;fill:#cdcdcd;stroke-width:0.24078348;opacity:0.4;fill-opacity:0.40000001" />
    <path
       style="opacity:0.4;fill:#4d4d4d;stroke-width:0.08838835"
       d="M 3.6636139,54.632469 C 2.0471442,54.109252 0.91102243,52.989954 0.37888179,51.396377 L 0.17227413,50.777658 V 27.487329 c 0,-22.3142041 0.006777,-23.3125567 0.16169836,-23.82066 C 0.87300422,1.8987801 2.2853196,0.5927968 4.0613614,0.21991199 4.9970432,0.02346305 50.594251,0.02401712 51.525904,0.22048916 53.307408,0.59618163 54.772273,2.001122 55.2319,3.774884 c 0.124568,0.4807256 0.138789,2.9281776 0.137848,23.725203 -0.0011,25.463313 0.04051,23.547766 -0.537726,24.722337 -0.354552,0.720195 -1.262873,1.645601 -1.987492,2.024875 -1.138544,0.595927 0.855123,0.55252 -25.135759,0.547275 C 5.367592,54.790068 4.1246198,54.781687 3.6636139,54.632469 Z M 49.095224,52.64765 c 1.595304,-0.534705 2.8024,-1.885788 3.086902,-3.455118 0.06616,-0.364918 0.09461,-6.979563 0.09355,-21.743534 C 52.274377,9.5763289 52.25457,6.1376239 52.150072,5.6446235 51.791157,3.9513428 50.417986,2.5634223 48.759418,2.2175494 48.425125,2.147837 42.312958,2.1198729 27.410105,2.1198729 4.538443,2.1198729 6.09217,2.0844554 4.9917127,2.6309045 3.8768831,3.1844904 2.9057289,4.5393345 2.6970314,5.8321835 2.634144,6.2217614 2.6045682,13.207041 2.6051561,27.531523 c 9.449e-4,23.019521 -0.025997,21.769846 0.4921767,22.828955 0.126415,0.258383 0.4458527,0.703101 0.7098615,0.988262 0.7548267,0.815303 1.5162573,1.236508 2.5522641,1.41185 0.243068,0.04114 9.8486716,0.06922 21.3457856,0.0624 20.059107,-0.0119 20.92349,-0.01898 21.38998,-0.175338 z"
       id="path9211"
       inkscape:connector-curvature="0"
       transform="matrix(0.26458333,0,0,0.26458333,0,282.4479)" />
    <path
       style="opacity:1;fill:#cdcdcd;fill-opacity:0.4;stroke:none;stroke-width:0.06506434;stroke-miterlimit:4;stroke-dasharray:none;stroke-opacity:1"
       d="m -13.789189,298.22028 c -0.254376,-0.0908 -0.528857,-0.34379 -0.646061,-0.59549 l -0.101317,-0.21758 5.24e-4,-5.81004 c 5.02e-4,-5.55655 0.004,-5.81768 0.07999,-5.98501 0.114343,-0.25175 0.322387,-0.47129 0.555334,-0.58603 l 0.202536,-0.0998 h 5.6809296 5.68093 l 0.2039215,0.10133 c 0.2396178,0.11908 0.4399193,0.33367 0.5662033,0.6066 l 0.090622,0.19585 v 5.78852 c 0,5.45141 -0.00444,5.79798 -0.076294,5.95088 -0.1051751,0.2238 -0.3569015,0.49258 -0.5663311,0.60468 l -0.1750851,0.0937 -5.6594113,0.008 c -4.8816339,0.007 -5.6837479,-9.2e-4 -5.8364949,-0.0554 z m 6.9339476,-2.20957 c 1.605915,-0.44096 2.8086579,-1.64553 3.2605546,-3.2655 0.079485,-0.28494 0.092062,-0.4427 0.091534,-1.14804 -5.82e-4,-0.76484 -0.00817,-0.84276 -0.1175022,-1.20505 -0.5596943,-1.85465 -2.0375163,-3.09123 -3.9410401,-3.29768 -2.1418003,-0.2323 -4.1931129,1.15654 -4.7996609,3.24961 -0.318372,1.09863 -0.215997,2.22687 0.297248,3.27587 0.616673,1.2604 1.729571,2.12882 3.1215556,2.43583 0.5179462,0.11424 1.5916124,0.0911 2.0873114,-0.045 z"
       id="path2757"
       inkscape:connector-curvature="0" />
    <path
       style="display:inline;fill:#000000;stroke-width:0.05734504"
       d="m 6.5879009,292.69124 -0.657597,-0.65947 h 0.4434879 0.4434891 v -0.91752 -0.91752 h -0.917521 -0.91752 v 0.44412 0.44412 l -0.6734989,-0.6735 -0.6734991,-0.6735 0.6734991,-0.6735 0.6734989,-0.6735 v 0.44412 0.44412 h 0.91752 0.917521 v -0.91752 -0.91752 h -0.444119 -0.444119 l 0.673499,-0.6735 0.673499,-0.6735 0.6735,0.6735 0.6734995,0.6735 H 8.1789209 7.7348019 v 0.91752 0.91752 h 0.9175205 0.917521 v -0.44412 -0.44412 l 0.6734986,0.6735 0.673499,0.6735 -0.673499,0.6735 -0.6734986,0.6735 v -0.44412 -0.44412 H 8.6523224 7.7348019 v 0.91752 0.91752 h 0.443488 0.4434895 l -0.6575975,0.65947 c -0.3616791,0.36271 -0.6713419,0.65947 -0.688141,0.65947 -0.016801,0 -0.326462,-0.29676 -0.68814,-0.65947 z"
       id="path857-3"
       inkscape:connector-curvature="0" />
    <path
       style="opacity:1;fill:#cdcdcd;fill-opacity:0.4;stroke:none;stroke-width:0.34777272;stroke-miterlimit:4;stroke-dasharray:none;stroke-opacity:1"
       d="M 4.8607577,52.026275 C 4.3558141,51.698863 3.6881138,51.059477 3.3769792,50.60542 L 2.8112799,49.779858 V 27.564393 c 0,-21.8018598 0.00857,-22.2300006 0.4600744,-22.9962057 C 3.5243952,4.1387798 4.1291885,3.465921 4.6153396,3.0729456 L 5.4992505,2.358445 26.813927,2.2912702 c 11.723071,-0.036946 21.653318,-0.00596 22.067215,0.068856 0.979986,0.177144 2.315846,1.3639501 2.844097,2.5267549 0.395604,0.8708168 0.419192,2.1307656 0.423963,22.6455159 l 0.0051,21.723393 -0.493225,1.018867 c -0.327861,0.677268 -0.844276,1.241496 -1.540279,1.68289 l -1.047062,0.66402 H 27.426267 5.778837 Z M 30.105062,38.890099 c 1.372818,-1.352805 2.496032,-2.543248 2.496032,-2.645428 0,-0.102178 -0.724617,-0.18578 -1.61026,-0.18578 h -1.610261 v -3.335539 -3.335539 h 3.335539 3.335539 v 1.61026 c 0,0.885643 0.0794,1.61026 0.17645,1.61026 0.09705,0 1.311606,-1.138684 2.699015,-2.530409 l 2.522562,-2.530409 -2.522562,-2.530409 c -1.387409,-1.391724 -2.601967,-2.530408 -2.699015,-2.530408 -0.09705,0 -0.17645,0.724617 -0.17645,1.61026 v 1.61026 H 32.716112 29.380573 V 22.371679 19.03614 h 1.610261 c 0.885643,0 1.61026,-0.0794 1.61026,-0.176451 0,-0.09705 -1.139292,-1.312211 -2.531762,-2.700361 l -2.531759,-2.523911 -2.700362,2.700362 -2.700361,2.700361 h 1.781564 1.781565 v 3.335539 3.335539 H 22.36444 19.028901 v -1.61026 c 0,-0.885643 -0.0794,-1.61026 -0.176451,-1.61026 -0.09705,0 -1.311605,1.138684 -2.699014,2.530408 l -2.522563,2.530409 2.522563,2.530409 c 1.387409,1.391725 2.601966,2.530409 2.699014,2.530409 0.09705,0 0.176451,-0.724617 0.176451,-1.61026 v -1.61026 h 3.335539 3.335539 v 3.335539 3.335539 h -1.610261 c -0.885643,0 -1.61026,0.07595 -1.61026,0.168771 0,0.174051 4.862712,5.122084 5.033763,5.122084 0.05269,0 1.219025,-1.10684 2.591841,-2.459647 z"
       id="path3328"
       inkscape:connector-curvature="0"
       transform="matrix(0.26458333,0,0,0.26458333,0,282.4479)" />
  </g>
</svg>
