<?xml version="1.0" encoding="UTF-8" standalone="no"?>
<!-- Created with Inkscape (http://www.inkscape.org/) -->

<svg
   xmlns:dc="http://purl.org/dc/elements/1.1/"
   xmlns:cc="http://creativecommons.org/ns#"
   xmlns:rdf="http://www.w3.org/1999/02/22-rdf-syntax-ns#"
   xmlns:svg="http://www.w3.org/2000/svg"
   xmlns="http://www.w3.org/2000/svg"
   xmlns:sodipodi="http://sodipodi.sourceforge.net/DTD/sodipodi-0.dtd"
   xmlns:inkscape="http://www.inkscape.org/namespaces/inkscape"
   width="55"
   height="55"
   viewBox="0 0 14.552083 14.552084"
   version="1.1"
   id="svg5625"
   inkscape:version="0.92.4 (f8dce91, 2019-08-02)"
   sodipodi:docname="disabled_off.svg">
  <defs
     id="defs5619" />
  <sodipodi:namedview
     id="base"
     pagecolor="#ffffff"
     bordercolor="#666666"
     borderopacity="1.0"
     inkscape:pageopacity="0.0"
     inkscape:pageshadow="2"
     inkscape:zoom="2.8284273"
     inkscape:cx="-35.971124"
     inkscape:cy="44.077582"
     inkscape:document-units="mm"
     inkscape:current-layer="layer1"
     showgrid="false"
     units="px"
     inkscape:window-width="1280"
     inkscape:window-height="996"
     inkscape:window-x="1366"
     inkscape:window-y="0"
     inkscape:window-maximized="1" />
  <metadata
     id="metadata5622">
    <rdf:RDF>
      <cc:Work
         rdf:about="">
        <dc:format>image/svg+xml</dc:format>
        <dc:type
           rdf:resource="http://purl.org/dc/dcmitype/StillImage" />
        <dc:title></dc:title>
      </cc:Work>
    </rdf:RDF>
  </metadata>
  <g
     inkscape:groupmode="layer"
     id="layer3"
     inkscape:label="background"
     style="display:none">
    <rect
       style="fill:#ffffff;stroke:#000000;stroke-width:0.26499999;stroke-miterlimit:4;stroke-dasharray:none;stroke-opacity:0"
       id="rect5632"
       width="18.757069"
       height="17.434153"
       x="-0.8976934"
       y="-0.94494051" />
  </g>
  <g
     inkscape:label="Layer 1"
     inkscape:groupmode="layer"
     id="layer1"
     transform="translate(0,-282.4479)"
     style="display:inline">
    <path
       style="opacity:0.4;fill:#4d4d4d;stroke-width:0.26458332"
       d="m 1.2593547,282.46702 c -0.72020001,0 -1.29966232,0.57998 -1.29966232,1.30018 v 11.89953 c 0,0.7202 0.57946231,1.29966 1.29966232,1.29966 H 13.292728 c 0.720201,0 1.299663,-0.57946 1.299663,-1.29966 V 283.7672 c 0,-0.7202 -0.579462,-1.30018 -1.299663,-1.30018 z m 0.5364013,0.54829 h 10.783321 c 0.645385,0 1.164787,0.5194 1.164787,1.16478 v 11.07013 c 0,0.64538 -0.519402,1.1653 -1.164787,1.1653 H 1.795756 c -0.6453846,0 -1.16478677,-0.51992 -1.16478677,-1.1653 v -11.07013 c 0,-0.64538 0.51940217,-1.16478 1.16478677,-1.16478 z"
       id="rect978"
       inkscape:connector-curvature="0" />
    <rect
       id="rect978-5"
       width="13.11291"
       height="13.400226"
       x="0.71958655"
       y="283.01511"
       rx="1.1649543"
       style="display:inline;opacity:0.4;fill:#ffffff;stroke-width:0.24078348" />
    <path
       style="opacity:0.4;fill:#4d4d4d;stroke-width:0.02338609"
       d="m 0.89758691,296.90274 c -0.42769093,-0.13843 -0.72828982,-0.43458 -0.86908536,-0.85622 l -0.05466494,-0.1637 v -6.16223 c 0,-5.90397 0.0017931,-6.16811 0.04278269,-6.30255 0.14261881,-0.46775 0.51629392,-0.8133 0.9862049,-0.91195 0.2475658,-0.052 12.3118268,-0.0518 12.5583268,1.5e-4 0.471356,0.0994 0.858935,0.47112 0.980544,0.94043 0.03296,0.12719 0.03672,0.77475 0.03647,6.27729 -2.91e-4,6.73717 0.01072,6.23035 -0.142274,6.54112 -0.09381,0.19055 -0.334135,0.4354 -0.525857,0.53575 -0.30124,0.15767 0.226251,0.14619 -6.6505024,0.1448 -5.9111035,-10e-4 -6.2399732,-0.003 -6.36194769,-0.0429 z M 12.918033,296.37759 c 0.422091,-0.14147 0.741469,-0.49895 0.816743,-0.91417 0.0175,-0.0965 0.02503,-1.84667 0.02475,-5.75297 -3.44e-4,-4.72881 -0.0056,-5.63864 -0.03323,-5.76908 -0.09496,-0.44801 -0.458281,-0.81523 -0.89711,-0.90674 -0.08845,-0.0184 -1.705626,-0.0258 -5.6486724,-0.0258 -6.0514605,0 -5.6403703,-0.009 -5.9315329,0.13521 -0.29496531,0.14647 -0.55191652,0.50494 -0.6071344,0.84701 -0.016639,0.10307 -0.0244642,1.95126 -0.0243087,5.74128 2.5001e-4,6.09058 -0.006878,5.75994 0.13022175,6.04016 0.0334473,0.0684 0.1179652,0.18603 0.18781752,0.26148 0.19971453,0.21572 0.40117643,0.32716 0.67528653,0.37355 0.064312,0.0109 2.6057943,0.0183 5.647739,0.0165 5.3073046,-0.003 5.5360066,-0.005 5.6594316,-0.0464 z"
       id="path9211"
       inkscape:connector-curvature="0" />
    <path
       style="opacity:0.4;fill:#f9f9f9;fill-opacity:0.85882353;stroke-width:0.03307291"
       d="m 0.94849206,296.89383 c -0.34028491,-0.0678 -0.71460499,-0.40495 -0.86577564,-0.77976 L 0.004767,295.9208 -0.00348765,291.3402 c -0.00454007,-2.51933 0.0033895763,-5.33962 0.01762143,-6.26732 l 0.02587609,-1.68672 0.09193458,-0.17661 c 0.1290219,-0.24787 0.31775567,-0.44044 0.55901627,-0.5704 l 0.20677502,-0.11137 0.74414066,-0.0226 c 0.968101,-0.0294 10.3428366,-0.0294 11.3109376,0 l 0.744141,0.0226 0.206774,0.11137 c 0.240518,0.12956 0.429032,0.32154 0.560102,0.5704 l 0.09302,0.17661 v 6.33347 6.33346 l -0.0937,0.17796 c -0.11964,0.22722 -0.361016,0.4686 -0.588242,0.58824 l -0.177955,0.0937 -6.3003913,0.005 c -3.5716887,0.003 -6.3643512,-0.008 -6.44807164,-0.0243 z M 13.086208,296.32702 c 0.233619,-0.11474 0.47228,-0.3534 0.587016,-0.58702 l 0.08988,-0.183 v -5.83737 -5.83737 l -0.08831,-0.1884 c -0.112654,-0.24034 -0.342852,-0.47053 -0.583185,-0.58319 l -0.1884,-0.0883 H 7.1981262 1.4930482 l -0.1916174,0.0971 c -0.2237766,0.11339 -0.41173148,0.30523 -0.54192572,0.55312 l -0.0927594,0.17662 -0.0211958,1.38906 c -0.0283619,1.85869 -0.0281005,8.52495 3.7306e-4,9.54153 0.022429,0.80074 0.0237776,0.81237 0.11447296,0.98682 0.16285411,0.31324 0.4614941,0.55692 0.7734787,0.63113 0.071272,0.0169 2.5292593,0.0274 5.7469329,0.0244 l 5.6223965,-0.005 0.183003,-0.0899 z"
       id="path9380"
       inkscape:connector-curvature="0" />
    <path
       style="opacity:0.4;fill:#f9f9f9;fill-opacity:0.85882353;stroke-width:0.03307291"
       d="m 12.856747,296.92944 c 0.281947,-0.0106 -2.279905,-0.0222 -5.6930038,-0.0258 -3.5425313,-0.004 -6.23920146,-0.0192 -6.28385397,-0.0361 -0.0430211,-0.0162 -0.0893822,-0.023 -0.10302478,-0.0149 -0.0136427,0.008 -0.0248047,-0.002 -0.0248047,-0.0224 0,-0.0203 -0.0148828,-0.0278 -0.0330729,-0.0165 -0.0181901,0.0112 -0.0330729,0.004 -0.0330729,-0.0165 0,-0.0203 -0.0133234,-0.0287 -0.0296074,-0.0187 -0.016284,0.0101 -0.0385031,-0.005 -0.0493758,-0.0332 -0.0108725,-0.0283 -0.0310357,-0.0465 -0.0448067,-0.0405 -0.0311486,0.0138 -0.33561043,-0.29712 -0.3130705,-0.31966 0.009009,-0.009 -0.007989,-0.0257 -0.0377733,-0.0372 -0.0297842,-0.0114 -0.0459188,-0.0341 -0.0358547,-0.0504 0.0100641,-0.0163 5.674e-5,-0.0296 -0.0222386,-0.0296 -0.0222953,0 -0.031622,-0.009 -0.0207259,-0.0198 0.010896,-0.0109 -0.0126684,-0.0816 -0.05236545,-0.1571 l -0.07217644,-0.13729 4.8842e-4,-5.42395 c 2.6878e-4,-2.98318 0.0113157,-5.82334 0.02454881,-6.31147 0.02179322,-0.80388 0.03012991,-0.89603 0.08847988,-0.97797 0.0354308,-0.0498 0.0690323,-0.10969 0.07467,-0.13317 0.0147236,-0.0613 0.3137363,-0.33646 0.49844695,-0.45862 0.13727705,-0.0908 0.19452503,-0.10652 0.44648438,-0.12264 0.3408608,-0.0218 11.9371334,-0.0232 12.3350934,-10e-4 0.220587,0.012 0.295223,0.0306 0.394131,0.0978 0.06711,0.0456 0.13069,0.0796 0.141294,0.0756 0.0106,-0.004 0.102668,0.0785 0.204586,0.18337 0.101919,0.10486 0.179843,0.19065 0.173164,0.19065 -0.0067,0 0.02525,0.0565 0.07094,0.12555 l 0.08309,0.12556 7.14e-4,6.39205 c 7.15e-4,6.32925 6.7e-5,6.39296 -0.0651,6.4845 -0.0362,0.0508 -0.06035,0.0982 -0.05366,0.10524 0.0067,0.007 -0.09793,0.12227 -0.232487,0.25606 -0.134562,0.13379 -0.244657,0.23324 -0.244657,0.22099 0,-0.0122 -0.04093,0.007 -0.09095,0.0418 -0.136914,0.0964 -0.471184,0.13966 -1.019701,0.13193 l -0.493385,-0.007 z m 0.228534,-0.60299 c 0.263174,-0.15057 0.418444,-0.30317 0.566608,-0.55686 l 0.130344,-0.22318 v -5.82318 -5.82317 l -0.116604,-0.21213 c -0.130875,-0.2381 -0.384274,-0.49358 -0.569803,-0.57447 -0.06783,-0.0296 -0.134486,-0.051 -0.148129,-0.0476 -0.01364,0.003 -0.0248,-0.009 -0.0248,-0.0269 0,-0.0219 -1.931315,-0.0329 -5.7216147,-0.0325 -3.728154,3.4e-4 -5.7216144,0.0119 -5.7216144,0.0331 0,0.0179 -0.011162,0.0295 -0.024805,0.0258 -0.054581,-0.0147 -0.3202435,0.15157 -0.4502472,0.28181 -0.1506494,0.15093 -0.34790564,0.47496 -0.34872725,0.57284 -0.0155713,1.85517 -0.0204579,10.02792 -0.006394,10.69448 0.0184642,0.87514 0.0250441,0.95374 0.091962,1.09859 0.14542103,0.31478 0.49790285,0.60595 0.82902725,0.68483 0.070298,0.0167 2.5552475,0.0303 5.7282424,0.0313 l 5.6040839,0.002 z"
       id="path9382"
       inkscape:connector-curvature="0" />
    <path
       style="opacity:0.4;fill:#f9f9f9;fill-opacity:0.85882353;stroke-width:0.03307291"
       d="m 13.000453,296.93162 c 0.174772,-0.0177 -6.9812169,-0.0491 -11.7657225,-0.0515 -0.2319417,-1.3e-4 -0.4216976,-0.01 -0.42167977,-0.021 1.783e-5,-0.0114 -0.0471583,-0.0403 -0.10483575,-0.0642 -0.15670498,-0.0649 -0.46393001,-0.38473 -0.58384942,-0.60778 l -0.10575658,-0.19671 0.0028661,-5.75642 c 0.0015764,-3.16602 0.01383006,-6.01686 0.02723043,-6.33519 l 0.02436432,-0.57877 0.10886927,-0.17462 c 0.11445487,-0.18359 0.38528354,-0.42558 0.61224367,-0.54706 l 0.13465556,-0.0721 6.38196107,-0.007 c 3.5100776,-0.004 6.3899026,0.004 6.3996096,0.0174 0.0097,0.0133 0.08926,0.0611 0.176785,0.10612 0.08753,0.045 0.240612,0.17117 0.340191,0.28031 0.207888,0.22785 0.278776,0.31075 0.275751,0.32246 -0.0012,0.005 0.0068,0.0316 0.01779,0.0602 0.01096,0.0285 0.01564,2.91582 0.0104,6.41614 l -0.0095,6.36423 -0.07557,0.14151 c -0.107245,0.20082 -0.435581,0.50884 -0.659044,0.61826 -0.173754,0.0851 -0.226076,0.0938 -0.604239,0.10116 -0.322331,0.006 -0.362745,0.003 -0.182502,-0.0155 z m -0.08271,-0.54148 c 1.3e-5,-0.0147 0.01303,-0.0187 0.02893,-0.009 0.03812,0.0236 0.393886,-0.21049 0.504537,-0.33194 0.109314,-0.11997 0.271329,-0.37927 0.271329,-0.43424 0,-0.0229 0.01214,-0.0415 0.02698,-0.0415 0.01483,0 0.02676,-2.63047 0.02649,-5.8455 l -4.79e-4,-5.84551 -0.129479,-0.21795 c -0.07121,-0.11987 -0.189125,-0.27183 -0.262026,-0.33769 -0.131674,-0.11896 -0.393974,-0.27439 -0.441455,-0.26159 -0.01364,0.004 -0.02481,-0.008 -0.02481,-0.0263 0,-0.0217 -1.945237,-0.0327 -5.7230108,-0.0322 -4.2834242,5.7e-4 -5.7171352,0.0103 -5.6996524,0.0386 0.01545,0.025 0.00473,0.0306 -0.031676,0.0167 -0.030269,-0.0116 -0.055035,-0.006 -0.055035,0.0129 0,0.0187 -0.011909,0.0266 -0.026465,0.0176 -0.075928,-0.0469 -0.71412105,0.57274 -0.65290747,0.63395 0.008121,0.008 -0.00613,0.0357 -0.0316674,0.0612 -0.0598604,0.0599 -0.066584,0.77447 -0.064836,6.891 l 0.001336,4.67982 0.07329,0.23735 c 0.0566405,0.18343 0.11041234,0.27796 0.23670059,0.41614 0.18647848,0.20404 0.48379838,0.37281 0.67952218,0.38574 0.07276,0.005 0.1370499,0.0133 0.1428656,0.019 0.024922,0.0242 11.1514907,-0.002 11.1515117,-0.0266 z"
       id="path9384"
       inkscape:connector-curvature="0" />
    <path
       style="opacity:0.4;fill:#f2f2f2;fill-opacity:0.85882353;stroke-width:0.17677669"
       d="M 5.0424792,52.333788 C 4.2272717,51.963465 3.3179258,51.111391 2.8757265,50.3035 2.5925276,49.7861 2.5715286,48.209197 2.5715286,27.460024 V 5.1723123 L 3.1065318,4.3069512 C 3.4381253,3.7706028 3.9705265,3.2381803 4.50684,2.9065868 L 5.3721449,2.3715836 26.864418,2.3192404 c 14.305522,-0.03484 21.701838,0.00824 22.118985,0.1288327 0.88153,0.2548409 1.995363,1.2664941 2.489334,2.2609681 l 0.419487,0.8445227 V 27.473873 49.394182 l -0.483558,0.917116 c -0.482638,0.915366 -1.134107,1.526543 -2.203507,2.06722 -0.512101,0.25891 -2.599026,0.285665 -22.008698,0.282151 C 6.8116369,52.656978 5.7184223,52.640847 5.0424792,52.333788 Z M 29.680988,44.525583 c 6.489773,-0.813749 12.162942,-5.494617 14.131833,-11.660021 0.642845,-2.013013 0.814937,-3.212842 0.798686,-5.568466 -0.01294,-1.875164 -0.100998,-2.623429 -0.478492,-4.065863 -1.69555,-6.478822 -7.03669,-11.448115 -13.598863,-12.652115 -1.404744,-0.257737 -4.669477,-0.257737 -6.074221,0 -6.562765,1.204109 -11.90921,6.178943 -13.597203,12.652115 -0.629221,2.412955 -0.672104,5.787135 -0.102914,8.097606 2.155936,8.751429 10.113048,14.30119 18.921174,13.196744 z"
       id="path2910"
       inkscape:connector-curvature="0"
       transform="matrix(0.26458333,0,0,0.26458333,0,282.4479)" />
    <g
       style="display:inline;stroke:#afafaf;stroke-opacity:1"
       id="g836"
       transform="translate(0.52916686,-16.933346)">
      <circle
         r="4.3252535"
         cy="306.65729"
         cx="6.7468748"
         id="path2753-3-3"
         style="display:inline;opacity:1;fill:none;fill-opacity:0.85882353;stroke:#afafaf;stroke-width:0.40000001;stroke-miterlimit:4;stroke-dasharray:none;stroke-opacity:1" />
      <circle
         style="display:inline;opacity:1;fill:none;fill-opacity:0.85882353;stroke:#afafaf;stroke-width:0.31522113;stroke-miterlimit:4;stroke-dasharray:none;stroke-opacity:1"
         id="circle832"
         cx="6.7468748"
         cy="306.65729"
         r="3.4085283" />
    </g>
  </g>
</svg>
