<?xml version="1.0" encoding="UTF-8" standalone="no"?>
<!-- Created with Inkscape (http://www.inkscape.org/) -->

<svg
   xmlns:dc="http://purl.org/dc/elements/1.1/"
   xmlns:cc="http://creativecommons.org/ns#"
   xmlns:rdf="http://www.w3.org/1999/02/22-rdf-syntax-ns#"
   xmlns:svg="http://www.w3.org/2000/svg"
   xmlns="http://www.w3.org/2000/svg"
   xmlns:sodipodi="http://sodipodi.sourceforge.net/DTD/sodipodi-0.dtd"
   xmlns:inkscape="http://www.inkscape.org/namespaces/inkscape"
   width="55"
   height="55"
   viewBox="0 0 14.552083 14.552084"
   version="1.1"
   id="svg5625"
   inkscape:version="0.92.4 (f8dce91, 2019-08-02)"
   sodipodi:docname="normal_on.svg">
  <defs
     id="defs5619" />
  <sodipodi:namedview
     id="base"
     pagecolor="#ffffff"
     bordercolor="#666666"
     borderopacity="1.0"
     inkscape:pageopacity="0.0"
     inkscape:pageshadow="2"
     inkscape:zoom="4.3471235"
     inkscape:cx="23.759003"
     inkscape:cy="-6.7127825"
     inkscape:document-units="mm"
     inkscape:current-layer="layer1"
     showgrid="false"
     units="px"
     inkscape:window-width="1280"
     inkscape:window-height="996"
     inkscape:window-x="1366"
     inkscape:window-y="0"
     inkscape:window-maximized="1" />
  <metadata
     id="metadata5622">
    <rdf:RDF>
      <cc:Work
         rdf:about="">
        <dc:format>image/svg+xml</dc:format>
        <dc:type
           rdf:resource="http://purl.org/dc/dcmitype/StillImage" />
        <dc:title></dc:title>
      </cc:Work>
    </rdf:RDF>
  </metadata>
  <g
     inkscape:groupmode="layer"
     id="layer3"
     inkscape:label="background"
     style="display:none">
    <rect
       style="fill:#ffffff;stroke:#000000;stroke-width:0.26499999;stroke-miterlimit:4;stroke-dasharray:none;stroke-opacity:0"
       id="rect5632"
       width="18.757069"
       height="17.434153"
       x="-0.8976934"
       y="-0.94494051" />
  </g>
  <g
     inkscape:label="Layer 1"
     inkscape:groupmode="layer"
     id="layer1"
     transform="translate(0,-282.4479)"
     style="display:inline">
    <path
       style="fill:#4d4d4d;stroke-width:0.99999994;opacity:0.4"
       d="M 5.0390625 0.072265625 C 2.3170469 0.072265625 0.12695312 2.2643125 0.12695312 4.9863281 L 0.12695312 49.960938 C 0.12695312 52.682953 2.3170469 54.873047 5.0390625 54.873047 L 50.519531 54.873047 C 53.241547 54.873047 55.431641 52.682953 55.431641 49.960938 L 55.431641 4.9863281 C 55.431641 2.2643125 53.241547 0.072265625 50.519531 0.072265625 L 5.0390625 0.072265625 z M 7.0664062 2.1445312 L 47.822266 2.1445312 C 50.261515 2.1445312 52.224609 4.1076258 52.224609 6.546875 L 52.224609 48.386719 C 52.224609 50.825968 50.261515 52.791016 47.822266 52.791016 L 7.0664062 52.791016 C 4.627157 52.791016 2.6640625 50.825968 2.6640625 48.386719 L 2.6640625 6.546875 C 2.6640625 4.1076258 4.627157 2.1445312 7.0664062 2.1445312 z "
       transform="matrix(0.26458333,0,0,0.26458333,0,282.4479)"
       id="rect978" />
    <rect
       id="rect978-5"
       width="13.11291"
       height="13.400226"
       x="0.70492369"
       y="283.01511"
       rx="1.1649543"
       style="display:inline;fill:#ffffff;stroke-width:0.24078348;opacity:0.4" />
    <path
       style="opacity:0.4;fill:#4d4d4d;stroke-width:0.08838835"
       d="M 3.6636139,54.632469 C 2.0471442,54.109252 0.91102243,52.989954 0.37888179,51.396377 L 0.17227413,50.777658 V 27.487329 c 0,-22.3142041 0.006777,-23.3125567 0.16169836,-23.82066 C 0.87300422,1.8987801 2.2853196,0.5927968 4.0613614,0.21991199 4.9970432,0.02346305 50.594251,0.02401712 51.525904,0.22048916 53.307408,0.59618163 54.772273,2.001122 55.2319,3.774884 c 0.124568,0.4807256 0.138789,2.9281776 0.137848,23.725203 -0.0011,25.463313 0.04051,23.547766 -0.537726,24.722337 -0.354552,0.720195 -1.262873,1.645601 -1.987492,2.024875 -1.138544,0.595927 0.855123,0.55252 -25.135759,0.547275 C 5.367592,54.790068 4.1246198,54.781687 3.6636139,54.632469 Z M 49.095224,52.64765 c 1.595304,-0.534705 2.8024,-1.885788 3.086902,-3.455118 0.06616,-0.364918 0.09461,-6.979563 0.09355,-21.743534 C 52.274377,9.5763289 52.25457,6.1376239 52.150072,5.6446235 51.791157,3.9513428 50.417986,2.5634223 48.759418,2.2175494 48.425125,2.147837 42.312958,2.1198729 27.410105,2.1198729 4.538443,2.1198729 6.09217,2.0844554 4.9917127,2.6309045 3.8768831,3.1844904 2.9057289,4.5393345 2.6970314,5.8321835 2.634144,6.2217614 2.6045682,13.207041 2.6051561,27.531523 c 9.449e-4,23.019521 -0.025997,21.769846 0.4921767,22.828955 0.126415,0.258383 0.4458527,0.703101 0.7098615,0.988262 0.7548267,0.815303 1.5162573,1.236508 2.5522641,1.41185 0.243068,0.04114 9.8486716,0.06922 21.3457856,0.0624 20.059107,-0.0119 20.92349,-0.01898 21.38998,-0.175338 z"
       id="path9211"
       inkscape:connector-curvature="0"
       transform="matrix(0.26458333,0,0,0.26458333,0,282.4479)" />
    <path
       style="opacity:1;fill:#cdcdcd;fill-opacity:0.4;stroke:none;stroke-width:0.24591246;stroke-miterlimit:4;stroke-dasharray:none;stroke-opacity:1"
       d="M 5.6227121,52.480993 C 4.6612915,52.137826 3.6238825,51.18162 3.1809042,50.230316 l -0.3829301,-0.82235 0.00198,-21.959214 C 2.8018542,6.4476381 2.8150454,5.4606854 3.102292,4.8282601 3.5344573,3.8767699 4.3207633,3.0470061 5.201192,2.6133574 L 5.9666825,2.2363207 H 27.437914 48.909146 l 0.770727,0.3830019 c 0.905642,0.4500453 1.662687,1.2610939 2.139981,2.292638 l 0.342509,0.7402378 V 27.530082 c 0,20.603735 -0.01679,21.913619 -0.288354,22.491486 -0.397512,0.845887 -1.348919,1.861718 -2.140464,2.285408 l -0.661739,0.354207 -21.389901,0.02935 C 9.2316346,52.715856 6.2000229,52.687059 5.6227121,52.480993 Z M 31.829757,44.129862 c 6.0696,-1.666612 10.6154,-6.219311 12.323356,-12.342062 0.300414,-1.076937 0.347951,-1.673164 0.345954,-4.339048 -0.0022,-2.890736 -0.03088,-3.185209 -0.444103,-4.554504 -2.11538,-7.009719 -7.700849,-11.683387 -14.89527,-12.46369 -8.094993,-0.8779781 -15.847987,4.371191 -18.140451,12.282003 -1.2032937,4.152315 -0.816366,8.416518 1.123458,12.38125 2.330734,4.763701 6.536959,8.045928 11.798005,9.20629 1.957592,0.431762 6.015543,0.344195 7.889051,-0.170239 z"
       id="path2757"
       inkscape:connector-curvature="0"
       transform="matrix(0.26458333,0,0,0.26458333,0,282.4479)" />
    <g
       style="display:inline"
       id="g836"
       transform="translate(0.52916686,-16.933346)">
      <circle
         r="4.3252535"
         cy="306.65729"
         cx="6.7468748"
         id="path2753-3-3"
         style="display:inline;opacity:1;fill:none;fill-opacity:0.85882353;stroke:#000000;stroke-width:0.40000001;stroke-miterlimit:4;stroke-dasharray:none;stroke-opacity:1" />
      <circle
         style="display:inline;opacity:1;fill:none;fill-opacity:0.85882353;stroke:#000000;stroke-width:0.31522113;stroke-miterlimit:4;stroke-dasharray:none;stroke-opacity:1"
         id="circle832"
         cx="6.7468748"
         cy="306.65729"
         r="3.4085283" />
    </g>
    <path
       style="opacity:1;fill:#e0e0e0;fill-opacity:0.63921569;stroke:none;stroke-width:0.34777272;stroke-miterlimit:4;stroke-dasharray:none;stroke-opacity:1"
       d="M 24.242081,39.199829 C 22.191362,38.610552 20.503513,37.60948 18.954268,36.063603 14.33436,31.453737 14.14325,24.122071 18.519774,19.394902 c 3.823857,-4.130222 9.328698,-5.196877 14.2768,-2.766368 6.502746,3.19415 8.83185,11.376645 4.947513,17.381362 -2.877837,4.44879 -8.525927,6.619816 -13.502006,5.189933 z"
       id="path3392"
       inkscape:connector-curvature="0"
       transform="matrix(0.26458333,0,0,0.26458333,0,282.4479)" />
    <path
       style="opacity:1;fill:#e0e0e0;fill-opacity:0.63921569;stroke:none;stroke-width:0.34777272;stroke-miterlimit:4;stroke-dasharray:none;stroke-opacity:1"
       d="m 25.400485,42.832465 c -6.139866,-0.933228 -11.315157,-5.53874 -12.905432,-11.484589 -0.525747,-1.965709 -0.5357,-5.595165 -0.02082,-7.591227 1.165889,-4.519838 4.235961,-8.205849 8.555418,-10.271863 5.967327,-2.854199 13.414101,-1.330987 17.944224,3.670429 2.38099,2.628699 4.002665,6.765186 4.012239,10.234217 0.0092,3.330837 -1.421913,7.375272 -3.49127,9.866668 -3.437093,4.13807 -9.021322,6.347445 -14.094362,5.576365 z m 5.373935,-2.176696 c 4.420087,-1.041905 8.164372,-4.536232 9.603968,-8.962838 0.791776,-2.434621 0.841094,-5.900106 0.116219,-8.166319 -1.353808,-4.232477 -4.849834,-7.693467 -9.121374,-9.02996 -2.256599,-0.706051 -5.821297,-0.687376 -7.936282,0.04158 -4.562219,1.572422 -7.904081,5.115511 -9.07043,9.616596 -0.422083,1.628874 -0.470339,4.583698 -0.103197,6.319087 1.013906,4.792484 4.946543,8.845463 9.863738,10.165577 1.654923,0.444294 4.798914,0.451993 6.647358,0.01629 z"
       id="path3394"
       inkscape:connector-curvature="0"
       transform="matrix(0.26458333,0,0,0.26458333,0,282.4479)" />
  </g>
</svg>
