<?xml version="1.0" encoding="UTF-8" standalone="no"?>
<!-- Created with Inkscape (http://www.inkscape.org/) -->

<svg
   xmlns:dc="http://purl.org/dc/elements/1.1/"
   xmlns:cc="http://creativecommons.org/ns#"
   xmlns:rdf="http://www.w3.org/1999/02/22-rdf-syntax-ns#"
   xmlns:svg="http://www.w3.org/2000/svg"
   xmlns="http://www.w3.org/2000/svg"
   xmlns:sodipodi="http://sodipodi.sourceforge.net/DTD/sodipodi-0.dtd"
   xmlns:inkscape="http://www.inkscape.org/namespaces/inkscape"
   width="55"
   height="55"
   viewBox="0 0 14.552083 14.552084"
   version="1.1"
   id="svg5625"
   inkscape:version="0.92.4 (f8dce91, 2019-08-02)"
   sodipodi:docname="normal_on.svg">
  <defs
     id="defs5619" />
  <sodipodi:namedview
     id="base"
     pagecolor="#ffffff"
     bordercolor="#666666"
     borderopacity="1.0"
     inkscape:pageopacity="0.0"
     inkscape:pageshadow="2"
     inkscape:zoom="4.3471235"
     inkscape:cx="41.543208"
     inkscape:cy="24.942391"
     inkscape:document-units="mm"
     inkscape:current-layer="layer1"
     showgrid="false"
     units="px"
     inkscape:window-width="1280"
     inkscape:window-height="996"
     inkscape:window-x="1366"
     inkscape:window-y="0"
     inkscape:window-maximized="1" />
  <metadata
     id="metadata5622">
    <rdf:RDF>
      <cc:Work
         rdf:about="">
        <dc:format>image/svg+xml</dc:format>
        <dc:type
           rdf:resource="http://purl.org/dc/dcmitype/StillImage" />
        <dc:title></dc:title>
      </cc:Work>
    </rdf:RDF>
  </metadata>
  <g
     inkscape:groupmode="layer"
     id="layer3"
     inkscape:label="background"
     style="display:none">
    <rect
       style="fill:#ffffff;stroke:#000000;stroke-width:0.26499999;stroke-miterlimit:4;stroke-dasharray:none;stroke-opacity:0"
       id="rect5632"
       width="18.757069"
       height="17.434153"
       x="-0.8976934"
       y="-0.94494051" />
  </g>
  <g
     inkscape:label="Layer 1"
     inkscape:groupmode="layer"
     id="layer1"
     transform="translate(0,-282.4479)"
     style="display:inline">
    <path
       style="fill:#4d4d4d;stroke-width:0.99999994;opacity:0.4"
       d="M 5.0390625 0.072265625 C 2.3170469 0.072265625 0.12695312 2.2643125 0.12695312 4.9863281 L 0.12695312 49.960938 C 0.12695312 52.682953 2.3170469 54.873047 5.0390625 54.873047 L 50.519531 54.873047 C 53.241547 54.873047 55.431641 52.682953 55.431641 49.960938 L 55.431641 4.9863281 C 55.431641 2.2643125 53.241547 0.072265625 50.519531 0.072265625 L 5.0390625 0.072265625 z M 7.0664062 2.1445312 L 47.822266 2.1445312 C 50.261515 2.1445312 52.224609 4.1076258 52.224609 6.546875 L 52.224609 48.386719 C 52.224609 50.825968 50.261515 52.791016 47.822266 52.791016 L 7.0664062 52.791016 C 4.627157 52.791016 2.6640625 50.825968 2.6640625 48.386719 L 2.6640625 6.546875 C 2.6640625 4.1076258 4.627157 2.1445312 7.0664062 2.1445312 z "
       transform="matrix(0.26458333,0,0,0.26458333,0,282.4479)"
       id="rect978" />
    <rect
       id="rect978-5"
       width="13.11291"
       height="13.400226"
       x="0.70492369"
       y="283.01511"
       rx="1.1649543"
       style="display:inline;fill:#cdcdcd;stroke-width:0.24078348;opacity:0.4;fill-opacity:0.40000001" />
    <path
       style="opacity:0.4;fill:#4d4d4d;stroke-width:0.08838835"
       d="M 3.6636139,54.632469 C 2.0471442,54.109252 0.91102243,52.989954 0.37888179,51.396377 L 0.17227413,50.777658 V 27.487329 c 0,-22.3142041 0.006777,-23.3125567 0.16169836,-23.82066 C 0.87300422,1.8987801 2.2853196,0.5927968 4.0613614,0.21991199 4.9970432,0.02346305 50.594251,0.02401712 51.525904,0.22048916 53.307408,0.59618163 54.772273,2.001122 55.2319,3.774884 c 0.124568,0.4807256 0.138789,2.9281776 0.137848,23.725203 -0.0011,25.463313 0.04051,23.547766 -0.537726,24.722337 -0.354552,0.720195 -1.262873,1.645601 -1.987492,2.024875 -1.138544,0.595927 0.855123,0.55252 -25.135759,0.547275 C 5.367592,54.790068 4.1246198,54.781687 3.6636139,54.632469 Z M 49.095224,52.64765 c 1.595304,-0.534705 2.8024,-1.885788 3.086902,-3.455118 0.06616,-0.364918 0.09461,-6.979563 0.09355,-21.743534 C 52.274377,9.5763289 52.25457,6.1376239 52.150072,5.6446235 51.791157,3.9513428 50.417986,2.5634223 48.759418,2.2175494 48.425125,2.147837 42.312958,2.1198729 27.410105,2.1198729 4.538443,2.1198729 6.09217,2.0844554 4.9917127,2.6309045 3.8768831,3.1844904 2.9057289,4.5393345 2.6970314,5.8321835 2.634144,6.2217614 2.6045682,13.207041 2.6051561,27.531523 c 9.449e-4,23.019521 -0.025997,21.769846 0.4921767,22.828955 0.126415,0.258383 0.4458527,0.703101 0.7098615,0.988262 0.7548267,0.815303 1.5162573,1.236508 2.5522641,1.41185 0.243068,0.04114 9.8486716,0.06922 21.3457856,0.0624 20.059107,-0.0119 20.92349,-0.01898 21.38998,-0.175338 z"
       id="path9211"
       inkscape:connector-curvature="0"
       transform="matrix(0.26458333,0,0,0.26458333,0,282.4479)" />
    <circle
       style="opacity:1;fill:none;fill-opacity:0.85882353;stroke:#000000;stroke-width:0.40000001;stroke-miterlimit:4;stroke-dasharray:none;stroke-opacity:1"
       id="path2753"
       cx="7.9455457"
       cy="273.59497"
       r="4.325253" />
    <path
       style="opacity:1;fill:#cdcdcd;fill-opacity:0.4;stroke:none;stroke-width:0.06506434;stroke-miterlimit:4;stroke-dasharray:none;stroke-opacity:1"
       d="m 17.007996,310.81913 c -0.254375,-0.0908 -0.528857,-0.34379 -0.646061,-0.59549 l -0.101317,-0.21758 5.24e-4,-5.81005 c 5.02e-4,-5.55654 0.004,-5.81767 0.07999,-5.985 0.114344,-0.25175 0.322387,-0.47129 0.555334,-0.58603 l 0.202536,-0.0997 h 5.68093 5.68093 l 0.203922,0.10133 c 0.239618,0.11908 0.439919,0.33367 0.566203,0.6066 l 0.09062,0.19585 v 5.78852 c 0,5.45141 -0.0044,5.79798 -0.07629,5.95088 -0.105176,0.2238 -0.356902,0.49258 -0.566332,0.60468 l -0.175085,0.0937 -5.659411,0.008 c -4.881634,0.007 -5.683748,-9.2e-4 -5.836495,-0.0554 z m 6.933948,-2.20957 c 1.605915,-0.44096 2.808657,-1.64553 3.260554,-3.26551 0.07949,-0.28494 0.09206,-0.44269 0.09153,-1.14804 -5.82e-4,-0.76484 -0.0082,-0.84275 -0.117502,-1.20504 -0.559695,-1.85466 -2.037517,-3.09123 -3.941041,-3.29769 -2.1418,-0.23229 -4.193113,1.15655 -4.79966,3.24962 -0.318372,1.09863 -0.215997,2.22687 0.297248,3.27587 0.616673,1.2604 1.72957,2.12882 3.121555,2.43583 0.517946,0.11424 1.591613,0.0911 2.087312,-0.045 z"
       id="path2757"
       inkscape:connector-curvature="0" />
    <path
       style="opacity:1;fill:#cdcdcd;fill-opacity:0.4;stroke:none;stroke-width:0.06506434;stroke-miterlimit:4;stroke-dasharray:none;stroke-opacity:1"
       d="m 7.3481146,277.6619 c -1.7255728,-0.28659 -3.062478,-1.55759 -3.4236138,-3.25482 -0.083403,-0.39197 -0.080349,-1.23737 0.00598,-1.65531 0.4187203,-2.02716 2.3601862,-3.44693 4.4218291,-3.23363 0.5166352,0.0534 0.8239048,0.13934 1.3134329,0.36713 0.5191042,0.24156 0.8525302,0.48223 1.2618052,0.91077 0.774993,0.81148 1.147771,1.8221 1.098846,2.97905 -0.03357,0.79382 -0.226993,1.40776 -0.651564,2.06811 -0.274719,0.42728 -0.867102,0.9993 -1.307037,1.26211 -0.3890163,0.23239 -1.0413222,0.47213 -1.4715937,0.54085 -0.2695717,0.043 -1.0261681,0.0526 -1.2480829,0.0157 z"
       id="path2759"
       inkscape:connector-curvature="0" />
    <g
       transform="translate(1.5894572e-7,3.6783855e-6)"
       style="display:inline"
       id="g3272">
      <circle
         r="5.0018644"
         cy="289.72394"
         cx="7.2760415"
         id="path8344"
         style="fill:none;stroke:#000000;stroke-width:0.65069515;stroke-linejoin:bevel;stroke-miterlimit:4;stroke-dasharray:none;stroke-dashoffset:0;stroke-opacity:1" />
      <path
         transform="scale(-1,1)"
         inkscape:transform-center-y="-0.24726215"
         inkscape:transform-center-x="0.12846314"
         d="m -5.2810031,293.07734 -5.8287659,-3.38331 5.8444202,-3.35621 z"
         inkscape:randomized="0"
         inkscape:rounded="0"
         inkscape:flatsided="true"
         sodipodi:arg2="2.0967179"
         sodipodi:arg1="1.0495203"
         sodipodi:r2="2.6559763"
         sodipodi:r1="3.8910728"
         sodipodi:cy="289.70306"
         sodipodi:cx="-7.2187071"
         sodipodi:sides="3"
         id="path8352"
         style="fill:#000000;fill-opacity:1;stroke:#000000;stroke-width:0.565;stroke-linejoin:bevel;stroke-miterlimit:4;stroke-dasharray:none;stroke-dashoffset:0;stroke-opacity:1"
         sodipodi:type="star" />
    </g>
  </g>
</svg>
