<?xml version="1.0" encoding="UTF-8" standalone="no"?>
<!-- Created with Inkscape (http://www.inkscape.org/) -->

<svg
   xmlns:dc="http://purl.org/dc/elements/1.1/"
   xmlns:cc="http://creativecommons.org/ns#"
   xmlns:rdf="http://www.w3.org/1999/02/22-rdf-syntax-ns#"
   xmlns:svg="http://www.w3.org/2000/svg"
   xmlns="http://www.w3.org/2000/svg"
   xmlns:sodipodi="http://sodipodi.sourceforge.net/DTD/sodipodi-0.dtd"
   xmlns:inkscape="http://www.inkscape.org/namespaces/inkscape"
   width="55"
   height="55"
   viewBox="0 0 14.552083 14.552084"
   version="1.1"
   id="svg5625"
   inkscape:version="0.92.4 (f8dce91, 2019-08-02)"
   sodipodi:docname="normal_off.svg">
  <defs
     id="defs5619" />
  <sodipodi:namedview
     id="base"
     pagecolor="#ffffff"
     bordercolor="#666666"
     borderopacity="1.0"
     inkscape:pageopacity="0.0"
     inkscape:pageshadow="2"
     inkscape:zoom="4"
     inkscape:cx="17.854868"
     inkscape:cy="3.7931472"
     inkscape:document-units="mm"
     inkscape:current-layer="layer1"
     showgrid="false"
     units="px"
     inkscape:window-width="1280"
     inkscape:window-height="996"
     inkscape:window-x="1366"
     inkscape:window-y="0"
     inkscape:window-maximized="1" />
  <metadata
     id="metadata5622">
    <rdf:RDF>
      <cc:Work
         rdf:about="">
        <dc:format>image/svg+xml</dc:format>
        <dc:type
           rdf:resource="http://purl.org/dc/dcmitype/StillImage" />
        <dc:title></dc:title>
      </cc:Work>
    </rdf:RDF>
  </metadata>
  <g
     inkscape:groupmode="layer"
     id="layer3"
     inkscape:label="background"
     style="display:none">
    <rect
       style="fill:#ffffff;stroke:#000000;stroke-width:0.26499999;stroke-miterlimit:4;stroke-dasharray:none;stroke-opacity:0"
       id="rect5632"
       width="18.757069"
       height="17.434153"
       x="-0.8976934"
       y="-0.94494051" />
  </g>
  <g
     inkscape:label="Layer 1"
     inkscape:groupmode="layer"
     id="layer1"
     transform="translate(0,-282.4479)"
     style="display:inline">
    <path
       style="fill:#333333;stroke-width:0.99999994;opacity:0.4"
       d="M 5.0390625 0.072265625 C 2.3170469 0.072265625 0.12695312 2.2643125 0.12695312 4.9863281 L 0.12695312 49.960938 C 0.12695312 52.682953 2.3170469 54.873047 5.0390625 54.873047 L 50.519531 54.873047 C 53.241547 54.873047 55.431641 52.682953 55.431641 49.960938 L 55.431641 4.9863281 C 55.431641 2.2643125 53.241547 0.072265625 50.519531 0.072265625 L 5.0390625 0.072265625 z M 7.0664062 2.1445312 L 47.822266 2.1445312 C 50.261515 2.1445312 52.224609 4.1076258 52.224609 6.546875 L 52.224609 48.386719 C 52.224609 50.825968 50.261515 52.791016 47.822266 52.791016 L 7.0664062 52.791016 C 4.627157 52.791016 2.6640625 50.825968 2.6640625 48.386719 L 2.6640625 6.546875 C 2.6640625 4.1076258 4.627157 2.1445312 7.0664062 2.1445312 z "
       transform="matrix(0.26458333,0,0,0.26458333,0,282.4479)"
       id="rect978" />
    <rect
       id="rect978-5"
       width="13.11291"
       height="13.400226"
       x="0.70492369"
       y="283.01511"
       rx="1.1649543"
       style="display:inline;fill:#ffffff;stroke-width:0.24078348;opacity:0.4" />
    <path
       style="display:inline;fill:#000000;stroke-width:0.03176188"
       d="m 7.5238922,292.23843 c -0.2397948,-0.56338 -0.4790798,-1.11987 -0.5317458,-1.23665 l -0.09576,-0.21234 -0.178878,0.0808 c -0.09838,0.0444 -0.271782,0.1208 -0.385331,0.16973 -0.113549,0.0489 -0.37082,0.16306 -0.571714,0.25364 -0.200894,0.0906 -0.390274,0.17217 -0.420845,0.1813 -0.05263,0.0157 -0.05558,-0.12485 -0.05558,-2.64187 0,-1.62826 0.01146,-2.65437 0.02958,-2.64788 0.01627,0.006 0.391459,0.3335 0.83375,0.72817 0.442291,0.39468 1.3212699,1.17694 1.9532871,1.73837 0.6320174,0.56142 1.1569952,1.03351 1.1666182,1.04908 0.0096,0.0156 -0.07155,0.0674 -0.1803851,0.11512 -0.1088343,0.0477 -0.3193698,0.14092 -0.4678567,0.20705 -0.1484868,0.0661 -0.3840562,0.17104 -0.5234881,0.23312 -0.1394318,0.0621 -0.2579233,0.1261 -0.2633145,0.14227 -0.00539,0.0162 0.2194587,0.56509 0.4996668,1.21981 0.280208,0.65472 0.5094692,1.19959 0.5094692,1.21083 0,0.0227 -0.808472,0.43378 -0.853195,0.43378 -0.01556,0 -0.2244889,-0.46094 -0.4642838,-1.02432 z"
       id="path859"
       inkscape:connector-curvature="0" />
  </g>
</svg>
