<?xml version="1.0" encoding="UTF-8" standalone="no"?>
<!-- Created with Inkscape (http://www.inkscape.org/) -->

<svg
   xmlns:dc="http://purl.org/dc/elements/1.1/"
   xmlns:cc="http://creativecommons.org/ns#"
   xmlns:rdf="http://www.w3.org/1999/02/22-rdf-syntax-ns#"
   xmlns:svg="http://www.w3.org/2000/svg"
   xmlns="http://www.w3.org/2000/svg"
   xmlns:sodipodi="http://sodipodi.sourceforge.net/DTD/sodipodi-0.dtd"
   xmlns:inkscape="http://www.inkscape.org/namespaces/inkscape"
   width="55"
   height="55"
   viewBox="0 0 14.552083 14.552084"
   version="1.1"
   id="svg5625"
   inkscape:version="0.92.4 (f8dce91, 2019-08-02)"
   sodipodi:docname="normal_on.svg">
  <defs
     id="defs5619" />
  <sodipodi:namedview
     id="base"
     pagecolor="#ffffff"
     bordercolor="#666666"
     borderopacity="1.0"
     inkscape:pageopacity="0.0"
     inkscape:pageshadow="2"
     inkscape:zoom="4.3471235"
     inkscape:cx="20.679326"
     inkscape:cy="-5.2134745"
     inkscape:document-units="mm"
     inkscape:current-layer="layer1"
     showgrid="false"
     units="px"
     inkscape:window-width="1280"
     inkscape:window-height="996"
     inkscape:window-x="1366"
     inkscape:window-y="0"
     inkscape:window-maximized="1" />
  <metadata
     id="metadata5622">
    <rdf:RDF>
      <cc:Work
         rdf:about="">
        <dc:format>image/svg+xml</dc:format>
        <dc:type
           rdf:resource="http://purl.org/dc/dcmitype/StillImage" />
        <dc:title></dc:title>
      </cc:Work>
    </rdf:RDF>
  </metadata>
  <g
     inkscape:groupmode="layer"
     id="layer3"
     inkscape:label="background"
     style="display:none">
    <rect
       style="fill:#ffffff;stroke:#000000;stroke-width:0.26499999;stroke-miterlimit:4;stroke-dasharray:none;stroke-opacity:0"
       id="rect5632"
       width="18.757069"
       height="17.434153"
       x="-0.8976934"
       y="-0.94494051" />
  </g>
  <g
     inkscape:label="Layer 1"
     inkscape:groupmode="layer"
     id="layer1"
     transform="translate(0,-282.4479)"
     style="display:inline">
    <path
       style="fill:#4d4d4d;stroke-width:0.99999994;opacity:0.4"
       d="M 5.0390625 0.072265625 C 2.3170469 0.072265625 0.12695312 2.2643125 0.12695312 4.9863281 L 0.12695312 49.960938 C 0.12695312 52.682953 2.3170469 54.873047 5.0390625 54.873047 L 50.519531 54.873047 C 53.241547 54.873047 55.431641 52.682953 55.431641 49.960938 L 55.431641 4.9863281 C 55.431641 2.2643125 53.241547 0.072265625 50.519531 0.072265625 L 5.0390625 0.072265625 z M 7.0664062 2.1445312 L 47.822266 2.1445312 C 50.261515 2.1445312 52.224609 4.1076258 52.224609 6.546875 L 52.224609 48.386719 C 52.224609 50.825968 50.261515 52.791016 47.822266 52.791016 L 7.0664062 52.791016 C 4.627157 52.791016 2.6640625 50.825968 2.6640625 48.386719 L 2.6640625 6.546875 C 2.6640625 4.1076258 4.627157 2.1445312 7.0664062 2.1445312 z "
       transform="matrix(0.26458333,0,0,0.26458333,0,282.4479)"
       id="rect978" />
    <rect
       id="rect978-5"
       width="13.11291"
       height="13.400226"
       x="0.70492369"
       y="283.01511"
       rx="1.1649543"
       style="display:inline;fill:#cdcdcd;stroke-width:0.24078348;opacity:0.4;fill-opacity:0.40000001" />
    <path
       style="opacity:0.4;fill:#4d4d4d;stroke-width:0.08838835"
       d="M 3.6636139,54.632469 C 2.0471442,54.109252 0.91102243,52.989954 0.37888179,51.396377 L 0.17227413,50.777658 V 27.487329 c 0,-22.3142041 0.006777,-23.3125567 0.16169836,-23.82066 C 0.87300422,1.8987801 2.2853196,0.5927968 4.0613614,0.21991199 4.9970432,0.02346305 50.594251,0.02401712 51.525904,0.22048916 53.307408,0.59618163 54.772273,2.001122 55.2319,3.774884 c 0.124568,0.4807256 0.138789,2.9281776 0.137848,23.725203 -0.0011,25.463313 0.04051,23.547766 -0.537726,24.722337 -0.354552,0.720195 -1.262873,1.645601 -1.987492,2.024875 -1.138544,0.595927 0.855123,0.55252 -25.135759,0.547275 C 5.367592,54.790068 4.1246198,54.781687 3.6636139,54.632469 Z M 49.095224,52.64765 c 1.595304,-0.534705 2.8024,-1.885788 3.086902,-3.455118 0.06616,-0.364918 0.09461,-6.979563 0.09355,-21.743534 C 52.274377,9.5763289 52.25457,6.1376239 52.150072,5.6446235 51.791157,3.9513428 50.417986,2.5634223 48.759418,2.2175494 48.425125,2.147837 42.312958,2.1198729 27.410105,2.1198729 4.538443,2.1198729 6.09217,2.0844554 4.9917127,2.6309045 3.8768831,3.1844904 2.9057289,4.5393345 2.6970314,5.8321835 2.634144,6.2217614 2.6045682,13.207041 2.6051561,27.531523 c 9.449e-4,23.019521 -0.025997,21.769846 0.4921767,22.828955 0.126415,0.258383 0.4458527,0.703101 0.7098615,0.988262 0.7548267,0.815303 1.5162573,1.236508 2.5522641,1.41185 0.243068,0.04114 9.8486716,0.06922 21.3457856,0.0624 20.059107,-0.0119 20.92349,-0.01898 21.38998,-0.175338 z"
       id="path9211"
       inkscape:connector-curvature="0"
       transform="matrix(0.26458333,0,0,0.26458333,0,282.4479)" />
    <path
       style="display:inline;fill:#000000;stroke-width:0.03176188"
       d="m 7.5238925,292.23843 c -0.239795,-0.56338 -0.47908,-1.11987 -0.531746,-1.23665 l -0.09576,-0.21234 -0.178878,0.0808 c -0.09838,0.0444 -0.271782,0.1208 -0.385331,0.16973 -0.113549,0.0489 -0.37082,0.16306 -0.571714,0.25364 -0.200894,0.0906 -0.390274,0.17217 -0.420845,0.1813 -0.05263,0.0157 -0.05558,-0.12485 -0.05558,-2.64187 0,-1.62826 0.01146,-2.65437 0.02958,-2.64788 0.01627,0.006 0.391459,0.3335 0.83375,0.72817 0.442291,0.39468 1.32127,1.17694 1.953287,1.73837 0.632017,0.56142 1.156995,1.03351 1.166618,1.04908 0.0096,0.0156 -0.07155,0.0674 -0.180385,0.11512 -0.108834,0.0477 -0.31937,0.14092 -0.467857,0.20705 -0.148487,0.0661 -0.384056,0.17104 -0.523488,0.23312 -0.139432,0.0621 -0.257923,0.1261 -0.263314,0.14227 -0.0054,0.0162 0.219458,0.56509 0.499666,1.21981 0.280208,0.65472 0.50947,1.19959 0.50947,1.21083 0,0.0227 -0.808472,0.43378 -0.853195,0.43378 -0.01556,0 -0.224489,-0.46094 -0.464284,-1.02432 z"
       id="path859"
       inkscape:connector-curvature="0" />
  </g>
</svg>
