<?xml version="1.0" encoding="UTF-8" standalone="no"?>
<!-- Created with Inkscape (http://www.inkscape.org/) -->

<svg
   xmlns:dc="http://purl.org/dc/elements/1.1/"
   xmlns:cc="http://creativecommons.org/ns#"
   xmlns:rdf="http://www.w3.org/1999/02/22-rdf-syntax-ns#"
   xmlns:svg="http://www.w3.org/2000/svg"
   xmlns="http://www.w3.org/2000/svg"
   xmlns:sodipodi="http://sodipodi.sourceforge.net/DTD/sodipodi-0.dtd"
   xmlns:inkscape="http://www.inkscape.org/namespaces/inkscape"
   width="55"
   height="55"
   viewBox="0 0 14.552083 14.552084"
   version="1.1"
   id="svg5625"
   inkscape:version="0.92.4 (f8dce91, 2019-08-02)"
   sodipodi:docname="disabled_off.svg">
  <defs
     id="defs5619" />
  <sodipodi:namedview
     id="base"
     pagecolor="#ffffff"
     bordercolor="#666666"
     borderopacity="1.0"
     inkscape:pageopacity="0.0"
     inkscape:pageshadow="2"
     inkscape:zoom="11.313709"
     inkscape:cx="19.667535"
     inkscape:cy="11.506951"
     inkscape:document-units="mm"
     inkscape:current-layer="layer1"
     showgrid="false"
     units="px"
     inkscape:window-width="1280"
     inkscape:window-height="996"
     inkscape:window-x="1366"
     inkscape:window-y="0"
     inkscape:window-maximized="1" />
  <metadata
     id="metadata5622">
    <rdf:RDF>
      <cc:Work
         rdf:about="">
        <dc:format>image/svg+xml</dc:format>
        <dc:type
           rdf:resource="http://purl.org/dc/dcmitype/StillImage" />
        <dc:title></dc:title>
      </cc:Work>
    </rdf:RDF>
  </metadata>
  <g
     inkscape:groupmode="layer"
     id="layer3"
     inkscape:label="background"
     style="display:none">
    <rect
       style="fill:#ffffff;stroke:#000000;stroke-width:0.26499999;stroke-miterlimit:4;stroke-dasharray:none;stroke-opacity:0"
       id="rect5632"
       width="18.757069"
       height="17.434153"
       x="-0.8976934"
       y="-0.94494051" />
  </g>
  <g
     inkscape:label="Layer 1"
     inkscape:groupmode="layer"
     id="layer1"
     transform="translate(0,-282.4479)"
     style="display:inline">
    <path
       style="fill:#4d4d4d;stroke-width:0.99999994;opacity:0.4"
       d="M 5.0390625 0.072265625 C 2.3170469 0.072265625 0.12695312 2.2643125 0.12695312 4.9863281 L 0.12695312 49.960938 C 0.12695312 52.682953 2.3170469 54.873047 5.0390625 54.873047 L 50.519531 54.873047 C 53.241547 54.873047 55.431641 52.682953 55.431641 49.960938 L 55.431641 4.9863281 C 55.431641 2.2643125 53.241547 0.072265625 50.519531 0.072265625 L 5.0390625 0.072265625 z M 7.0664062 2.1445312 L 47.822266 2.1445312 C 50.261515 2.1445312 52.224609 4.1076258 52.224609 6.546875 L 52.224609 48.386719 C 52.224609 50.825968 50.261515 52.791016 47.822266 52.791016 L 7.0664062 52.791016 C 4.627157 52.791016 2.6640625 50.825968 2.6640625 48.386719 L 2.6640625 6.546875 C 2.6640625 4.1076258 4.627157 2.1445312 7.0664062 2.1445312 z "
       transform="matrix(0.26458333,0,0,0.26458333,0,282.4479)"
       id="rect978" />
    <rect
       id="rect978-5"
       width="13.11291"
       height="13.400226"
       x="0.70492369"
       y="283.01511"
       rx="1.1649543"
       style="display:inline;fill:#ffffff;stroke-width:0.24078348;opacity:0.4" />
    <path
       style="fill:#999999;stroke-width:0.04850694"
       d="m 6.6998066,293.7217 c -0.1819715,-0.14314 -0.2723845,-0.36961 -0.2737148,-0.6856 -0.00114,-0.27075 -0.078907,-0.41723 -0.2746474,-0.51733 -0.1992583,-0.1019 -0.3429214,-0.0619 -0.6009745,0.16727 -0.4625554,0.41081 -0.6400423,0.40063 -1.1216911,-0.0644 -0.3316945,-0.32023 -0.4605161,-0.55702 -0.4024892,-0.73985 0.017318,-0.0546 0.1389524,-0.22201 0.2702986,-0.37211 0.303271,-0.34657 0.3203948,-0.52548 0.073888,-0.77198 -0.1518025,-0.15181 -0.1886562,-0.16493 -0.4632248,-0.16493 -0.5696061,0 -0.730046,-0.18655 -0.730046,-0.84887 0,-0.65301 0.1628014,-0.84887 0.7055843,-0.84887 0.6633707,0 0.8701742,-0.52 0.3858219,-0.97014 -0.3547893,-0.32973 -0.3334464,-0.56676 0.09108,-1.01153 0.4946651,-0.51825 0.6844807,-0.54197 1.1622156,-0.14525 0.3158519,0.2623 0.4517828,0.28947 0.6978071,0.13946 0.1685851,-0.10279 0.1923997,-0.16712 0.2212169,-0.59755 0.020279,-0.3029 0.1279243,-0.49952 0.3304641,-0.60361 0.1379814,-0.0709 0.8579655,-0.0814 1.0325284,-0.015 0.1951469,0.0742 0.292672,0.27515 0.3249311,0.66955 0.035048,0.42849 0.152108,0.58492 0.4695729,0.6275 0.1827121,0.0245 0.2147616,0.0101 0.4341701,-0.19513 0.4519295,-0.42273 0.656443,-0.41324 1.1392142,0.0528 0.506681,0.48916 0.525933,0.68936 0.109137,1.13495 -0.172865,0.18481 -0.215758,0.26546 -0.215758,0.40571 0,0.35146 0.205382,0.50821 0.665895,0.50821 0.49455,0 0.643793,0.19678 0.643793,0.84887 0,0.6619 -0.160553,0.84887 -0.728927,0.84887 -0.263788,0 -0.313115,0.0159 -0.438971,0.14179 -0.110826,0.11083 -0.14179,0.18543 -0.14179,0.34163 0,0.17019 0.03267,0.23476 0.220229,0.43528 0.392422,0.41953 0.375782,0.63981 -0.08333,1.10303 -0.4744553,0.47872 -0.7473413,0.50578 -1.1316152,0.11225 -0.4532678,-0.46419 -0.9455662,-0.20005 -0.9455662,0.50733 0,0.22704 -0.021427,0.29158 -0.1414497,0.42599 -0.1401346,0.15694 -0.1461155,0.15857 -0.6431176,0.17462 -0.460293,0.0149 -0.513121,0.007 -0.6405395,-0.093 z m 1.0578399,-0.3147 c 0.052476,-0.0525 0.076225,-0.16754 0.076225,-0.36932 0,-0.47488 0.1974849,-0.73993 0.6474668,-0.86898 0.2320247,-0.0665 0.5394612,0.0396 0.8043514,0.27779 0.1297589,0.11667 0.2660911,0.21212 0.3029602,0.21212 0.036869,0 0.2051146,-0.13932 0.3738789,-0.3096 0.3504702,-0.35361 0.3539762,-0.39478 0.057526,-0.67569 -0.2273499,-0.21544 -0.3170887,-0.45416 -0.2734092,-0.72731 0.072385,-0.45268 0.3954582,-0.71275 0.8854042,-0.71275 0.15844,0 0.312922,-0.0261 0.345072,-0.0582 0.07822,-0.0782 0.07822,-0.82402 0,-0.90223 -0.03201,-0.032 -0.172477,-0.0582 -0.312138,-0.0582 -0.307635,0 -0.482023,-0.0611 -0.6664009,-0.2335 -0.3821314,-0.35729 -0.3581258,-0.83984 0.063614,-1.27875 0.108362,-0.11277 0.197022,-0.22436 0.197022,-0.24797 0,-0.0736 -0.5936426,-0.66513 -0.6675322,-0.66513 -0.038539,0 -0.1789965,0.0979 -0.3121272,0.21763 -0.1334925,0.12002 -0.3273723,0.2406 -0.4322812,0.26885 -0.5632437,0.15167 -1.0619135,-0.28206 -1.0619135,-0.92362 0,-0.14908 -0.026194,-0.29725 -0.058208,-0.32927 -0.035231,-0.0352 -0.2061929,-0.0582 -0.4330977,-0.0582 -0.4738948,0 -0.5273398,0.0448 -0.5273398,0.44244 0,0.44956 -0.2219268,0.75993 -0.6184635,0.86491 -0.2963459,0.0785 -0.5531607,-0.004 -0.8353734,-0.26786 -0.1263424,-0.11818 -0.2596046,-0.21487 -0.2961383,-0.21487 -0.085519,0 -0.6753719,0.58311 -0.6753719,0.66765 0,0.0353 0.097148,0.16797 0.215884,0.29491 0.2984522,0.31907 0.3726702,0.59778 0.2424408,0.91043 -0.053984,0.1296 -0.1737086,0.29089 -0.279158,0.37608 -0.1598807,0.12916 -0.2314189,0.1517 -0.5335764,0.16812 -0.1919176,0.0104 -0.3762262,0.041 -0.4095747,0.068 -0.080896,0.0654 -0.082929,0.82008 -0.00243,0.90059 0.032015,0.032 0.1793544,0.0587 0.3274219,0.0593 0.8938129,0.004 1.2625044,0.83373 0.6528243,1.46999 -0.1176101,0.12274 -0.2138365,0.25065 -0.2138365,0.28425 0,0.0891 0.5898658,0.67004 0.6803072,0.67004 0.042225,0 0.1519963,-0.0782 0.243936,-0.17375 0.1955525,-0.20327 0.2966674,-0.26377 0.5298239,-0.31702 0.3273477,-0.0747 0.7356845,0.12738 0.900262,0.44563 0.039118,0.0756 0.071018,0.26759 0.071018,0.42732 0,0.39868 0.05277,0.44244 0.5335764,0.44244 0.281802,0 0.4009909,-0.0199 0.4573511,-0.0762 z m -0.7884454,-1.67176 c -0.3541678,-0.0508 -0.8574826,-0.30909 -1.1264238,-0.57803 -0.1230744,-0.12308 -0.298415,-0.3754 -0.3896458,-0.56071 -0.1584702,-0.3219 -0.1658742,-0.36085 -0.1658742,-0.87256 0,-0.51171 0.0074,-0.55066 0.1658742,-0.87255 0.632466,-1.28472 2.3278565,-1.56002 3.2969398,-0.53536 0.1399397,0.14797 0.321586,0.41344 0.4071222,0.59501 0.1414375,0.30022 0.1544456,0.36869 0.1544456,0.8129 0,0.44369 -0.013108,0.51289 -0.1536467,0.8112 -0.4112826,0.87298 -1.2527951,1.33438 -2.1887913,1.2001 z m 0.8231807,-0.38654 c 1.1070191,-0.34918 1.551545,-1.61809 0.9074844,-2.59045 -0.3180804,-0.48021 -0.9834346,-0.79841 -1.5464314,-0.73957 -0.590826,0.0618 -1.1414808,0.43612 -1.3921609,0.94647 -0.1197154,0.24373 -0.1344483,0.32688 -0.1344483,0.75879 0,0.43192 0.014733,0.51506 0.1344483,0.75879 0.2157215,0.43918 0.6719396,0.7955 1.1752194,0.91789 0.2626166,0.0639 0.5426763,0.0469 0.8558885,-0.0519 z"
       id="path8615"
       inkscape:connector-curvature="0" />
    <path
       style="opacity:0.4;fill:#4d4d4d;stroke-width:0.08838835"
       d="M 3.6636139,54.632469 C 2.0471442,54.109252 0.91102243,52.989954 0.37888179,51.396377 L 0.17227413,50.777658 V 27.487329 c 0,-22.3142041 0.006777,-23.3125567 0.16169836,-23.82066 C 0.87300422,1.8987801 2.2853196,0.5927968 4.0613614,0.21991199 4.9970432,0.02346305 50.594251,0.02401712 51.525904,0.22048916 53.307408,0.59618163 54.772273,2.001122 55.2319,3.774884 c 0.124568,0.4807256 0.138789,2.9281776 0.137848,23.725203 -0.0011,25.463313 0.04051,23.547766 -0.537726,24.722337 -0.354552,0.720195 -1.262873,1.645601 -1.987492,2.024875 -1.138544,0.595927 0.855123,0.55252 -25.135759,0.547275 C 5.367592,54.790068 4.1246198,54.781687 3.6636139,54.632469 Z M 49.095224,52.64765 c 1.595304,-0.534705 2.8024,-1.885788 3.086902,-3.455118 0.06616,-0.364918 0.09461,-6.979563 0.09355,-21.743534 C 52.274377,9.5763289 52.25457,6.1376239 52.150072,5.6446235 51.791157,3.9513428 50.417986,2.5634223 48.759418,2.2175494 48.425125,2.147837 42.312958,2.1198729 27.410105,2.1198729 4.538443,2.1198729 6.09217,2.0844554 4.9917127,2.6309045 3.8768831,3.1844904 2.9057289,4.5393345 2.6970314,5.8321835 2.634144,6.2217614 2.6045682,13.207041 2.6051561,27.531523 c 9.449e-4,23.019521 -0.025997,21.769846 0.4921767,22.828955 0.126415,0.258383 0.4458527,0.703101 0.7098615,0.988262 0.7548267,0.815303 1.5162573,1.236508 2.5522641,1.41185 0.243068,0.04114 9.8486716,0.06922 21.3457856,0.0624 20.059107,-0.0119 20.92349,-0.01898 21.38998,-0.175338 z"
       id="path9211"
       inkscape:connector-curvature="0"
       transform="matrix(0.26458333,0,0,0.26458333,0,282.4479)" />
    <path
       style="opacity:0.4;fill:#cccccc;stroke-width:0.125"
       d="M 5.8500311,52.554356 C 4.5834457,52.15633 3.6120025,51.287598 3.0354161,50.037333 L 2.7517762,49.42229 V 27.48479 5.5472902 L 3.0843271,4.8378969 C 3.5290603,3.8891977 4.3126732,3.0654001 5.1715878,2.6435987 L 5.8767762,2.2972902 27.272756,2.2639522 48.668737,2.2306143 49.366089,2.4915271 c 0.973755,0.3643284 1.94035,1.2792332 2.39754,2.2693276 l 0.363147,0.7864355 V 27.48479 49.42229 l -0.329396,0.702501 c -0.44594,0.951055 -1.074605,1.614262 -2.012061,2.122612 l -0.783543,0.424887 -21.3125,0.0238 C 10.299361,52.715506 6.2798283,52.68942 5.8500311,52.554356 Z M 29.622505,42.80713 c 0.70238,-0.293472 1.054262,-0.973519 1.174127,-2.269111 0.11424,-1.234808 0.316788,-1.736995 0.897745,-2.225839 0.709364,-0.596891 1.516954,-0.40229 2.682399,0.646363 1.47114,1.323712 2.432789,1.192865 4.179725,-0.568719 1.735998,-1.750555 1.826958,-2.599333 0.445275,-4.155034 -0.306604,-0.34522 -0.649149,-0.804975 -0.761211,-1.02168 -0.244256,-0.47234 -0.178639,-1.199961 0.147166,-1.63189 0.479153,-0.635227 0.792071,-0.764899 2.05762,-0.852662 1.450224,-0.100573 1.881463,-0.31186 2.27783,-1.116038 0.243635,-0.494302 0.278301,-0.7613 0.276256,-2.12773 -0.002,-1.328984 -0.04239,-1.64991 -0.270295,-2.147375 -0.349366,-0.762569 -0.770768,-0.971036 -2.244783,-1.110492 -1.599653,-0.151343 -2.071565,-0.412054 -2.303244,-1.272443 -0.193776,-0.719627 -0.05087,-1.127662 0.723531,-2.065861 0.950093,-1.151055 1.231346,-1.79654 1.048588,-2.406536 -0.187933,-0.627263 -0.979982,-1.596278 -1.991837,-2.436869 -1.462297,-1.214795 -2.113812,-1.205811 -3.609196,0.04977 -1.202905,1.010003 -1.282414,1.045118 -2.00153,0.88396 -0.641586,-0.143782 -1.118246,-0.501159 -1.301456,-0.975769 -0.06245,-0.161765 -0.193295,-0.825051 -0.290779,-1.473968 -0.19059,-1.268697 -0.427926,-1.803759 -0.984211,-2.218847 -0.291628,-0.217606 -0.570018,-0.270583 -1.61097,-0.306567 -1.747643,-0.06041 -2.517995,0.054 -2.979759,0.442546 -0.565111,0.47551 -0.733344,0.905123 -0.924557,2.36102 -0.193928,1.476574 -0.317563,1.69795 -1.158412,2.074219 -0.703406,0.314766 -0.969961,0.228985 -2.247043,-0.72313 -1.820544,-1.357286 -2.354917,-1.333255 -3.942814,0.177319 -0.55591,0.52884 -1.170641,1.211602 -1.36607,1.51725 -0.651874,1.019523 -0.429536,1.971287 0.702399,3.006777 0.773737,0.70781 1.01732,1.732921 0.581567,2.447505 -0.327476,0.537024 -0.979832,0.806705 -2.243205,0.927335 -1.31812,0.125855 -1.635487,0.240421 -2.058444,0.743079 -0.425226,0.505351 -0.525252,1.019099 -0.524633,2.694581 4.25e-4,1.167928 0.04239,1.460123 0.278595,1.94023 0.396044,0.804988 0.826327,1.015411 2.282901,1.116424 1.318329,0.09143 1.616067,0.230641 2.207379,1.032117 0.535892,0.726363 0.395547,1.219988 -0.756632,2.661229 -0.9813,1.227491 -1.060248,1.522636 -0.638101,2.385476 0.373051,0.76249 1.680375,2.144244 2.551331,2.696589 0.327964,0.207988 0.733868,0.355435 0.978472,0.355435 0.48803,0 1.230636,-0.352541 1.810822,-0.859661 1.198493,-1.047561 1.903674,-1.246725 2.698498,-0.762135 0.51607,0.31464 0.718095,0.8022 0.822411,1.984785 0.100211,1.136046 0.391335,1.823709 0.997316,2.355761 l 0.462699,0.40625 h 1.749665 c 1.229409,0 1.876097,-0.05283 2.174865,-0.17766 z"
       id="path9215"
       inkscape:connector-curvature="0"
       transform="matrix(0.26458333,0,0,0.26458333,0,282.4479)" />
    <path
       style="opacity:0.4;fill:#cccccc;stroke-width:0.125"
       d="m 26.106519,41.484961 c -0.327043,-0.131881 -0.373235,-0.281208 -0.483394,-1.562671 -0.04728,-0.55 -0.170713,-1.211857 -0.274296,-1.470794 -0.372553,-0.931306 -1.810815,-1.841706 -2.909553,-1.841706 -0.789002,0 -1.602134,0.377123 -2.429192,1.126635 -0.454185,0.411601 -0.915917,0.748365 -1.026072,0.748365 -0.203764,0 -2.222819,-1.888219 -2.431258,-2.27371 -0.08847,-0.163611 0.0422,-0.395569 0.579818,-1.029281 0.91431,-1.077736 1.236095,-1.800331 1.228861,-2.759509 -0.01345,-1.783052 -1.240081,-2.836612 -3.550849,-3.049837 -0.626296,-0.05779 -1.205115,-0.171469 -1.286264,-0.252619 -0.235343,-0.235343 -0.199315,-2.949345 0.04236,-3.19102 0.121873,-0.121873 0.630413,-0.235583 1.419553,-0.317412 1.39803,-0.144968 1.916674,-0.34732 2.451514,-0.956469 0.652469,-0.743121 0.927731,-1.405557 0.927731,-2.232643 0,-0.884476 -0.257909,-1.450416 -1.116863,-2.450778 -0.958405,-1.116186 -0.979657,-0.976661 0.351522,-2.30784 0.648385,-0.648385 1.238692,-1.178882 1.311793,-1.178882 0.0731,0 0.376346,0.196121 0.673878,0.435825 1.324906,1.067397 1.843967,1.355319 2.548704,1.413761 2.0653,0.171271 3.322366,-1.040186 3.503843,-3.376717 0.116479,-1.49967 0.163131,-1.535369 2.006476,-1.535369 1.058474,0 1.45551,0.04335 1.53204,0.167287 0.05682,0.09201 0.141333,0.62332 0.187815,1.180694 0.190145,2.27999 1.369063,3.589519 3.231503,3.589519 0.933667,0 1.331385,-0.177331 2.632045,-1.173557 0.503687,-0.385793 0.977482,-0.701443 1.052877,-0.701443 0.170719,0 2.408164,2.210366 2.408164,2.379019 0,0.06766 -0.336061,0.52327 -0.746802,1.012459 -1.538727,1.832612 -1.619855,3.509261 -0.232902,4.813278 0.645314,0.606725 1.166062,0.808744 2.377685,0.9224 0.614435,0.05764 1.192897,0.167654 1.28547,0.244484 0.337658,0.280231 0.390185,2.729705 0.06966,3.248329 -0.06495,0.105092 -0.509454,0.199967 -1.209159,0.258084 -0.608548,0.05054 -1.331451,0.185886 -1.606451,0.300758 -1.136281,0.474645 -1.840574,1.569558 -1.8494,2.875129 -0.0063,0.928585 0.302505,1.588188 1.175704,2.511466 0.405762,0.429034 0.611196,0.754344 0.611196,0.967849 0,0.349104 -0.893571,1.41344 -1.768321,2.106255 -0.588388,0.466013 -0.662166,0.446268 -1.814373,-0.48558 -1.199076,-0.969754 -2.18704,-1.21999 -3.30829,-0.837942 -1.35492,0.461667 -1.958777,1.367988 -2.11333,3.171862 -0.135895,1.586119 -0.199205,1.639958 -1.915783,1.629226 -0.697072,-0.0044 -1.389019,-0.05696 -1.53766,-0.116905 z m 3.12912,-6.436475 c 1.70031,-0.360236 3.45902,-1.498613 4.494472,-2.909182 0.23923,-0.325896 0.650996,-1.014295 0.915036,-1.529776 l 0.480073,-0.937238 0.04275,-1.954494 c 0.04034,-1.843957 0.02522,-1.99792 -0.267395,-2.722349 -0.48451,-1.199525 -1.078385,-2.1053 -1.969008,-3.003115 -2.260306,-2.278563 -5.661292,-2.858103 -8.64028,-1.472335 -1.692348,0.787247 -2.903264,2.004783 -3.817437,3.838305 l -0.468169,0.938988 -0.04428,1.898665 c -0.03396,1.456041 0.0011,2.05342 0.150444,2.5625 0.5264,1.79455 2.185437,3.713644 3.974296,4.597271 0.596403,0.2946 1.383903,0.608124 1.75,0.69672 0.901729,0.218219 2.358823,0.216522 3.399493,-0.004 z"
       id="path9217"
       inkscape:connector-curvature="0"
       transform="matrix(0.26458333,0,0,0.26458333,0,282.4479)" />
    <path
       style="opacity:0.4;fill:#cccccc;stroke-width:0.125"
       d="m 25.870165,33.684391 c -1.65354,-0.517905 -3.301438,-1.897171 -4.055409,-3.394317 l -0.43702,-0.867784 -4.8e-4,-1.875 c -4.74e-4,-1.850746 0.0047,-1.885928 0.399702,-2.719816 1.350984,-2.852039 4.744444,-4.367677 7.618758,-3.402801 2.810123,0.943327 4.54356,3.295371 4.54356,6.165007 0,2.775633 -2.05266,5.355866 -4.830543,6.072086 -0.909038,0.234377 -2.526421,0.245675 -3.238568,0.02262 z"
       id="path9219"
       inkscape:connector-curvature="0"
       transform="matrix(0.26458333,0,0,0.26458333,0,282.4479)" />
    <path
       style="opacity:0.4;fill:#f2f2f2;fill-opacity:0.85882353;stroke-width:0.125"
       d="m 6.1140504,52.654732 c -0.035636,-0.03564 -0.14026,-0.07734 -0.2324972,-0.09268 -0.092237,-0.01534 -0.2942664,-0.09747 -0.4489539,-0.182518 -0.1546875,-0.08505 -0.28125,-0.126228 -0.28125,-0.0915 0,0.120515 -0.8332771,-0.503148 -1.1968908,-0.895808 C 3.2683337,50.651289 3.0783686,50.347734 2.8860898,49.685023 2.7367945,49.17046 2.735134,5.7942651 2.8843905,5.2961967 c 0.1706946,-0.5696071 0.4198192,-1.0625 0.5370232,-1.0625 0.057715,0 0.1049356,-0.046187 0.1049356,-0.1026374 0,-0.1311471 1.1243512,-1.3092693 1.1269141,-1.1808075 0.00105,0.05277 0.04324,0.039695 0.09375,-0.029055 0.05051,-0.06875 0.2803094,-0.2299616 0.5106659,-0.3582481 0.3765747,-0.2097161 0.7296851,-0.233614 3.5,-0.2368737 1.9979317,-0.00235 2.8174947,-0.037049 2.3311697,-0.098696 -0.4125,-0.052289 7.884375,-0.078406 18.4375,-0.058038 l 19.1875,0.037032 0.707159,0.2683061 c 0.388937,0.1475683 0.738734,0.3505911 0.777326,0.4511618 0.03859,0.1005707 0.122235,0.1828558 0.185873,0.1828558 0.153951,0 0.892142,0.694286 0.892142,0.839081 0,0.062578 0.114691,0.2368853 0.25487,0.3873489 0.140178,0.1504635 0.223256,0.2735701 0.184618,0.2735701 -0.03864,0 0.02948,0.1520726 0.151381,0.3379393 0.198512,0.3026875 0.229909,0.8340352 0.300981,5.09375 0.101311,6.072072 0.100753,24.835231 -0.001,33.193311 l -0.07836,6.4375 -0.3125,0.554816 c -0.65891,1.169836 -1.107627,1.608491 -2.1875,2.138456 l -0.625,0.306728 -21.392503,0.02416 C 15.805457,52.70865 6.1496742,52.690373 6.1140379,52.654732 Z M 29.576387,42.80946 c 0.695901,-0.290767 1.088673,-0.937362 1.203631,-1.98146 0.05491,-0.498742 0.09315,-0.934928 0.08496,-0.969303 -0.06049,-0.254092 0.401883,-1.135782 0.772632,-1.47333 0.371166,-0.337929 0.539961,-0.405975 0.951237,-0.383477 0.275,0.01504 0.649309,0.129605 0.831796,0.25458 0.182488,0.124974 0.382392,0.227227 0.444229,0.227227 0.06184,0 0.30628,0.201803 0.543204,0.448453 0.520231,0.541587 1.233395,0.92753 1.707041,0.923802 0.606955,-0.0048 1.404855,-0.467669 2.30938,-1.339755 0.890394,-0.858462 1.38217,-1.564413 1.5282,-2.193752 0.107485,-0.463223 -0.242817,-1.237088 -0.907446,-2.004671 -0.700846,-0.80941 -0.893904,-1.215605 -0.893904,-1.880779 0,-0.420188 0.081,-0.65538 0.325983,-0.946526 0.435123,-0.517115 0.722641,-0.65546 1.477468,-0.710912 1.923124,-0.141283 2.313285,-0.296399 2.71571,-1.079687 0.336569,-0.655101 0.463808,-2.65647 0.23803,-3.744031 -0.253881,-1.222944 -0.841767,-1.626215 -2.569691,-1.762729 -1.126057,-0.08896 -1.709747,-0.338393 -1.974135,-0.843613 -0.248982,-0.47578 -0.226862,-1.602303 0.03664,-1.8658 0.345354,-0.345354 1.218355,-1.505249 1.397703,-1.85703 0.294128,-0.576917 0.286678,-0.911533 -0.0343,-1.540704 -0.544521,-1.067353 -2.459742,-2.765211 -3.296231,-2.922138 -0.53995,-0.101295 -1.368777,0.260128 -2.089129,0.910995 -1.061131,0.958778 -1.324057,1.059352 -2.228041,0.852265 -0.392011,-0.0898 -1.110379,-0.666757 -1.134289,-0.911001 -0.0051,-0.05219 -0.03375,-0.235512 -0.06366,-0.407387 -0.614557,-3.532547 -0.64275,-3.5625 -3.353178,-3.5625 -1.617868,0 -1.798847,0.0233 -2.221259,0.285963 -0.510368,0.317357 -0.927394,1.056909 -1.037016,1.839037 -0.122625,0.874898 -0.203239,1.493422 -0.224009,1.71875 -0.01109,0.120312 -0.07374,0.21875 -0.139213,0.21875 -0.06548,0 -0.08345,0.03559 -0.03995,0.07909 0.09419,0.09419 -0.327075,0.438207 -0.849928,0.694063 -0.503624,0.246447 -1.000471,0.180316 -1.546845,-0.205886 -0.249235,-0.176172 -0.808324,-0.572753 -1.24242,-0.881292 -0.994864,-0.707111 -1.657957,-0.761713 -2.530012,-0.208333 -0.71005,0.450576 -2.032375,1.891086 -2.363136,2.574347 -0.439378,0.907634 -0.335182,1.381041 0.497531,2.260508 1.163803,1.229143 1.410913,2.097377 0.838637,2.946578 -0.323787,0.480468 -1.263988,0.844874 -2.216255,0.858982 -1.316734,0.01951 -2.109857,0.525682 -2.37924,1.518437 -0.08223,0.303051 -0.147244,1.159358 -0.14447,1.902903 0.0043,1.157268 0.04688,1.436208 0.295627,1.9375 0.373682,0.753063 1.094657,1.147786 2.09832,1.148797 0.974248,0.001 1.596125,0.204599 2.090115,0.684356 0.502937,0.488447 0.650883,1.117937 0.404039,1.719132 -0.184003,0.448145 -0.194563,0.464241 -0.718937,1.095815 -0.69445,0.836417 -1.020449,1.411697 -1.019281,1.798693 0.0018,0.605352 0.640835,1.575759 1.671372,2.538167 1.713941,1.600632 2.358235,1.666368 3.89367,0.39727 0.341706,-0.282435 0.88919,-0.642799 1.21663,-0.800808 0.714255,-0.344671 1.228628,-0.258471 1.75861,0.294711 0.351625,0.367017 0.421473,0.569647 0.524635,1.521967 0.164036,1.514266 0.422838,2.151175 1.086695,2.674342 0.395338,0.311555 0.47017,0.322934 2.13248,0.324271 1.193073,0.001 1.85098,-0.05219 2.139773,-0.17285 z"
       id="path9372"
       inkscape:connector-curvature="0"
       transform="matrix(0.26458333,0,0,0.26458333,0,282.4479)" />
    <path
       style="opacity:0.4;fill:#f2f2f2;fill-opacity:0.85882353;stroke-width:0.125"
       d="M 5.6361952,52.520412 C 4.4713128,52.141578 3.2009156,50.846202 2.9006424,49.731072 2.7359835,49.119575 2.7186082,5.8475215 2.8827972,5.2888942 3.1767509,4.2887636 4.1794348,3.1074062 5.1677429,2.596782 5.6752738,2.3345585 5.95225,2.3066293 9.0888493,2.2013923 10.945099,2.1391127 20.620099,2.1149242 30.588849,2.1476401 c 17.660475,0.057959 18.141491,0.065799 18.768473,0.3059057 0.35391,0.1355323 0.736862,0.3243238 0.851006,0.4195366 0.731919,0.6105281 1.312144,1.2781459 1.572714,1.8095954 0.296876,0.605495 0.301938,0.6772768 0.387167,5.4885192 0.09538,5.384217 0.08667,25.715012 -0.01462,34.125 l -0.06474,5.375 -0.348019,0.660518 c -0.442845,0.840492 -1.150971,1.548618 -1.991462,1.991463 l -0.660519,0.348019 -21.4375,0.01854 C 8.8827674,52.705964 6.1419327,52.684884 5.6361952,52.520412 Z M 29.563948,42.814657 c 0.222512,-0.09297 0.55889,-0.371367 0.747506,-0.618654 0.329073,-0.431438 0.371455,-0.603876 0.516544,-2.101664 0.07985,-0.824337 0.357091,-1.403312 0.853137,-1.781665 0.772323,-0.589079 1.672065,-0.367516 2.782714,0.685248 0.532769,0.505002 1.24727,0.862528 1.714735,0.85803 0.545615,-0.0053 1.374809,-0.499889 2.245915,-1.339755 0.890394,-0.858462 1.38217,-1.564413 1.5282,-2.193752 0.103075,-0.444216 -0.251306,-1.265735 -0.826746,-1.916548 -0.813615,-0.920187 -0.974604,-1.234144 -0.974604,-1.900657 0,-0.494426 0.06937,-0.709807 0.32739,-1.016442 0.453206,-0.538606 0.861798,-0.7128 1.73511,-0.739725 2.165708,-0.06677 2.683258,-0.592466 2.785445,-2.829283 0.07151,-1.565253 -0.116224,-2.54541 -0.583299,-3.045415 -0.39334,-0.421071 -0.945778,-0.590637 -2.219198,-0.681161 -1.042305,-0.07409 -1.591889,-0.320016 -1.855832,-0.830426 -0.229246,-0.443311 -0.249927,-1.546311 -0.03337,-1.779431 1.035078,-1.114225 1.71875,-2.185655 1.71875,-2.69357 0,-1.004685 -2.388006,-3.506502 -3.556166,-3.725649 -0.560694,-0.105188 -1.341506,0.250071 -2.173293,0.988815 -1.109466,0.985364 -1.194747,1.022431 -1.92291,0.835809 -1.115718,-0.28595 -1.296425,-0.548084 -1.597625,-2.317528 -0.418846,-2.46057 -0.780737,-2.747298 -3.36583,-2.666754 -1.368405,0.04264 -1.63878,0.08667 -2.034768,0.331407 -0.604093,0.373349 -0.963519,1.145612 -1.098192,2.359575 -0.180081,1.623271 -0.285792,1.815297 -1.232915,2.239608 -0.584602,0.261903 -1.0197,0.131909 -1.953155,-0.583546 -1.237403,-0.948417 -1.56856,-1.116845 -2.196923,-1.11736 -0.742074,-6.25e-4 -1.436334,0.438008 -2.456886,1.552204 -1.150689,1.256274 -1.509628,2.152042 -1.146738,2.861796 0.07678,0.150168 0.352639,0.498033 0.613019,0.773033 0.832639,0.879387 1.122382,1.411973 1.122382,2.063086 0,1.112959 -0.602671,1.534481 -2.501455,1.749579 -2.149438,0.243491 -2.504881,0.717432 -2.513271,3.351151 -0.0039,1.23422 0.03244,1.488277 0.286361,2 0.373979,0.753684 1.094618,1.14837 2.098602,1.149381 0.974248,10e-4 1.596125,0.204599 2.090115,0.684356 0.499426,0.485035 0.649477,1.115037 0.409457,1.719132 -0.08923,0.224573 -0.454465,0.77394 -0.811636,1.220815 -1.051565,1.315662 -1.131435,1.619995 -0.665611,2.53623 0.345328,0.679231 2.016977,2.35088 2.696208,2.696208 0.910146,0.462728 1.451633,0.325508 2.661638,-0.674498 1.34429,-1.110988 2.164843,-1.238994 2.916047,-0.454907 0.36782,0.383922 0.437634,0.59727 0.538936,1.646967 0.136032,1.409541 0.495527,2.196325 1.199717,2.625675 0.3524,0.214861 0.631506,0.248453 2.067657,0.248857 1.1134,3.75e-4 1.793523,-0.05521 2.064834,-0.168572 z"
       id="path9374"
       inkscape:connector-curvature="0"
       transform="matrix(0.26458333,0,0,0.26458333,0,282.4479)" />
    <path
       style="opacity:0.4;fill:#f9f9f9;fill-opacity:0.85882353;stroke-width:0.125"
       d="M 5.6361952,52.521832 C 4.4657997,52.138327 3.2006383,50.845172 2.8986647,49.723727 2.7487127,49.166848 2.700058,6.0286875 2.8486863,5.4119361 3.0964817,4.3836783 4.0241714,3.2287149 5.0513354,2.6696621 L 5.7126165,2.3097479 9.0257329,2.1993055 C 10.847947,2.1385622 20.523224,2.1144555 30.526349,2.145735 l 18.1875,0.056872 0.724601,0.2767154 c 0.879823,0.3359919 1.901375,1.2914464 2.343508,2.1918743 0.299044,0.6090185 0.308654,0.7192906 0.375826,4.3125 0.08631,4.6170143 0.08378,29.2803913 -0.0037,35.8125003 l -0.06527,4.875 -0.348019,0.660518 c -0.442845,0.840492 -1.150971,1.548618 -1.991462,1.991463 l -0.660524,0.348019 -21.4375,0.01996 C 8.8073623,52.708698 6.1439645,52.688213 5.6361952,52.521832 Z M 29.860652,42.658284 c 0.528322,-0.395002 0.900236,-1.238206 0.931583,-2.112087 0.03685,-1.027428 0.299499,-1.73426 0.811434,-2.183744 0.770705,-0.676689 1.707081,-0.459316 2.929641,0.680094 1.337137,1.246192 2.462413,1.012251 4.23244,-0.879914 1.574864,-1.683535 1.566113,-2.360745 -0.05528,-4.277369 -0.514314,-0.607962 -0.559124,-0.716045 -0.559124,-1.34859 0,-0.622109 0.04468,-0.735479 0.46875,-1.189325 0.414065,-0.443141 0.548955,-0.508424 1.15625,-0.55958 0.378125,-0.03185 0.958566,-0.08298 1.289868,-0.113624 0.806441,-0.07458 1.367142,-0.443326 1.658936,-1.090988 0.195796,-0.434585 0.238537,-0.822502 0.237815,-2.158383 -7.5e-4,-1.448706 -0.03198,-1.686967 -0.282476,-2.157251 -0.372793,-0.69989 -0.834972,-0.915448 -2.216643,-1.033826 -1.785561,-0.152984 -2.3125,-0.576235 -2.3125,-1.85746 0,-0.576405 0.05388,-0.684222 0.768293,-1.537458 1.16044,-1.385929 1.302293,-1.852447 0.841143,-2.766312 -0.351112,-0.695804 -2.062268,-2.358124 -2.790077,-2.71045 -0.916483,-0.443662 -1.530973,-0.212894 -3.183408,1.195506 -0.62888,0.536005 -0.712178,0.570936 -1.182231,0.495772 -1.219564,-0.195016 -1.537317,-0.60322 -1.828884,-2.349475 -0.409487,-2.452525 -0.64582,-2.657623 -3.062336,-2.657623 -1.871381,0 -2.144815,0.05512 -2.622922,0.528718 -0.49913,0.494425 -0.692364,1.039018 -0.825595,2.32679 -0.06432,0.621722 -0.197742,1.253707 -0.296487,1.404409 -0.09875,0.150704 -0.434797,0.397578 -0.746783,0.548608 -0.746959,0.361596 -1.12032,0.270938 -2.173623,-0.527787 -1.266104,-0.960095 -1.526967,-1.092257 -2.15691,-1.092771 -0.728277,-6.25e-4 -1.456805,0.46445 -2.484381,1.585866 -1.119915,1.222192 -1.476004,2.124418 -1.1162,2.828134 0.07678,0.150168 0.352639,0.498033 0.613019,0.773033 0.832639,0.879387 1.122382,1.411973 1.122382,2.063086 0,1.115795 -0.601671,1.534369 -2.517519,1.751399 -2.097068,0.237558 -2.401449,0.624207 -2.458527,3.123015 -0.03561,1.55877 -0.01653,1.73041 0.25,2.25 0.376693,0.734336 1.110068,1.125 2.111908,1.125 0.389338,0 0.88456,0.03533 1.10049,0.07852 0.448132,0.08963 1.28972,0.829427 1.481024,1.301901 0.194079,0.479322 -0.133236,1.2941 -0.901699,2.244579 -0.3613,0.446875 -0.720757,0.935365 -0.798793,1.085532 -0.38131,0.733768 0.01653,1.600256 1.344428,2.928156 1.000941,1.000942 1.771527,1.487314 2.352458,1.484805 0.419375,-0.0018 1.19912,-0.431456 2.005683,-1.105147 1.187943,-0.992245 2.017955,-1.055294 2.760411,-0.209683 0.290925,0.331347 0.392716,0.590919 0.45223,1.153214 0.160961,1.520789 0.208169,1.739395 0.479814,2.221926 0.15367,0.272967 0.475366,0.628365 0.714881,0.789775 0.415847,0.280239 0.51823,0.291678 2.270674,0.253697 1.634277,-0.03542 1.87369,-0.06856 2.18684,-0.302688 z"
       id="path9376"
       inkscape:connector-curvature="0"
       transform="matrix(0.26458333,0,0,0.26458333,0,282.4479)" />
    <path
       style="opacity:0.4;fill:#f9f9f9;fill-opacity:0.85882353;stroke-width:0.125"
       d="M 5.6361952,52.525037 C 4.4939752,52.144427 3.2694523,50.915315 2.8778929,49.756399 2.6700457,49.141223 2.5711787,7.2540468 2.7744773,5.9420975 3.0002322,4.4852308 3.7837069,3.3596155 5.0527992,2.6688401 l 0.6610501,-0.3598139 3.375,-0.1104348 C 10.945099,2.1378523 20.620099,2.1152258 30.588849,2.1483103 l 18.125,0.060154 0.724601,0.2737869 c 0.879504,0.3323156 1.899809,1.285329 2.343508,2.1889459 0.303169,0.6174195 0.307766,0.6780634 0.379049,5 0.08611,5.2210009 0.08082,26.3082759 -0.0086,34.3124999 l -0.06354,5.6875 -0.348031,0.660543 c -0.427523,0.811414 -1.1892,1.567278 -2.022721,2.007284 l -0.629248,0.332173 -21.4375,0.02316 C 8.6413575,52.7149 6.1484378,52.695722 5.6361952,52.525037 Z m 23.9483828,-9.719 c 0.699244,-0.292163 1.09347,-1.030383 1.193509,-2.234935 0.04682,-0.563698 0.170427,-1.224407 0.274693,-1.468242 0.283795,-0.663678 0.889949,-1.119163 1.489368,-1.119163 0.623805,0 1.031206,0.210093 1.926326,0.993393 1.156744,1.01224 1.868884,1.101789 2.968698,0.373303 0.677411,-0.448699 1.99971,-1.8311 2.291833,-2.396004 0.449293,-0.868839 0.195258,-1.634319 -1.018532,-3.069125 -0.514314,-0.607962 -0.559124,-0.716045 -0.559124,-1.34859 0,-0.62513 0.04376,-0.73457 0.481246,-1.20358 l 0.481248,-0.515921 1.257715,-0.08722 c 2.215275,-0.153627 2.592855,-0.635206 2.59141,-3.305176 -7.5e-4,-1.448706 -0.03198,-1.686967 -0.282476,-2.157251 -0.372793,-0.69989 -0.834972,-0.915448 -2.216643,-1.033826 -1.785561,-0.152984 -2.3125,-0.576235 -2.3125,-1.85746 0,-0.576405 0.05388,-0.684222 0.768293,-1.537458 1.16044,-1.385929 1.302293,-1.852447 0.841143,-2.766312 -0.351112,-0.695804 -2.062268,-2.358124 -2.790077,-2.71045 -0.916483,-0.443662 -1.530973,-0.212894 -3.183408,1.195506 -0.62888,0.536005 -0.712178,0.570936 -1.182231,0.495772 -1.112212,-0.17785 -1.633047,-0.742562 -1.770504,-1.919656 C 30.631228,13.39238 30.319849,12.583423 29.728244,12.259443 29.417655,12.089356 29.009979,12.0462 27.713849,12.0462 c -1.9118,0 -2.151044,0.0527 -2.675779,0.589411 -0.451076,0.461372 -0.701725,1.236455 -0.819966,2.535589 -0.09605,1.055272 -0.255706,1.325133 -0.996042,1.683525 -0.746959,0.361596 -1.12032,0.270938 -2.173623,-0.527787 -1.266104,-0.960095 -1.526967,-1.092257 -2.15691,-1.092771 -0.728277,-6.25e-4 -1.456805,0.46445 -2.484381,1.585866 -1.119915,1.222192 -1.476004,2.124418 -1.1162,2.828134 0.07678,0.150168 0.352639,0.498033 0.613019,0.773033 0.832639,0.879387 1.122382,1.411973 1.122382,2.063086 0,1.118316 -0.6585,1.587322 -2.469173,1.75863 -1.349963,0.127719 -1.83142,0.344146 -2.213904,0.995206 -0.215221,0.366349 -0.260362,0.693088 -0.292969,2.120578 -0.03561,1.55877 -0.01653,1.73041 0.25,2.25 0.395806,0.771595 1.100855,1.125 2.244395,1.125 1.004854,0 1.410421,0.136346 1.948046,0.654905 0.878113,0.846971 0.791846,1.503398 -0.388778,2.95834 -0.367867,0.45334 -0.732697,0.94712 -0.810733,1.097287 -0.38131,0.733768 0.01653,1.600256 1.344428,2.928156 1.000941,1.000942 1.771527,1.487314 2.352458,1.484805 0.42222,-0.0018 1.205424,-0.43514 2.005683,-1.109671 1.087415,-0.916571 1.906816,-1.031816 2.616607,-0.368011 0.466594,0.436365 0.528816,0.61161 0.656973,1.85033 0.135491,1.30961 0.4591,2.023147 1.119202,2.467771 0.39003,0.262711 0.561443,0.286088 2.097765,0.286088 1.163175,0 1.802609,-0.05414 2.098229,-0.17766 z"
       id="path9378"
       inkscape:connector-curvature="0"
       transform="matrix(0.26458333,0,0,0.26458333,0,282.4479)" />
    <path
       style="opacity:0.4;fill:#f9f9f9;fill-opacity:0.85882353;stroke-width:0.125"
       d="M 3.7806842,54.598785 C 2.494568,54.342464 1.0798149,53.068265 0.50846128,51.651655 l -0.29461199,-0.730458 -0.0311987,-17.3125 c -0.0171593,-9.521875 0.012811,-20.18125 0.0666007,-23.6875003 l 0.0977994,-6.375 0.34746928,-0.6675266 C 1.1821618,1.9418569 1.8954863,1.2140138 2.8073374,0.72284978 l 0.7815119,-0.4209574 2.8125,-0.0854722 c 3.6589647,-0.11119633 39.0910347,-0.11119633 42.7499997,0 l 2.8125,0.0854722 0.781511,0.4209574 c 0.909045,0.48965252 1.621537,1.21523612 2.116919,2.15582032 l 0.35157,0.6675266 v 23.9375003 23.9375 l -0.354134,0.672586 c -0.452183,0.858806 -1.364473,1.771096 -2.22328,2.22328 l -0.672586,0.354134 -23.8125,0.01942 c -13.499296,0.011 -24.0542412,-0.02877 -24.3706648,-0.09183 z M 49.655515,52.456504 c 0.882969,-0.433646 1.784995,-1.335672 2.218642,-2.218641 l 0.339692,-0.691666 V 27.483697 5.4211967 L 51.880077,4.7091345 C 51.454297,3.8007871 50.584259,2.9307492 49.675912,2.5049695 L 48.963849,2.1711967 H 27.401349 5.8388493 L 5.1146257,2.538156 C 4.2688559,2.966702 3.5584754,3.6917502 3.0664027,4.6286701 l -0.3505868,0.6675266 -0.08011,5.2500003 c -0.1071946,7.024962 -0.1062066,32.220308 0.00141,36.0625 0.084771,3.026421 0.089868,3.07036 0.4326537,3.729687 0.6155116,1.183899 1.7442296,2.104891 2.9233841,2.385375 0.2693749,0.06407 9.5594053,0.10351 21.7206913,0.0922 l 21.25,-0.01976 0.691666,-0.339693 z"
       id="path9380"
       inkscape:connector-curvature="0"
       transform="matrix(0.26458333,0,0,0.26458333,0,282.4479)" />
    <path
       style="opacity:0.4;fill:#f9f9f9;fill-opacity:0.85882353;stroke-width:0.125"
       d="M 48.776349,54.733374 C 49.841974,54.69336 40.159385,54.649522 27.259484,54.635953 13.870389,54.62187 3.6782497,54.563384 3.5094843,54.499667 3.346885,54.438278 3.1716618,54.41289 3.1200993,54.44325 c -0.051563,0.03036 -0.09375,-0.0077 -0.09375,-0.08455 0,-0.07686 -0.05625,-0.10499 -0.125,-0.0625 -0.06875,0.04249 -0.125,0.01436 -0.125,-0.0625 0,-0.07686 -0.050356,-0.108633 -0.1119019,-0.07059 -0.061546,0.03804 -0.1455237,-0.01846 -0.1866171,-0.125547 -0.041093,-0.107087 -0.1173001,-0.175906 -0.1693481,-0.15293 -0.117727,0.05197 -1.2684489,-1.122946 -1.1832586,-1.208136 0.034049,-0.03405 -0.030195,-0.09725 -0.14276536,-0.140449 -0.11257017,-0.0432 -0.17355142,-0.128896 -0.13551387,-0.190441 0.0380375,-0.06155 2.1446e-4,-0.111902 -0.0840513,-0.111902 -0.0842658,0 -0.11951617,-0.03369 -0.0783343,-0.07488 0.0411819,-0.04118 -0.0478806,-0.308368 -0.19791668,-0.59375 l -0.27279285,-0.518873 0.001846,-20.5 C 0.21671112,19.271197 0.25846326,8.5367415 0.30847816,6.6918517 0.39084621,3.6535578 0.42235498,3.3052896 0.64289029,2.9955764 0.77680208,2.8075146 0.90379994,2.581018 0.92510778,2.4922505 0.98075592,2.2604229 2.1108828,1.220592 2.8090018,0.75887758 c 0.5188424,-0.34314635 0.7352127,-0.40257775 1.6875,-0.463513 1.2882927,-0.0824357 45.1167262,-0.0876889 46.6208252,-0.005588 0.833715,0.0455082 1.115806,0.11548064 1.489631,0.36950145 0.253635,0.1723492 0.493945,0.30095944 0.534022,0.28580053 0.04008,-0.0151589 0.388037,0.29670384 0.773242,0.69302834 0.385205,0.3963243 0.67972,0.7205898 0.654476,0.7205898 -0.02524,0 0.09542,0.2135383 0.268132,0.4745294 l 0.314029,0.4745293 0.0027,24.1589396 c 0.0027,23.921567 2.5e-4,24.162374 -0.246062,24.50833 -0.136833,0.192165 -0.228092,0.371167 -0.202797,0.397782 0.02529,0.02661 -0.370116,0.462116 -0.878692,0.967782 -0.508578,0.505666 -0.924685,0.881524 -0.924685,0.835239 0,-0.04629 -0.154688,0.02478 -0.34375,0.157924 -0.517468,0.364416 -1.780853,0.527882 -3.853989,0.498658 l -1.86476,-0.02629 z m 0.86375,-2.279 c 0.994675,-0.569095 1.58152,-1.145849 2.141511,-2.104685 l 0.492638,-0.843514 V 27.497328 5.4884805 L 51.83354,4.6867105 C 51.338895,3.7868136 50.381168,2.8212456 49.679954,2.5154914 49.423597,2.4037106 49.171662,2.3227032 49.120099,2.3354751 c -0.05156,0.012772 -0.09375,-0.032993 -0.09375,-0.1016994 0,-0.082754 -7.299456,-0.1242531 -21.625,-0.122942 -14.090661,0.00129 -21.6249997,0.044813 -21.6249997,0.124921 0,0.067618 -0.042187,0.1115714 -0.09375,0.097674 C 5.4763078,2.2778279 4.4722299,2.9062935 3.9808773,3.3985591 3.4114939,3.9690002 2.6659585,5.1936656 2.6628532,5.5636318 2.6040012,12.575297 2.5855322,43.464412 2.6386855,45.983697 c 0.069786,3.307603 0.094655,3.60469 0.3475729,4.152153 0.5496228,1.189707 1.8818376,2.290199 3.1333313,2.588328 0.2656916,0.06329 9.6576283,0.114605 21.6500503,0.118285 l 21.180792,0.0065 z"
       id="path9382"
       inkscape:connector-curvature="0"
       transform="matrix(0.26458333,0,0,0.26458333,0,282.4479)" />
    <path
       style="opacity:0.4;fill:#f9f9f9;fill-opacity:0.85882353;stroke-width:0.125"
       d="M 49.338849,54.741617 C 49.999407,54.674597 22.953148,54.556239 4.8699768,54.54701 3.9933469,54.54651 3.2761594,54.51083 3.2762268,54.46761 3.2762942,54.42439 3.0979908,54.315146 2.8799972,54.224851 2.2877264,53.979525 1.1265609,52.770762 0.67332217,51.927722 L 0.27361227,51.184248 0.28444484,29.427722 C 0.29040277,17.461633 0.33671594,6.6868217 0.38736303,5.4836967 l 0.0920856,-2.1875 0.41147441,-0.6599916 C 1.3235084,1.9423521 2.3471128,1.0277392 3.2049149,0.56860266 L 3.7138493,0.29619673 27.834647,0.27008258 c 13.266437,-0.0143628 24.150812,0.0151387 24.1875,0.0655588 0.03669,0.0504201 0.337361,0.2309215 0.668166,0.40111415 0.330805,0.17019266 0.909397,0.64694117 1.285761,1.05944117 0.785716,0.8611583 1.05364,1.1744664 1.042206,1.21875 -0.0044,0.017187 0.02582,0.1195475 0.06723,0.2274668 0.04141,0.1079192 0.05911,11.0204195 0.03932,24.2499995 l -0.03598,24.053784 -0.285616,0.534827 c -0.405336,0.75901 -1.64629,1.923161 -2.490873,2.336713 -0.656708,0.321558 -0.854462,0.354667 -2.283738,0.382348 -1.21826,0.02359 -1.371008,0.01065 -0.689773,-0.05847 z m -0.312587,-2.046548 c 4.8e-5,-0.05562 0.04925,-0.07074 0.109346,-0.0336 0.144097,0.08906 1.488704,-0.795551 1.906912,-1.254546 0.413157,-0.453449 1.025495,-1.433462 1.025495,-1.641244 0,-0.08634 0.04588,-0.156981 0.101954,-0.156981 0.05607,0 0.101136,-9.941969 0.100136,-22.093263 L 52.268293,5.4221713 51.778925,4.5984447 C 51.509774,4.1453951 51.064122,3.5710496 50.788588,3.3221214 50.290924,2.872515 49.299555,2.2850606 49.120099,2.3334287 c -0.05156,0.013897 -0.09375,-0.030747 -0.09375,-0.099209 0,-0.082168 -7.352079,-0.1235006 -21.630279,-0.1216044 -16.18932,0.00215 -21.6080705,0.038805 -21.5419936,0.1457195 0.058395,0.094486 0.017863,0.1158237 -0.1197215,0.063028 -0.1144031,-0.043901 -0.2080056,-0.022015 -0.2080056,0.048635 0,0.07065 -0.045012,0.1006351 -0.1000264,0.066634 C 5.13935,2.2592724 2.727283,4.6012971 2.9586414,4.8326555 2.9893332,4.8633472 2.9354735,4.9674296 2.8389534,5.0639498 2.6127095,5.2901936 2.5872974,7.9910866 2.593904,31.108697 l 0.00505,17.6875 0.2770014,0.897058 c 0.2140743,0.693272 0.4173065,1.050575 0.8946164,1.572828 0.7048007,0.771165 1.8285294,1.409057 2.5682727,1.457899 0.275,0.01816 0.5179842,0.05044 0.5399647,0.07174 0.094195,0.09129 42.1473698,-0.0091 42.1474478,-0.100658 z"
       id="path9384"
       inkscape:connector-curvature="0"
       transform="matrix(0.26458333,0,0,0.26458333,0,282.4479)" />
    <path
       style="opacity:0.4;fill:#f2f2f2;fill-opacity:0.85882353;stroke-width:0.0625"
       d="M 27.683594 13.435547 C 26.993459 13.440138 26.287613 13.477271 26.160156 13.542969 C 26.01684 13.616842 25.916865 13.709046 25.845703 13.835938 C 25.826235 13.870653 25.814021 13.914368 25.798828 13.955078 C 25.784504 13.992388 25.76688 14.025682 25.755859 14.068359 C 25.735063 14.148892 25.719559 14.237477 25.708984 14.339844 C 25.686784 14.554688 25.644714 14.730469 25.615234 14.730469 C 25.585754 14.730469 25.561047 14.920313 25.560547 15.152344 C 25.559631 15.570592 25.45373 16.039707 25.3125 16.40625 C 25.280355 16.487022 25.261001 16.572621 25.222656 16.650391 C 25.02303 17.034287 24.616352 17.605469 24.537109 17.605469 C 24.499616 17.605469 24.434414 17.664394 24.390625 17.732422 C 24.389668 17.733909 24.387655 17.732876 24.386719 17.734375 C 24.379703 17.74561 24.371085 17.75018 24.363281 17.759766 C 24.319473 17.807973 24.270627 17.838636 24.244141 17.822266 C 24.242819 17.821448 24.243483 17.824924 24.242188 17.824219 C 24.21277 17.808611 24.190002 17.819496 24.1875 17.851562 C 24.187355 17.853415 24.185547 17.853486 24.185547 17.855469 C 24.185472 17.856238 24.181787 17.85663 24.181641 17.857422 C 24.174919 17.939521 23.684429 18.174088 23.611328 18.128906 C 23.607939 18.126812 23.608672 18.135783 23.605469 18.134766 C 23.582344 18.129128 23.565582 18.139716 23.564453 18.169922 C 23.564338 18.171467 23.562541 18.170256 23.5625 18.171875 C 23.562478 18.172752 23.560547 18.170977 23.560547 18.171875 C 23.560547 18.19191 23.551786 18.206062 23.535156 18.212891 C 23.518515 18.219579 23.495933 18.218664 23.470703 18.208984 C 23.469968 18.208716 23.469489 18.209268 23.46875 18.208984 C 23.418289 18.189614 23.365479 18.195023 23.349609 18.220703 C 23.310905 18.283324 22.949396 18.317307 22.433594 18.316406 C 22.294515 18.311663 22.153252 18.307123 22.023438 18.292969 C 21.900665 18.279582 21.811105 18.256015 21.716797 18.234375 C 21.647643 18.215019 21.578121 18.197411 21.503906 18.167969 C 21.364239 18.11188 21.149535 17.986704 20.935547 17.859375 C 20.844149 17.805079 20.765948 17.772351 20.677734 17.714844 C 20.599298 17.664176 20.538605 17.619666 20.470703 17.572266 C 20.405275 17.525692 20.330455 17.476465 20.279297 17.435547 C 20.227942 17.394472 20.214935 17.371491 20.183594 17.339844 C 20.169325 17.323049 20.125 17.290485 20.125 17.28125 C 20.120178 17.273989 20.099933 17.257886 20.097656 17.251953 C 20.076256 17.196193 20.041594 17.16739 20.021484 17.1875 C 20.00137 17.207614 19.775935 17.066032 19.519531 16.873047 C 19.482372 16.845079 19.470595 16.846603 19.433594 16.820312 C 19.17773 16.632963 18.940551 16.487524 18.892578 16.496094 C 18.835408 16.506286 18.47918 16.831606 18.083984 17.208984 C 17.518011 17.734533 16.896658 18.362257 16.722656 18.611328 C 16.710956 18.627278 16.663784 18.675184 16.658203 18.685547 C 16.658096 18.685744 16.658309 18.687304 16.658203 18.6875 C 16.620042 18.758361 16.594834 18.821731 16.583984 18.884766 C 16.580466 18.905646 16.588129 18.928276 16.587891 18.949219 C 16.587203 18.994587 16.585927 19.041172 16.601562 19.089844 C 16.623497 19.158123 16.66352 19.233099 16.720703 19.318359 C 16.735781 19.340741 16.76163 19.370431 16.779297 19.394531 C 16.823982 19.455661 16.863684 19.513273 16.925781 19.587891 C 17.091461 19.786976 17.230275 19.973923 17.234375 20.001953 C 17.235336 20.008484 17.265507 20.031645 17.273438 20.042969 C 17.250736 20.042969 17.305914 20.102588 17.396484 20.173828 C 17.451831 20.217361 17.467762 20.261722 17.498047 20.308594 C 17.517082 20.338582 17.560547 20.374675 17.560547 20.394531 C 17.560547 20.444681 17.602737 20.501694 17.654297 20.521484 C 17.676723 20.530093 17.679132 20.554477 17.695312 20.572266 C 17.717674 20.596798 17.75 20.616475 17.75 20.644531 C 17.75 20.645761 17.751916 20.645268 17.751953 20.646484 C 17.754855 20.688018 17.771122 20.731608 17.794922 20.742188 C 17.824275 20.755233 17.889362 20.873143 17.951172 20.984375 C 17.966641 21.003029 18.003226 21.078882 18.03125 21.128906 C 18.110224 21.291354 18.194135 21.476479 18.251953 21.644531 C 18.280253 21.726784 18.299964 21.82084 18.318359 21.916016 C 18.332574 22.040169 18.342159 22.162661 18.341797 22.386719 C 18.341239 22.731373 18.317098 22.921391 18.267578 23.111328 C 18.160557 23.449128 17.918612 24.007824 17.859375 24.033203 C 17.832635 24.044662 17.810547 24.091699 17.810547 24.136719 C 17.810547 24.181739 17.768357 24.234116 17.716797 24.253906 C 17.665237 24.273689 17.623047 24.320332 17.623047 24.357422 C 17.623047 24.441047 17.028062 25.042969 16.945312 25.042969 C 16.912163 25.042969 16.874741 25.064064 16.863281 25.089844 C 16.804199 25.222778 15.969391 25.473603 15.433594 25.560547 C 15.422791 25.562114 15.40902 25.566925 15.398438 25.568359 C 15.218661 25.592729 15.072111 25.598346 14.996094 25.574219 C 14.962323 25.563498 14.941396 25.582495 14.912109 25.589844 C 14.870028 25.593583 14.834738 25.585836 14.794922 25.601562 C 14.717986 25.63196 14.450451 25.691852 14.201172 25.732422 C 14.191355 25.734019 14.187278 25.736692 14.177734 25.738281 C 14.099243 25.754556 14.050627 25.759083 13.976562 25.779297 C 13.851519 25.807815 13.752693 25.843801 13.683594 25.890625 C 13.661146 25.902592 13.598685 25.91694 13.587891 25.927734 C 13.578309 25.937315 13.569341 26.01127 13.558594 26.035156 C 13.505252 26.132729 13.466373 26.25391 13.439453 26.449219 C 13.405695 26.694147 13.389324 27.249765 13.384766 27.785156 C 13.383347 28.112814 13.387075 28.397559 13.400391 28.626953 C 13.402669 28.656433 13.399569 28.739932 13.402344 28.761719 C 13.415484 28.864844 13.428841 28.985334 13.431641 29.027344 C 13.431844 29.030409 13.442238 29.033973 13.443359 29.037109 C 13.443217 29.043429 13.446049 29.049281 13.445312 29.054688 C 13.439559 29.097408 13.561858 29.146323 13.789062 29.199219 C 14.008405 29.258786 14.312473 29.316482 14.650391 29.357422 C 15.323611 29.438981 15.750309 29.520984 16.123047 29.640625 C 16.226697 29.676554 16.319856 29.707529 16.4375 29.755859 C 16.509132 29.785682 16.580027 29.814964 16.652344 29.849609 C 16.706587 29.874374 16.720416 29.885686 16.765625 29.908203 C 17.030063 30.045348 17.290849 30.213128 17.363281 30.302734 C 17.443374 30.401805 17.539232 30.464236 17.576172 30.441406 C 17.591323 30.432046 17.597449 30.432525 17.603516 30.433594 C 17.606771 30.436685 17.604352 30.440113 17.607422 30.443359 C 17.606858 30.450158 17.608084 30.455036 17.599609 30.46875 C 17.575821 30.50724 17.627094 30.585078 17.714844 30.642578 C 17.751462 30.666571 17.754359 30.685353 17.78125 30.710938 C 17.82454 30.749056 17.873047 30.791233 17.873047 30.828125 C 17.873047 30.878475 17.898584 30.917969 17.927734 30.917969 C 17.940529 30.917969 17.967886 30.982507 17.988281 31.011719 C 18.038054 31.08397 18.113838 31.242371 18.181641 31.433594 C 18.187868 31.45067 18.192972 31.464761 18.199219 31.482422 C 18.282358 31.732324 18.324405 32.018873 18.335938 32.310547 C 18.340371 32.656725 18.302195 33.019059 18.226562 33.300781 C 18.214836 33.342637 18.208902 33.389647 18.195312 33.429688 C 18.194923 33.430834 18.195703 33.432449 18.195312 33.433594 C 18.12641 33.632207 17.974486 33.921763 17.818359 34.193359 C 17.620537 34.528301 17.401326 34.842587 17.257812 34.962891 C 17.167018 35.038996 17.114908 35.102316 17.142578 35.103516 C 17.170248 35.104752 17.064975 35.264576 16.908203 35.457031 C 16.881941 35.489271 16.878567 35.509356 16.853516 35.542969 C 16.774762 35.650286 16.718432 35.742776 16.671875 35.833984 C 16.650739 35.875236 16.591304 35.948203 16.585938 35.972656 C 16.578182 36.007997 16.574117 36.026389 16.566406 36.060547 C 16.554232 36.114477 16.54036 36.17817 16.535156 36.199219 C 16.533226 36.206985 16.59768 36.273825 16.621094 36.304688 C 16.637332 36.329537 16.67913 36.378694 16.705078 36.410156 C 16.844713 36.566416 17.042988 36.773459 17.304688 37.03125 C 17.722597 37.442918 18.212779 37.90209 18.501953 38.138672 C 18.503974 38.140334 18.50974 38.146819 18.511719 38.148438 C 18.641314 38.254463 18.73394 38.331864 18.814453 38.380859 C 18.875224 38.416572 18.933015 38.428044 18.992188 38.427734 C 19.010088 38.427579 19.032065 38.429901 19.050781 38.425781 C 19.081277 38.419485 19.129094 38.385152 19.164062 38.369141 C 19.212327 38.344138 19.261101 38.325521 19.324219 38.279297 C 19.482574 38.172477 19.677832 38.020555 19.994141 37.765625 C 20.484458 37.370452 21.049872 37.009453 21.392578 36.849609 C 21.425416 36.8353 21.465636 36.815673 21.494141 36.804688 C 21.586322 36.768725 21.661756 36.746554 21.689453 36.763672 C 21.722403 36.784032 21.748047 36.768926 21.748047 36.728516 C 21.748047 36.706161 21.763828 36.689224 21.791016 36.681641 C 21.818203 36.673729 21.856797 36.674514 21.904297 36.683594 C 21.990237 36.700014 22.060547 36.686957 22.060547 36.654297 C 22.060547 36.652583 22.069738 36.653937 22.070312 36.652344 C 22.077513 36.627457 22.186312 36.618259 22.335938 36.623047 C 22.350957 36.62366 22.363003 36.62407 22.378906 36.625 C 22.437651 36.627882 22.509642 36.641976 22.576172 36.648438 C 22.74284 36.667382 22.917462 36.693967 23.082031 36.732422 C 23.163328 36.753599 23.245045 36.774891 23.332031 36.806641 C 23.373701 36.820753 23.416356 36.838719 23.458984 36.855469 C 23.595105 36.911239 23.733969 36.972929 23.871094 37.046875 C 23.875046 37.049006 23.878864 37.05059 23.882812 37.052734 C 23.891014 37.057249 23.898059 37.06378 23.90625 37.068359 C 24.049331 37.147167 24.187389 37.234621 24.318359 37.326172 C 24.36114 37.356675 24.40031 37.38833 24.441406 37.419922 C 24.542849 37.497039 24.643564 37.574282 24.726562 37.654297 C 24.752367 37.678518 24.770664 37.702195 24.794922 37.726562 C 24.909261 37.844246 25.011147 37.964071 25.097656 38.089844 C 25.114196 38.114449 25.128961 38.139303 25.144531 38.164062 C 25.229011 38.296835 25.300309 38.435473 25.357422 38.583984 C 25.363682 38.599709 25.371006 38.614978 25.376953 38.630859 C 25.50262 38.978865 25.560121 39.378333 25.560547 39.867188 C 25.560747 40.096353 25.588834 40.293228 25.621094 40.304688 C 25.653364 40.316145 25.688519 40.514245 25.699219 40.746094 C 25.709929 40.977943 25.739768 41.167781 25.767578 41.167969 C 25.795398 41.168149 25.804459 41.192633 25.787109 41.220703 C 25.754006 41.274266 25.879576 41.34995 26.054688 41.419922 C 26.167572 41.470988 26.309042 41.508868 26.472656 41.533203 C 26.49223 41.536293 26.507912 41.546444 26.527344 41.548828 C 26.533671 41.549604 26.54818 41.548075 26.554688 41.548828 C 26.904305 41.587289 27.458266 41.596851 27.955078 41.583984 C 28.21157 41.577342 28.449904 41.564383 28.640625 41.546875 C 28.83168 41.529337 28.974107 41.506984 29.027344 41.480469 C 29.115149 41.436639 29.188509 41.377299 29.251953 41.294922 C 29.277187 41.262023 29.29439 41.205341 29.316406 41.164062 C 29.351182 41.099399 29.3878 41.042229 29.416016 40.953125 C 29.504931 40.672334 29.567235 40.259361 29.623047 39.636719 C 29.654089 39.290411 29.695201 39.026149 29.755859 38.794922 C 29.75865 38.784804 29.7608 38.773687 29.763672 38.763672 C 29.822307 38.549061 29.903833 38.367572 30.007812 38.183594 C 30.02474 38.154056 30.042411 38.12449 30.060547 38.095703 C 30.180951 37.906513 30.419518 37.623277 30.603516 37.435547 C 30.699564 37.343922 30.796447 37.254034 30.818359 37.267578 C 30.830812 37.275277 30.845728 37.244067 30.861328 37.228516 C 30.869444 37.217912 30.8696 37.230831 30.878906 37.214844 C 30.882299 37.209016 30.886905 37.206475 30.890625 37.201172 C 30.892615 37.198335 30.89637 37.197989 30.898438 37.195312 C 30.899825 37.191697 30.902702 37.190862 30.904297 37.1875 C 30.93769 37.148247 30.976099 37.124645 31.001953 37.140625 C 31.034213 37.160565 31.060547 37.143899 31.060547 37.105469 C 31.060547 37.086244 31.068749 37.074022 31.080078 37.068359 C 31.091407 37.062697 31.105862 37.063594 31.123047 37.074219 C 31.140952 37.08528 31.156547 37.086621 31.167969 37.080078 C 31.179296 37.074414 31.185547 37.062184 31.185547 37.042969 C 31.185547 37.023744 31.193749 37.011522 31.205078 37.005859 C 31.216407 37.000197 31.230862 37.001094 31.248047 37.011719 C 31.265952 37.02278 31.281547 37.024121 31.292969 37.017578 C 31.304296 37.011914 31.310547 36.999684 31.310547 36.980469 C 31.310547 36.942019 31.337701 36.927836 31.369141 36.947266 C 31.400581 36.966706 31.435736 36.956398 31.447266 36.923828 C 31.458796 36.891258 31.537107 36.849934 31.623047 36.833984 C 31.631088 36.832491 31.655997 36.826239 31.666016 36.824219 C 31.725726 36.813063 31.790326 36.800808 31.796875 36.798828 C 31.805465 36.796228 31.833595 36.791962 31.859375 36.789062 C 31.86871 36.788006 31.884777 36.774944 31.898438 36.769531 C 31.967443 36.75323 32.015578 36.745488 32.082031 36.728516 C 32.41307 36.643974 33.179418 36.681198 33.494141 36.791016 C 33.527862 36.804363 33.584487 36.813098 33.607422 36.828125 C 33.685771 36.879465 33.75 36.905579 33.75 36.886719 C 33.75 36.873936 33.804689 36.902957 33.835938 36.914062 C 33.959576 36.956601 34.302466 37.180495 34.625 37.419922 C 34.775044 37.530308 34.957764 37.65255 35.033203 37.728516 C 35.103162 37.798963 35.192612 37.855469 35.232422 37.855469 C 35.272232 37.855469 35.348834 37.919694 35.402344 37.996094 C 35.455854 38.072484 35.498047 38.115597 35.498047 38.091797 C 35.513663 38.104767 35.538389 38.140084 35.546875 38.140625 C 35.571994 38.142178 35.710745 38.20546 35.855469 38.28125 C 35.8777 38.292893 35.885941 38.288763 35.90625 38.298828 C 35.981261 38.337348 36.056835 38.362975 36.125 38.375 C 36.261366 38.405649 36.380314 38.395285 36.544922 38.294922 C 36.656637 38.226802 36.748047 38.184392 36.748047 38.201172 C 36.748047 38.217953 36.850554 38.119736 36.974609 37.982422 C 37.045741 37.903686 37.079052 37.894893 37.130859 37.855469 C 37.166395 37.831874 37.248047 37.758717 37.248047 37.769531 C 37.248047 37.796797 37.375331 37.696028 37.529297 37.544922 C 37.548911 37.525671 37.542475 37.524396 37.560547 37.505859 C 37.576877 37.489908 37.579052 37.495421 37.595703 37.478516 C 37.763474 37.308185 37.880349 37.167969 37.855469 37.167969 C 37.830585 37.167969 37.937237 37.013977 38.091797 36.824219 C 38.165581 36.733631 38.199778 36.671343 38.255859 36.59375 C 38.303853 36.525153 38.351688 36.466523 38.390625 36.402344 C 38.455045 36.298355 38.485713 36.216885 38.509766 36.140625 C 38.520263 36.109308 38.560547 36.049366 38.560547 36.029297 C 38.560547 36.02301 38.557025 36.014306 38.556641 36.007812 C 38.556735 36.004765 38.560547 35.99908 38.560547 35.996094 C 38.560547 35.991006 38.549465 35.974484 38.548828 35.96875 C 38.53403 35.875887 38.477589 35.756742 38.384766 35.613281 C 38.26922 35.430369 38.110579 35.217092 37.927734 35.011719 C 37.586214 34.628119 37.33328 34.261574 37.140625 33.910156 C 37.101173 33.838193 37.046475 33.761433 37.013672 33.691406 C 37.012592 33.6891 37.012786 33.687831 37.011719 33.685547 C 36.933678 33.519035 36.890895 33.413394 36.869141 33.263672 C 36.847386 33.11395 36.846659 32.920146 36.849609 32.574219 C 36.851975 32.296316 36.859896 32.107095 36.871094 31.947266 C 36.871255 31.945944 36.870931 31.944678 36.871094 31.943359 C 36.892052 31.773193 36.92793 31.631486 36.982422 31.464844 C 37.055453 31.241505 37.138726 31.03873 37.175781 30.984375 C 37.195226 30.96061 37.230564 30.909282 37.259766 30.869141 C 37.321958 30.791056 37.398522 30.69188 37.511719 30.548828 C 37.827126 30.150235 38.237859 29.854675 38.734375 29.666016 C 39.0259 29.555247 39.563752 29.452174 39.984375 29.40625 C 40.158216 29.391002 40.320164 29.380253 40.417969 29.388672 C 40.437595 29.3903 40.474817 29.385798 40.490234 29.388672 C 40.556218 29.40097 40.602922 29.403054 40.632812 29.398438 C 40.633154 29.398398 40.634433 29.39848 40.634766 29.398438 C 40.635608 29.398288 40.633959 29.396648 40.634766 29.396484 C 40.65734 29.391896 40.671511 29.384352 40.662109 29.369141 C 40.642193 29.336921 40.763226 29.291871 40.931641 29.269531 C 41.01748 29.258144 41.088882 29.241394 41.154297 29.220703 C 41.156607 29.219972 41.159823 29.219494 41.162109 29.21875 C 41.199843 29.206473 41.230053 29.188044 41.261719 29.171875 C 41.299091 29.153663 41.338166 29.135689 41.367188 29.111328 C 41.367504 29.111062 41.368825 29.111595 41.369141 29.111328 C 41.374051 29.107189 41.376136 29.100023 41.380859 29.095703 C 41.420826 29.05872 41.457442 29.01813 41.484375 28.964844 C 41.520169 28.899752 41.548898 28.823037 41.570312 28.730469 C 41.633852 28.4558 41.663069 26.65969 41.605469 26.5625 C 41.605065 26.56182 41.603939 26.555509 41.603516 26.554688 C 41.603204 26.553558 41.603833 26.544005 41.603516 26.542969 C 41.600976 26.534666 41.591728 26.49964 41.587891 26.486328 C 41.570891 26.429395 41.551062 26.359917 41.533203 26.251953 C 41.510401 26.114087 41.465057 26.02383 41.392578 25.947266 C 41.380366 25.928202 41.367595 25.879347 41.357422 25.871094 C 41.345061 25.861067 41.272296 25.848387 41.248047 25.837891 C 41.212081 25.821976 41.146584 25.807333 41.099609 25.792969 C 41.019086 25.770896 40.956868 25.749243 40.826172 25.724609 C 40.603195 25.681289 40.315511 25.636876 39.908203 25.582031 C 39.894358 25.580167 39.889094 25.578064 39.875 25.576172 C 39.874351 25.576085 39.873696 25.576259 39.873047 25.576172 C 39.829816 25.570369 39.790108 25.557607 39.746094 25.550781 C 39.091841 25.449328 38.373047 25.248869 38.373047 25.154297 C 38.373047 25.128217 38.343471 25.105469 38.306641 25.105469 C 38.278352 25.105469 38.232221 25.074015 38.191406 25.044922 C 38.190037 25.043946 38.188856 25.043963 38.1875 25.042969 C 38.1875 25.008589 38.15835 24.980469 38.125 24.980469 C 38.116395 24.980469 38.041955 24.905927 38.015625 24.886719 C 37.598417 24.491996 37.312494 24.21822 37.316406 24.189453 C 37.319031 24.170222 37.279282 24.136343 37.236328 24.107422 C 37.233731 24.105673 37.235108 24.103266 37.232422 24.101562 C 37.227888 24.098923 37.226874 24.094639 37.222656 24.091797 C 37.167246 24.060814 37.138263 24.010776 37.158203 23.978516 C 37.168588 23.961715 37.168977 23.946758 37.162109 23.935547 C 37.156269 23.925356 37.142949 23.918491 37.125 23.917969 C 37.124174 23.917969 37.123851 23.917995 37.123047 23.917969 C 37.104648 23.917969 37.093921 23.910873 37.087891 23.900391 C 37.082228 23.889063 37.083125 23.872659 37.09375 23.855469 C 37.102558 23.841218 37.102157 23.828902 37.099609 23.818359 C 37.099215 23.816728 37.100254 23.813999 37.099609 23.8125 C 37.09437 23.80031 37.082536 23.792969 37.0625 23.792969 C 37.061674 23.792969 37.061351 23.792995 37.060547 23.792969 C 37.042148 23.792969 37.031421 23.785873 37.025391 23.775391 C 37.019728 23.764063 37.020625 23.747659 37.03125 23.730469 C 37.040058 23.716218 37.039657 23.703902 37.037109 23.693359 C 37.036715 23.691728 37.037754 23.688999 37.037109 23.6875 C 37.03187 23.67531 37.020036 23.667969 37 23.667969 C 36.96155 23.667969 36.945414 23.642768 36.964844 23.611328 C 36.984274 23.579898 36.969664 23.545223 36.933594 23.533203 C 36.897524 23.52118 36.860862 23.440416 36.851562 23.353516 C 36.842293 23.266619 36.820044 23.167686 36.802734 23.134766 C 36.766681 23.066205 36.756039 22.857264 36.761719 22.621094 C 36.761638 22.609206 36.761613 22.596048 36.761719 22.583984 C 36.768774 22.373065 36.795266 22.153229 36.830078 21.974609 C 36.861348 21.821094 36.915969 21.688008 36.964844 21.542969 C 37.018099 21.390887 37.062138 21.235642 37.117188 21.125 C 37.15711 21.04765 37.231315 20.943857 37.287109 20.851562 C 37.533806 20.446688 37.899784 19.939292 38.082031 19.787109 C 38.091249 19.779412 38.085638 19.780744 38.09375 19.773438 C 38.093908 19.768612 38.111316 19.761706 38.107422 19.757812 C 38.106755 19.757146 38.117469 19.741392 38.117188 19.740234 C 38.142421 19.711684 38.187217 19.672534 38.171875 19.671875 C 38.14627 19.670731 38.263305 19.481197 38.431641 19.251953 L 38.548828 19.09375 L 38.740234 18.837891 L 38.736328 18.835938 L 38.628906 18.746094 L 38.603516 18.724609 C 38.602152 18.72347 38.602906 18.723788 38.601562 18.722656 C 38.527583 18.660855 38.484409 18.610475 38.505859 18.609375 C 38.565813 18.606178 36.615899 16.705583 36.425781 16.582031 C 36.235781 16.458555 36.229066 16.459393 35.576172 16.933594 C 35.395703 17.064675 35.248047 17.15092 35.248047 17.125 C 35.248047 17.099081 35.205854 17.140397 35.152344 17.216797 C 35.098832 17.293193 35.027824 17.355469 34.996094 17.355469 C 34.964366 17.355469 34.790541 17.47072 34.609375 17.609375 C 34.428209 17.74803 34.070483 17.965999 33.814453 18.09375 C 33.585233 18.208054 33.465971 18.265882 33.3125 18.294922 C 33.158293 18.324306 32.967718 18.324219 32.595703 18.324219 C 32.235859 18.324219 32.047261 18.322054 31.890625 18.294922 C 31.860871 18.290064 31.832054 18.272225 31.804688 18.265625 C 31.688039 18.237172 31.5753 18.197049 31.410156 18.121094 C 31.350584 18.092608 31.302706 18.06347 31.248047 18.035156 C 31.08976 17.954405 30.939257 17.875085 30.898438 17.835938 C 30.529046 17.595169 30.274273 17.320667 30.017578 16.904297 C 29.979958 16.84022 29.944211 16.776844 29.910156 16.712891 C 29.870388 16.639649 29.827874 16.567653 29.792969 16.492188 C 29.767192 16.437299 29.751597 16.382763 29.728516 16.328125 C 29.577429 15.95837 29.479414 15.571962 29.457031 15.199219 C 29.451204 15.102161 29.439169 15.067513 29.429688 14.978516 C 29.429099 14.972989 29.428332 14.9703 29.427734 14.964844 C 29.431093 14.794848 29.411125 14.674706 29.384766 14.636719 C 29.381859 14.625818 29.379718 14.581091 29.376953 14.574219 C 29.351979 14.512136 29.307831 14.29174 29.273438 14.082031 C 29.239937 13.857247 29.189426 13.65974 29.126953 13.566406 C 29.122695 13.559881 29.117274 13.52743 29.113281 13.523438 C 29.112896 13.523052 29.10785 13.52382 29.107422 13.523438 C 29.106388 13.522327 29.1065 13.516657 29.105469 13.515625 C 29.055096 13.465253 28.562209 13.444958 28.013672 13.441406 C 27.897762 13.440217 27.803579 13.434749 27.683594 13.435547 z M 27.623047 19.833984 C 28.002932 19.834708 28.265827 19.850645 28.480469 19.865234 C 28.834983 19.90348 29.178839 19.958061 29.498047 20.044922 C 29.613235 20.076264 29.688397 20.093978 29.753906 20.109375 C 29.768581 20.116838 29.782463 20.119171 29.794922 20.126953 C 29.819652 20.142394 29.825502 20.131852 29.839844 20.130859 C 29.840463 20.130817 29.841207 20.130933 29.841797 20.130859 C 29.876172 20.136439 29.939452 20.162613 29.982422 20.189453 C 30.016766 20.210897 30.03452 20.20374 30.044922 20.193359 C 30.047167 20.191245 30.060547 20.20354 30.060547 20.199219 C 30.060547 20.173619 30.102737 20.187679 30.154297 20.230469 C 30.205857 20.273257 30.248047 20.293227 30.248047 20.273438 C 30.248047 20.191436 31.511358 20.894182 31.986328 21.234375 C 32.021837 21.260565 32.058505 21.281854 32.09375 21.308594 C 32.393631 21.538322 32.776328 21.88602 33.09375 22.205078 C 33.096701 22.208045 33.100576 22.20993 33.103516 22.212891 C 33.114413 22.224712 33.126123 22.238267 33.136719 22.25 C 33.447085 22.565679 33.685547 22.843005 33.685547 22.917969 C 33.685547 22.945859 33.727737 22.984116 33.779297 23.003906 C 33.830857 23.023692 33.873047 23.082126 33.873047 23.134766 C 33.873047 23.187406 33.901177 23.230469 33.935547 23.230469 C 33.969927 23.230469 33.998047 23.272659 33.998047 23.324219 C 33.998047 23.375779 34.026177 23.417969 34.060547 23.417969 C 34.094927 23.417969 34.123047 23.460159 34.123047 23.511719 C 34.123047 23.518164 34.130007 23.517349 34.130859 23.523438 C 34.136392 23.564635 34.152672 23.607365 34.177734 23.617188 C 34.25326 23.646785 34.746489 24.698933 34.947266 25.228516 C 34.984077 25.331304 35.027119 25.438401 35.050781 25.519531 C 35.084415 25.640899 35.106279 25.787863 35.121094 25.990234 C 35.138032 26.260948 35.153847 26.852728 35.154297 27.707031 C 35.154305 27.722576 35.154297 27.722687 35.154297 27.738281 L 35.154297 29.589844 L 34.972656 29.972656 C 34.871804 30.183632 34.764455 30.355469 34.734375 30.355469 C 34.704295 30.355469 34.695547 30.383589 34.716797 30.417969 C 34.727422 30.435159 34.728321 30.451563 34.722656 30.462891 C 34.716634 30.4734 34.703963 30.480469 34.685547 30.480469 C 34.6655 30.480469 34.653674 30.48781 34.648438 30.5 C 34.642775 30.511327 34.643672 30.525779 34.654297 30.542969 C 34.672903 30.573086 34.660894 30.591842 34.638672 30.597656 C 34.632808 30.59999 34.63122 30.605469 34.623047 30.605469 C 34.584597 30.605469 34.570414 30.632624 34.589844 30.664062 C 34.594234 30.671167 34.584176 30.674472 34.585938 30.681641 C 34.547746 30.72489 34.507527 30.767562 34.460938 30.871094 C 34.395561 31.016383 34.236328 31.298427 34.107422 31.498047 C 34.044358 31.595706 34.034427 31.629134 33.992188 31.705078 C 33.965179 31.742121 33.935946 31.792813 33.919922 31.792969 C 33.894142 31.793239 33.873047 31.835159 33.873047 31.886719 C 33.873047 31.938279 33.844927 31.980469 33.810547 31.980469 C 33.776177 31.980469 33.748047 32.021916 33.748047 32.072266 C 33.748047 32.122619 33.691797 32.193679 33.623047 32.230469 C 33.554297 32.267264 33.498047 32.327421 33.498047 32.363281 C 33.498047 32.455191 32.513972 33.377397 32.03125 33.744141 C 31.769897 33.939334 31.401115 34.162531 31.03125 34.359375 C 30.72864 34.514222 30.412453 34.657622 30.123047 34.761719 C 29.551628 34.967253 29.453814 34.989197 28.744141 35.101562 C 28.726225 35.104279 28.670559 35.106618 28.648438 35.109375 C 28.245225 35.159781 26.804467 35.172936 26.480469 35.134766 C 26.308299 35.1158 26.197324 35.099517 26.089844 35.083984 C 26.060796 35.07865 26.059437 35.075403 26.027344 35.070312 C 25.891848 35.048818 25.723047 35.001584 25.654297 34.964844 C 25.585548 34.928104 25.523825 34.90135 25.515625 34.90625 C 25.507514 34.911048 25.452068 34.897314 25.392578 34.876953 C 25.392221 34.876817 25.390974 34.87708 25.390625 34.876953 C 25.386218 34.875347 25.375883 34.865351 25.373047 34.865234 C 25.360482 34.864719 25.284331 34.828083 25.261719 34.822266 C 24.957709 34.712769 24.668016 34.58896 24.386719 34.457031 C 24.238389 34.386575 24.103108 34.321318 23.970703 34.251953 C 23.100595 33.790576 22.351563 33.227006 21.775391 32.570312 C 21.751051 32.541392 21.727067 32.511988 21.703125 32.482422 C 21.59906 32.359391 21.496754 32.234146 21.404297 32.105469 C 21.381716 32.074041 21.377403 32.074382 21.355469 32.044922 C 21.279949 31.945007 21.178931 31.809768 21.152344 31.777344 C 21.102694 31.716796 21.060547 31.652996 21.060547 31.634766 C 21.060547 31.616534 21.007013 31.54127 20.939453 31.46875 C 20.871893 31.396231 20.829626 31.314326 20.847656 31.285156 C 20.865676 31.255986 20.855339 31.230469 20.824219 31.230469 C 20.745955 31.230469 20.302703 30.356689 20.345703 30.287109 C 20.346475 30.28586 20.343091 30.286386 20.34375 30.285156 C 20.357398 30.254922 20.345691 30.230469 20.310547 30.230469 C 20.272127 30.230469 20.257564 30.205828 20.277344 30.173828 C 20.297124 30.141828 20.288312 30.098928 20.257812 30.080078 C 20.227319 30.06123 20.18226 29.954231 20.15625 29.841797 C 20.136365 29.75584 20.113357 29.678024 20.09375 29.613281 C 20.093084 29.611081 20.092448 29.607589 20.091797 29.605469 C 20.083985 29.574359 20.081011 29.548097 20.074219 29.519531 C 20.05549 29.448868 20.030213 28.51499 20.019531 27.398438 C 20.010111 26.413723 20.006979 25.896448 20.021484 25.589844 C 20.028737 25.436542 20.040767 25.336718 20.058594 25.255859 C 20.076421 25.175001 20.099396 25.114154 20.130859 25.041016 C 20.192131 24.898585 20.2647 24.784866 20.316406 24.720703 C 20.336057 24.694279 20.373596 24.620705 20.382812 24.617188 C 20.413012 24.605648 20.421774 24.570502 20.402344 24.539062 C 20.401437 24.537595 20.403105 24.536602 20.402344 24.535156 C 20.386953 24.506365 20.398667 24.480469 20.435547 24.480469 C 20.453972 24.480469 20.466637 24.4734 20.472656 24.462891 C 20.479198 24.451469 20.477864 24.435874 20.466797 24.417969 C 20.456172 24.400779 20.455273 24.386327 20.460938 24.375 C 20.466602 24.363673 20.478832 24.355469 20.498047 24.355469 C 20.516472 24.355469 20.529137 24.3484 20.535156 24.337891 C 20.541698 24.326469 20.540364 24.310874 20.529297 24.292969 C 20.510042 24.261802 20.52322 24.24092 20.548828 24.236328 C 20.553674 24.234986 20.554417 24.230469 20.560547 24.230469 C 20.598175 24.230469 20.611121 24.203295 20.591797 24.169922 C 20.607673 24.154356 20.625228 24.125826 20.644531 24.095703 C 20.653121 24.090462 20.657483 24.084217 20.658203 24.074219 C 20.678732 24.039405 20.693907 24.03923 20.712891 23.996094 C 20.849142 23.686497 21.004176 23.422246 21.138672 23.269531 C 21.184717 23.217247 21.206594 23.163303 21.222656 23.117188 C 21.230537 23.102839 21.248047 23.101576 21.248047 23.082031 C 21.248047 23.034142 21.290237 22.978774 21.341797 22.958984 C 21.393357 22.939202 21.435547 22.891166 21.435547 22.853516 C 21.435547 22.775585 21.577301 22.615426 22.136719 22.054688 C 22.352533 21.838363 22.471079 21.724483 22.576172 21.628906 C 22.609532 21.610644 22.644665 21.583753 22.681641 21.537109 C 22.767139 21.466426 22.830169 21.421833 22.888672 21.400391 C 22.895789 21.397782 22.895596 21.39192 22.902344 21.388672 C 22.929946 21.388257 22.958947 21.370898 22.974609 21.330078 C 22.995232 21.276338 23.051729 21.230469 23.099609 21.230469 C 23.109121 21.230469 23.108673 21.220798 23.117188 21.21875 C 23.151202 21.21138 23.188844 21.20254 23.197266 21.183594 C 23.219633 21.133267 23.363299 21.043815 23.542969 20.943359 C 23.550732 20.936937 23.569193 20.937226 23.572266 20.929688 C 23.576725 20.918743 23.730662 20.850294 23.787109 20.818359 C 24.464841 20.477657 25.540829 20.042735 26.023438 19.957031 C 26.29412 19.908961 26.564286 19.875607 26.832031 19.851562 C 27.042668 19.839738 27.267848 19.833296 27.623047 19.833984 z "
       transform="matrix(0.26458333,0,0,0.26458333,0,282.4479)"
       id="path9402" />
    <path
       style="opacity:0.4;fill:#f2f2f2;fill-opacity:0.85882353;stroke-width:0.0625"
       d="m 27.467712,41.598597 c -0.653125,-0.02148 -1.208594,-0.02685 -1.234375,-0.01194 -0.02578,0.01491 -0.04687,-0.0027 -0.04687,-0.03907 0,-0.0364 -0.04219,-0.06619 -0.09375,-0.06619 -0.110201,0 -0.349971,-0.222945 -0.296875,-0.276042 0.02005,-0.02005 0.01068,-0.03663 -0.02083,-0.03684 -0.03151,-1.88e-4 -0.06568,-0.173337 -0.07592,-0.384729 -0.01025,-0.211391 -0.0454,-0.434371 -0.07813,-0.495511 -0.03272,-0.06114 -0.05965,-0.27473 -0.05985,-0.474646 -5.62e-4,-0.547341 -0.103574,-1.069162 -0.283845,-1.437622 -0.364782,-0.745589 -1.271318,-1.397807 -2.347262,-1.688767 -0.212985,-0.05759 -1.149781,-0.0244 -1.149781,0.04074 0,0.007 -0.06393,0.0246 -0.142066,0.03914 -0.319951,0.05953 -0.963535,0.453928 -1.679591,1.029273 -0.417537,0.335487 -0.819449,0.629112 -0.893138,0.6525 -0.104026,0.03302 -0.232623,-0.03718 -0.575172,-0.313942 -0.513032,-0.41451 -1.952418,-1.837115 -1.976287,-1.953245 -0.02428,-0.118152 0.158829,-0.444352 0.436974,-0.778433 0.135944,-0.163281 0.22478,-0.296875 0.197416,-0.296875 -0.02736,0 0.05163,-0.105468 0.175535,-0.234375 0.335721,-0.349258 0.711484,-0.96945 0.873212,-1.441222 0.215596,-0.62891 0.199557,-1.452128 -0.03981,-2.043153 -0.09745,-0.240625 -0.196851,-0.451562 -0.220885,-0.46875 -0.02403,-0.01719 -0.05495,-0.06076 -0.06869,-0.09683 -0.06987,-0.183306 -0.867055,-0.813212 -1.273362,-1.006166 -0.534148,-0.253666 -1.659218,-0.485795 -2.095384,-0.432329 -0.195209,0.02393 -0.25257,0.01578 -0.1875,-0.02664 0.07416,-0.04835 0.06021,-0.06132 -0.06678,-0.06208 -0.25287,-0.0015 -0.807843,-0.185402 -0.81182,-0.269003 -0.002,-0.04164 -0.01676,-0.188204 -0.03284,-0.325704 -0.04635,-0.396343 -0.0614,-2.093784 -0.01857,-2.093766 0.02131,9e-6 0.05368,-0.132467 0.07193,-0.294392 0.03999,-0.35477 0.185711,-0.493958 0.578877,-0.552917 0.152855,-0.02292 0.266023,-0.06092 0.251483,-0.08445 -0.01454,-0.02353 0.07715,-0.04451 0.203763,-0.04662 0.356979,-0.006 0.967724,-0.07067 1.39029,-0.1473 0.370616,-0.06721 0.942927,-0.293594 0.985742,-0.389929 0.01146,-0.02578 0.04795,-0.04687 0.0811,-0.04687 0.07979,0 0.679316,-0.601383 0.679316,-0.681418 0,-0.0343 0.03585,-0.08486 0.07967,-0.112351 0.117684,-0.07383 0.456129,-0.749658 0.570622,-1.139449 0.203989,-0.694487 0.08185,-1.468655 -0.339067,-2.14906 -0.102422,-0.165565 -0.186222,-0.324275 -0.186222,-0.352688 0,-0.02841 -0.04219,-0.06785 -0.09375,-0.08764 -0.05156,-0.01979 -0.09375,-0.07713 -0.09375,-0.12743 0,-0.0503 -0.08471,-0.151771 -0.188235,-0.225491 -0.103529,-0.07372 -0.173933,-0.157176 -0.156453,-0.185459 0.01748,-0.02828 -0.06754,-0.138633 -0.18894,-0.245221 -0.121397,-0.106589 -0.198649,-0.194732 -0.171672,-0.195876 0.02698,-0.0011 -0.01547,-0.05587 -0.09432,-0.121614 -0.07885,-0.06574 -0.141629,-0.135247 -0.139505,-0.154452 0.0021,-0.0192 -0.01389,-0.105649 -0.03559,-0.192099 -0.0217,-0.08645 -0.0052,-0.239932 0.03672,-0.341072 0.08318,-0.200814 2.154967,-2.263374 2.214101,-2.20424 0.02001,0.02001 0.03639,0.0022 0.03639,-0.03953 0,-0.07578 0.371195,0.153154 0.841222,0.518814 0.13611,0.105887 0.271971,0.192522 0.301914,0.192522 0.02994,0 0.08733,0.04354 0.127527,0.09675 0.140922,0.186549 0.913357,0.691842 1.294134,0.846566 0.59963,0.243651 1.142635,0.259185 1.997703,0.05715 0.05156,-0.01218 0.09375,-0.02639 0.09375,-0.03158 0,-0.0052 0.06651,-0.02172 0.147796,-0.03673 0.182454,-0.03371 0.508454,-0.221615 0.508454,-0.293068 0,-0.02899 0.02671,-0.0362 0.05936,-0.01602 0.03265,0.02018 0.08989,-0.02035 0.127199,-0.09006 0.03731,-0.06971 0.102001,-0.127571 0.143761,-0.128572 0.08819,-0.0021 0.533548,-0.602293 0.71777,-0.96728 0.179917,-0.356456 0.272907,-0.733757 0.331093,-1.343399 0.116505,-1.220642 0.208565,-1.515768 0.540745,-1.733504 0.146593,-0.09609 0.347132,-0.111615 1.56163,-0.120911 0.814945,-0.0062 1.393438,0.01322 1.393438,0.04687 0,0.03165 0.04385,0.05754 0.09744,0.05754 0.05359,0 0.08006,0.02813 0.05881,0.0625 -0.02125,0.03438 -0.01274,0.0625 0.01889,0.0625 0.03164,0 0.04408,0.07031 0.02765,0.15625 -0.01643,0.08594 -0.0055,0.15625 0.02429,0.15625 0.02979,0 0.05867,0.105469 0.06418,0.234375 0.0892,2.086476 0.694927,3.250798 2.021231,3.885171 0.457745,0.21894 0.486434,0.224204 1.221991,0.224204 0.74403,0 0.758935,-0.0028 1.21875,-0.232275 0.25603,-0.127751 0.613736,-0.34572 0.794902,-0.484375 0.181166,-0.138655 0.355353,-0.2521 0.387081,-0.2521 0.03173,0 0.10147,-0.06251 0.154982,-0.138906 0.05351,-0.0764 0.09729,-0.116223 0.09729,-0.0885 0,0.02773 0.105469,-0.03227 0.234375,-0.133324 0.330744,-0.259279 0.748779,-0.514271 0.843099,-0.514271 0.04398,0 0.116797,0.05899 0.161822,0.131086 0.04503,0.0721 0.09343,0.119524 0.107558,0.105393 0.01974,-0.01974 1.660653,1.597667 2.072928,2.043235 0.06077,0.06568 0.0133,0.165037 -0.23647,0.49498 -0.171876,0.227043 -0.290466,0.413742 -0.263532,0.414886 0.02693,0.0011 -0.01229,0.05323 -0.08716,0.115757 -0.221116,0.18464 -0.760266,0.928715 -0.96083,1.326031 -0.102347,0.202747 -0.228784,0.552749 -0.280973,0.777783 -0.09675,0.417179 -0.105644,1.199306 -0.01428,1.255773 0.02778,0.01717 0.03468,0.05681 0.01534,0.0881 -0.01934,0.03129 2.5e-4,0.120753 0.04351,0.198806 0.04327,0.07805 0.07269,0.163011 0.06539,0.188792 -0.0073,0.02578 0.01651,0.04687 0.05291,0.04687 0.0364,0 0.04881,0.02812 0.02756,0.0625 -0.02125,0.03438 -0.0072,0.0625 0.03125,0.0625 0.03843,0 0.0525,0.02812 0.03125,0.0625 -0.02125,0.03438 -0.0088,0.0625 0.02756,0.0625 0.0364,0 0.06619,0.04219 0.06619,0.09375 0,0.05156 0.02813,0.09375 0.0625,0.09375 0.03438,0 0.0556,0.02109 0.04716,0.04687 -0.02359,0.07209 0.699029,0.749734 1.018006,0.954642 0.427139,0.274388 0.719069,0.356086 1.783656,0.499165 1.315445,0.176794 1.338106,0.187454 1.465285,0.689279 0.06887,0.271759 0.100397,1.966955 0.04354,2.341289 -0.06938,0.456793 -0.30462,0.654725 -0.779522,0.655902 -0.07734,1.87e-4 -0.140627,0.02144 -0.140629,0.04722 -2e-6,0.02578 -0.232034,0.05217 -0.515625,0.05863 -0.595994,0.01359 -1.327488,0.187887 -1.805823,0.430278 -0.183391,0.09293 -0.492027,0.331039 -0.685857,0.529128 -0.615767,0.629297 -0.899935,1.426377 -0.855992,2.401018 0.03688,0.817895 0.29147,1.32392 1.163772,2.313077 0.354625,0.402131 0.574529,0.768147 0.574529,0.956264 0,0.135342 -0.317879,0.659309 -0.549256,0.905351 -0.0889,0.09453 -0.136155,0.171875 -0.105018,0.171875 0.03114,0 -0.110378,0.16875 -0.314476,0.375 -0.204098,0.20625 -0.404624,0.375 -0.445613,0.375 -0.04099,0 -0.147338,0.08653 -0.236331,0.192296 -0.08899,0.105762 -0.161806,0.174159 -0.161806,0.151994 0,-0.02217 -0.08169,0.01786 -0.181523,0.08896 -0.203681,0.145033 -0.353611,0.160328 -0.611283,0.06236 -0.09677,-0.03679 -0.187478,-0.0624 -0.201576,-0.0569 -0.0141,0.0055 -0.05098,-0.03531 -0.08197,-0.09067 -0.03098,-0.05537 -0.07966,-0.08625 -0.108157,-0.06864 -0.0285,0.01762 -0.09773,-0.03804 -0.153849,-0.123686 -0.05612,-0.08564 -0.139208,-0.155713 -0.18465,-0.155713 -0.04544,0 -0.136064,-0.05905 -0.20138,-0.131225 -0.162514,-0.179576 -1.112065,-0.806028 -1.266961,-0.835858 -0.06905,-0.0133 -0.190649,-0.06005 -0.270224,-0.103894 -0.195952,-0.107967 -1.707181,-0.100584 -1.707181,0.0083 0,0.0052 -0.07031,0.02221 -0.15625,0.03784 -0.08594,0.01563 -0.165683,0.0559 -0.177213,0.08949 -0.01153,0.03359 -0.04669,0.04519 -0.07813,0.02575 -0.03144,-0.01943 -0.05716,-0.0039 -0.05716,0.03455 0,0.03843 -0.02812,0.05249 -0.0625,0.03125 -0.03437,-0.02125 -0.0625,-0.0072 -0.0625,0.03125 0,0.03843 -0.02812,0.05249 -0.0625,0.03125 -0.03437,-0.02125 -0.0625,-0.0072 -0.0625,0.03125 0,0.03843 -0.0264,0.05356 -0.05866,0.03362 -0.03226,-0.01994 -0.08766,0.01356 -0.123099,0.07444 -0.03544,0.06088 -0.0653,0.08452 -0.06634,0.05253 -0.0036,-0.111294 -0.665471,0.644439 -0.831474,0.949441 -0.202366,0.371813 -0.355751,0.99068 -0.357003,1.440414 -5e-4,0.182434 -0.02679,0.449622 -0.05839,0.59375 -0.03161,0.144128 -0.08965,0.422781 -0.128991,0.619228 -0.07899,0.394486 -0.325525,0.674073 -0.594378,0.674073 -0.08044,0 -0.155621,0.02109 -0.16708,0.04687 -0.01146,0.02578 -0.555208,0.0293 -1.208333,0.0078 z m 1.288638,-6.491551 c 0.219374,-0.03869 0.456309,-0.07986 0.526523,-0.0915 0.315726,-0.05234 1.344648,-0.437183 1.794276,-0.671105 0.271914,-0.141465 0.676115,-0.389694 0.898224,-0.55162 0.444055,-0.323733 1.523589,-1.34051 1.523589,-1.435018 0,-0.03273 0.05625,-0.08961 0.125,-0.1264 0.06875,-0.03679 0.125,-0.108095 0.125,-0.158448 0,-0.05035 0.02813,-0.09155 0.0625,-0.09155 0.03438,0 0.0625,-0.03009 0.0625,-0.06686 0,-0.03678 0.08064,-0.184432 0.179191,-0.328125 0.09855,-0.143694 0.270933,-0.444074 0.383061,-0.667512 0.112129,-0.223437 0.235399,-0.426913 0.273934,-0.452168 0.03854,-0.02525 0.04461,-0.04635 0.0135,-0.04687 -0.03111,-5e-4 -0.01329,-0.05017 0.03959,-0.110332 0.05288,-0.06016 0.161531,-0.235937 0.241436,-0.390625 0.142525,-0.275913 0.145331,-0.317419 0.147907,-2.1875 0.0023,-1.643065 -0.01245,-1.954956 -0.106577,-2.259028 -0.170131,-0.549604 -0.873736,-1.986862 -1.000172,-2.043055 -0.02578,-0.01146 -0.04687,-0.06068 -0.04687,-0.109375 0,-0.0487 -0.02812,-0.08854 -0.0625,-0.08854 -0.03437,0 -0.0625,-0.02523 -0.0625,-0.05607 0,-0.03084 -0.06762,-0.136309 -0.150269,-0.234375 -0.08265,-0.09807 -0.317011,-0.375177 -0.520807,-0.615802 -0.657649,-0.776498 -1.81427,-1.593508 -2.795749,-1.97485 -1.048596,-0.40742 -1.727808,-0.528526 -2.908175,-0.51854 -0.899756,0.0076 -1.639227,0.132463 -2.42343,0.40917 -0.671521,0.236946 -1.821242,0.814419 -1.878653,0.943595 -0.01146,0.02578 -0.06068,0.04687 -0.109375,0.04687 -0.0487,0 -0.08854,0.02901 -0.08854,0.06446 0,0.03545 -0.04537,0.08187 -0.100828,0.103153 -0.407746,0.156467 -1.578647,1.503961 -2.060131,2.370836 -0.131449,0.236665 -0.261684,0.439732 -0.289409,0.451262 -0.02773,0.01153 -0.03451,0.04669 -0.01508,0.07813 0.01943,0.03144 0.0039,0.05716 -0.03455,0.05716 -0.03843,0 -0.0525,0.02812 -0.03125,0.0625 0.02125,0.03438 0.0072,0.0625 -0.03125,0.0625 -0.03843,0 -0.0525,0.02812 -0.03125,0.0625 0.02125,0.03438 0.01212,0.0625 -0.02027,0.0625 -0.05398,0 -0.144046,0.192973 -0.160434,0.34375 -0.0037,0.03438 -0.04898,0.09536 -0.100544,0.13552 -0.149841,0.116708 -0.173234,3.796208 -0.02831,4.453393 0.05744,0.260473 0.129251,0.5043 0.159582,0.541838 0.03033,0.03754 0.03664,0.08676 0.01402,0.109375 -0.02262,0.02262 -0.013,0.04112 0.02138,0.04112 0.03438,0 0.0625,0.04124 0.0625,0.09165 0,0.126915 0.402339,0.90835 0.467684,0.90835 0.02923,0 0.05315,0.04018 0.05315,0.08929 0,0.04911 0.03555,0.126451 0.07901,0.171875 0.04346,0.04542 0.246488,0.316894 0.451183,0.603267 1.000527,1.399754 2.654123,2.447982 4.719806,2.991924 0.327547,0.08625 2.175901,0.0998 2.632388,0.01929 z"
       id="path9408"
       inkscape:connector-curvature="0"
       transform="matrix(0.26458333,0,0,0.26458333,0,282.4479)" />
    <path
       style="opacity:0.4;fill:#f2f2f2;fill-opacity:0.85882353;stroke-width:0.0625"
       d="m 26.811462,33.838441 c -0.01719,-0.01834 -0.2,-0.04632 -0.40625,-0.06217 -0.20625,-0.01585 -0.43125,-0.05065 -0.5,-0.07732 -0.06875,-0.02667 -0.219394,-0.08635 -0.334765,-0.132605 -0.11537,-0.04626 -0.232499,-0.07006 -0.260287,-0.05288 -0.02779,0.01717 -0.05995,0.0086 -0.07148,-0.01899 -0.01153,-0.02762 -0.217838,-0.157325 -0.458463,-0.288238 -0.960803,-0.522727 -1.813882,-1.253055 -2.402784,-2.057043 -0.206076,-0.281342 -0.415379,-0.558407 -0.465117,-0.615699 -0.04974,-0.05729 -0.07403,-0.120572 -0.05397,-0.140625 0.02005,-0.02005 0.002,-0.03646 -0.04015,-0.03646 -0.04213,0 -0.05922,-0.02812 -0.03798,-0.0625 0.02125,-0.03438 0.0072,-0.0625 -0.03125,-0.0625 -0.03843,0 -0.0525,-0.02812 -0.03125,-0.0625 0.02125,-0.03438 0.0042,-0.0625 -0.03798,-0.0625 -0.04213,0 -0.05776,-0.01885 -0.03472,-0.04189 0.02304,-0.02304 0.0019,-0.102924 -0.04699,-0.177526 -0.195463,-0.298314 -0.231651,-0.662761 -0.219205,-2.207561 0.01548,-1.920716 0.01875,-2.034569 0.05953,-2.073028 0.01823,-0.01719 0.116019,-0.239908 0.217313,-0.494934 0.404614,-1.018692 1.333268,-2.157175 2.281264,-2.796715 1.293408,-0.872563 2.379421,-1.186541 3.91192,-1.130977 0.929938,0.03372 1.420033,0.149958 2.303523,0.546353 1.290044,0.578803 2.417415,1.631971 3.044865,2.844453 0.142472,0.275314 0.275675,0.514633 0.296007,0.53182 0.02033,0.01719 0.03697,0.05937 0.03697,0.09375 0,0.119422 0.172725,0.656252 0.211247,0.656559 0.02131,1.69e-4 0.04649,0.133763 0.05595,0.296875 0.0095,0.163111 0.04053,0.304579 0.06904,0.314372 0.02851,0.0098 0.03868,0.08667 0.02259,0.170832 -0.01609,0.08416 -0.009,0.202715 0.01576,0.263445 0.07484,0.183604 0.02749,1.502867 -0.06173,1.719792 -0.02474,0.06016 -0.0288,0.151563 -0.009,0.203125 0.01979,0.05156 0.0055,0.09375 -0.03185,0.09375 -0.0373,0 -0.05312,0.05625 -0.03514,0.125 0.01798,0.06875 0.01165,0.125 -0.01407,0.125 -0.02572,0 -0.08152,0.119532 -0.124004,0.265625 -0.333742,1.147615 -1.386862,2.53795 -2.488673,3.285562 -0.408726,0.277333 -1.121216,0.644624 -1.46949,0.757528 -0.128906,0.04179 -0.234375,0.103583 -0.234375,0.137321 0,0.03374 -0.02434,0.0463 -0.0541,0.02791 -0.02975,-0.01839 -0.24772,0.0079 -0.484375,0.05835 -0.437651,0.09336 -2.029536,0.198066 -2.086529,0.137249 z"
       id="path9413"
       inkscape:connector-curvature="0"
       transform="matrix(0.26458333,0,0,0.26458333,0,282.4479)" />
  </g>
</svg>
