<?xml version="1.0" encoding="UTF-8" standalone="no"?>
<!-- Created with Inkscape (http://www.inkscape.org/) -->

<svg
   xmlns:dc="http://purl.org/dc/elements/1.1/"
   xmlns:cc="http://creativecommons.org/ns#"
   xmlns:rdf="http://www.w3.org/1999/02/22-rdf-syntax-ns#"
   xmlns:svg="http://www.w3.org/2000/svg"
   xmlns="http://www.w3.org/2000/svg"
   xmlns:sodipodi="http://sodipodi.sourceforge.net/DTD/sodipodi-0.dtd"
   xmlns:inkscape="http://www.inkscape.org/namespaces/inkscape"
   width="55"
   height="55"
   viewBox="0 0 14.552083 14.552084"
   version="1.1"
   id="svg5625"
   inkscape:version="0.92.4 (f8dce91, 2019-08-02)"
   sodipodi:docname="normal_on.svg">
  <defs
     id="defs5619" />
  <sodipodi:namedview
     id="base"
     pagecolor="#ffffff"
     bordercolor="#666666"
     borderopacity="1.0"
     inkscape:pageopacity="0.0"
     inkscape:pageshadow="2"
     inkscape:zoom="12.295522"
     inkscape:cx="27.779297"
     inkscape:cy="27.527344"
     inkscape:document-units="mm"
     inkscape:current-layer="layer1"
     showgrid="false"
     units="px"
     inkscape:window-width="1280"
     inkscape:window-height="996"
     inkscape:window-x="1366"
     inkscape:window-y="0"
     inkscape:window-maximized="1" />
  <metadata
     id="metadata5622">
    <rdf:RDF>
      <cc:Work
         rdf:about="">
        <dc:format>image/svg+xml</dc:format>
        <dc:type
           rdf:resource="http://purl.org/dc/dcmitype/StillImage" />
        <dc:title></dc:title>
      </cc:Work>
    </rdf:RDF>
  </metadata>
  <g
     inkscape:groupmode="layer"
     id="layer3"
     inkscape:label="background"
     style="display:none">
    <rect
       style="fill:#ffffff;stroke:#000000;stroke-width:0.26499999;stroke-miterlimit:4;stroke-dasharray:none;stroke-opacity:0"
       id="rect5632"
       width="18.757069"
       height="17.434153"
       x="-0.8976934"
       y="-0.94494051" />
  </g>
  <g
     inkscape:label="Layer 1"
     inkscape:groupmode="layer"
     id="layer1"
     transform="translate(0,-282.4479)"
     style="display:inline">
    <path
       style="fill:#4d4d4d;stroke-width:0.99999994;opacity:0.4"
       d="M 5.0390625 0.072265625 C 2.3170469 0.072265625 0.12695312 2.2643125 0.12695312 4.9863281 L 0.12695312 49.960938 C 0.12695312 52.682953 2.3170469 54.873047 5.0390625 54.873047 L 50.519531 54.873047 C 53.241547 54.873047 55.431641 52.682953 55.431641 49.960938 L 55.431641 4.9863281 C 55.431641 2.2643125 53.241547 0.072265625 50.519531 0.072265625 L 5.0390625 0.072265625 z M 7.0664062 2.1445312 L 47.822266 2.1445312 C 50.261515 2.1445312 52.224609 4.1076258 52.224609 6.546875 L 52.224609 48.386719 C 52.224609 50.825968 50.261515 52.791016 47.822266 52.791016 L 7.0664062 52.791016 C 4.627157 52.791016 2.6640625 50.825968 2.6640625 48.386719 L 2.6640625 6.546875 C 2.6640625 4.1076258 4.627157 2.1445312 7.0664062 2.1445312 z "
       transform="matrix(0.26458333,0,0,0.26458333,0,282.4479)"
       id="rect978" />
    <rect
       id="rect978-5"
       width="13.11291"
       height="13.400226"
       x="0.70492369"
       y="283.01511"
       rx="1.1649543"
       style="display:inline;fill:#ffffff;stroke-width:0.24078348;opacity:0.4" />
    <path
       style="fill:#000000;stroke-width:0.04850694"
       d="m 6.6998066,293.7217 c -0.1819715,-0.14314 -0.2723845,-0.36961 -0.2737148,-0.6856 -0.00114,-0.27075 -0.078907,-0.41723 -0.2746474,-0.51733 -0.1992583,-0.1019 -0.3429214,-0.0619 -0.6009745,0.16727 -0.4625554,0.41081 -0.6400423,0.40063 -1.1216911,-0.0644 -0.3316945,-0.32023 -0.4605161,-0.55702 -0.4024892,-0.73985 0.017318,-0.0546 0.1389524,-0.22201 0.2702986,-0.37211 0.303271,-0.34657 0.3203948,-0.52548 0.073888,-0.77198 -0.1518025,-0.15181 -0.1886562,-0.16493 -0.4632248,-0.16493 -0.5696061,0 -0.730046,-0.18655 -0.730046,-0.84887 0,-0.65301 0.1628014,-0.84887 0.7055843,-0.84887 0.6633707,0 0.8701742,-0.52 0.3858219,-0.97014 -0.3547893,-0.32973 -0.3334464,-0.56676 0.09108,-1.01153 0.4946651,-0.51825 0.6844807,-0.54197 1.1622156,-0.14525 0.3158519,0.2623 0.4517828,0.28947 0.6978071,0.13946 0.1685851,-0.10279 0.1923997,-0.16712 0.2212169,-0.59755 0.020279,-0.3029 0.1279243,-0.49952 0.3304641,-0.60361 0.1379814,-0.0709 0.8579655,-0.0814 1.0325284,-0.015 0.1951469,0.0742 0.292672,0.27515 0.3249311,0.66955 0.035048,0.42849 0.152108,0.58492 0.4695729,0.6275 0.1827121,0.0245 0.2147616,0.0101 0.4341701,-0.19513 0.4519295,-0.42273 0.656443,-0.41324 1.1392142,0.0528 0.506681,0.48916 0.525933,0.68936 0.109137,1.13495 -0.172865,0.18481 -0.215758,0.26546 -0.215758,0.40571 0,0.35146 0.205382,0.50821 0.665895,0.50821 0.49455,0 0.643793,0.19678 0.643793,0.84887 0,0.6619 -0.160553,0.84887 -0.728927,0.84887 -0.263788,0 -0.313115,0.0159 -0.438971,0.14179 -0.110826,0.11083 -0.14179,0.18543 -0.14179,0.34163 0,0.17019 0.03267,0.23476 0.220229,0.43528 0.392422,0.41953 0.375782,0.63981 -0.08333,1.10303 -0.4744553,0.47872 -0.7473413,0.50578 -1.1316152,0.11225 -0.4532678,-0.46419 -0.9455662,-0.20005 -0.9455662,0.50733 0,0.22704 -0.021427,0.29158 -0.1414497,0.42599 -0.1401346,0.15694 -0.1461155,0.15857 -0.6431176,0.17462 -0.460293,0.0149 -0.513121,0.007 -0.6405395,-0.093 z m 1.0578399,-0.3147 c 0.052476,-0.0525 0.076225,-0.16754 0.076225,-0.36932 0,-0.47488 0.1974849,-0.73993 0.6474668,-0.86898 0.2320247,-0.0665 0.5394612,0.0396 0.8043514,0.27779 0.1297589,0.11667 0.2660911,0.21212 0.3029602,0.21212 0.036869,0 0.2051146,-0.13932 0.3738789,-0.3096 0.3504702,-0.35361 0.3539762,-0.39478 0.057526,-0.67569 -0.2273499,-0.21544 -0.3170887,-0.45416 -0.2734092,-0.72731 0.072385,-0.45268 0.3954582,-0.71275 0.8854042,-0.71275 0.15844,0 0.312922,-0.0261 0.345072,-0.0582 0.07822,-0.0782 0.07822,-0.82402 0,-0.90223 -0.03201,-0.032 -0.172477,-0.0582 -0.312138,-0.0582 -0.307635,0 -0.482023,-0.0611 -0.6664009,-0.2335 -0.3821314,-0.35729 -0.3581258,-0.83984 0.063614,-1.27875 0.108362,-0.11277 0.197022,-0.22436 0.197022,-0.24797 0,-0.0736 -0.5936426,-0.66513 -0.6675322,-0.66513 -0.038539,0 -0.1789965,0.0979 -0.3121272,0.21763 -0.1334925,0.12002 -0.3273723,0.2406 -0.4322812,0.26885 -0.5632437,0.15167 -1.0619135,-0.28206 -1.0619135,-0.92362 0,-0.14908 -0.026194,-0.29725 -0.058208,-0.32927 -0.035231,-0.0352 -0.2061929,-0.0582 -0.4330977,-0.0582 -0.4738948,0 -0.5273398,0.0448 -0.5273398,0.44244 0,0.44956 -0.2219268,0.75993 -0.6184635,0.86491 -0.2963459,0.0785 -0.5531607,-0.004 -0.8353734,-0.26786 -0.1263424,-0.11818 -0.2596046,-0.21487 -0.2961383,-0.21487 -0.085519,0 -0.6753719,0.58311 -0.6753719,0.66765 0,0.0353 0.097148,0.16797 0.215884,0.29491 0.2984522,0.31907 0.3726702,0.59778 0.2424408,0.91043 -0.053984,0.1296 -0.1737086,0.29089 -0.279158,0.37608 -0.1598807,0.12916 -0.2314189,0.1517 -0.5335764,0.16812 -0.1919176,0.0104 -0.3762262,0.041 -0.4095747,0.068 -0.080896,0.0654 -0.082929,0.82008 -0.00243,0.90059 0.032015,0.032 0.1793544,0.0587 0.3274219,0.0593 0.8938129,0.004 1.2625044,0.83373 0.6528243,1.46999 -0.1176101,0.12274 -0.2138365,0.25065 -0.2138365,0.28425 0,0.0891 0.5898658,0.67004 0.6803072,0.67004 0.042225,0 0.1519963,-0.0782 0.243936,-0.17375 0.1955525,-0.20327 0.2966674,-0.26377 0.5298239,-0.31702 0.3273477,-0.0747 0.7356845,0.12738 0.900262,0.44563 0.039118,0.0756 0.071018,0.26759 0.071018,0.42732 0,0.39868 0.05277,0.44244 0.5335764,0.44244 0.281802,0 0.4009909,-0.0199 0.4573511,-0.0762 z m -0.7884454,-1.67176 c -0.3541678,-0.0508 -0.8574826,-0.30909 -1.1264238,-0.57803 -0.1230744,-0.12308 -0.298415,-0.3754 -0.3896458,-0.56071 -0.1584702,-0.3219 -0.1658742,-0.36085 -0.1658742,-0.87256 0,-0.51171 0.0074,-0.55066 0.1658742,-0.87255 0.632466,-1.28472 2.3278565,-1.56002 3.2969398,-0.53536 0.1399397,0.14797 0.321586,0.41344 0.4071222,0.59501 0.1414375,0.30022 0.1544456,0.36869 0.1544456,0.8129 0,0.44369 -0.013108,0.51289 -0.1536467,0.8112 -0.4112826,0.87298 -1.2527951,1.33438 -2.1887913,1.2001 z m 0.8231807,-0.38654 c 1.1070191,-0.34918 1.551545,-1.61809 0.9074844,-2.59045 -0.3180804,-0.48021 -0.9834346,-0.79841 -1.5464314,-0.73957 -0.590826,0.0618 -1.1414808,0.43612 -1.3921609,0.94647 -0.1197154,0.24373 -0.1344483,0.32688 -0.1344483,0.75879 0,0.43192 0.014733,0.51506 0.1344483,0.75879 0.2157215,0.43918 0.6719396,0.7955 1.1752194,0.91789 0.2626166,0.0639 0.5426763,0.0469 0.8558885,-0.0519 z"
       id="path8615"
       inkscape:connector-curvature="0" />
    <path
       style="opacity:0.4;fill:#4d4d4d;stroke-width:0.08838835"
       d="M 3.6636139,54.632469 C 2.0471442,54.109252 0.91102243,52.989954 0.37888179,51.396377 L 0.17227413,50.777658 V 27.487329 c 0,-22.3142041 0.006777,-23.3125567 0.16169836,-23.82066 C 0.87300422,1.8987801 2.2853196,0.5927968 4.0613614,0.21991199 4.9970432,0.02346305 50.594251,0.02401712 51.525904,0.22048916 53.307408,0.59618163 54.772273,2.001122 55.2319,3.774884 c 0.124568,0.4807256 0.138789,2.9281776 0.137848,23.725203 -0.0011,25.463313 0.04051,23.547766 -0.537726,24.722337 -0.354552,0.720195 -1.262873,1.645601 -1.987492,2.024875 -1.138544,0.595927 0.855123,0.55252 -25.135759,0.547275 C 5.367592,54.790068 4.1246198,54.781687 3.6636139,54.632469 Z M 49.095224,52.64765 c 1.595304,-0.534705 2.8024,-1.885788 3.086902,-3.455118 0.06616,-0.364918 0.09461,-6.979563 0.09355,-21.743534 C 52.274377,9.5763289 52.25457,6.1376239 52.150072,5.6446235 51.791157,3.9513428 50.417986,2.5634223 48.759418,2.2175494 48.425125,2.147837 42.312958,2.1198729 27.410105,2.1198729 4.538443,2.1198729 6.09217,2.0844554 4.9917127,2.6309045 3.8768831,3.1844904 2.9057289,4.5393345 2.6970314,5.8321835 2.634144,6.2217614 2.6045682,13.207041 2.6051561,27.531523 c 9.449e-4,23.019521 -0.025997,21.769846 0.4921767,22.828955 0.126415,0.258383 0.4458527,0.703101 0.7098615,0.988262 0.7548267,0.815303 1.5162573,1.236508 2.5522641,1.41185 0.243068,0.04114 9.8486716,0.06922 21.3457856,0.0624 20.059107,-0.0119 20.92349,-0.01898 21.38998,-0.175338 z"
       id="path9211"
       inkscape:connector-curvature="0"
       transform="matrix(0.26458333,0,0,0.26458333,0,282.4479)" />
    <path
       style="opacity:0.4;fill:#cccccc;stroke-width:0.125"
       d="M 5.8500311,52.554356 C 4.5834457,52.15633 3.6120025,51.287598 3.0354161,50.037333 L 2.7517762,49.42229 V 27.48479 5.5472902 L 3.0843271,4.8378969 C 3.5290603,3.8891977 4.3126732,3.0654001 5.1715878,2.6435987 L 5.8767762,2.2972902 27.272756,2.2639522 48.668737,2.2306143 49.366089,2.4915271 c 0.973755,0.3643284 1.94035,1.2792332 2.39754,2.2693276 l 0.363147,0.7864355 V 27.48479 49.42229 l -0.329396,0.702501 c -0.44594,0.951055 -1.074605,1.614262 -2.012061,2.122612 l -0.783543,0.424887 -21.3125,0.0238 C 10.299361,52.715506 6.2798283,52.68942 5.8500311,52.554356 Z M 29.622505,42.80713 c 0.70238,-0.293472 1.054262,-0.973519 1.174127,-2.269111 0.11424,-1.234808 0.316788,-1.736995 0.897745,-2.225839 0.709364,-0.596891 1.516954,-0.40229 2.682399,0.646363 1.47114,1.323712 2.432789,1.192865 4.179725,-0.568719 1.735998,-1.750555 1.826958,-2.599333 0.445275,-4.155034 -0.306604,-0.34522 -0.649149,-0.804975 -0.761211,-1.02168 -0.244256,-0.47234 -0.178639,-1.199961 0.147166,-1.63189 0.479153,-0.635227 0.792071,-0.764899 2.05762,-0.852662 1.450224,-0.100573 1.881463,-0.31186 2.27783,-1.116038 0.243635,-0.494302 0.278301,-0.7613 0.276256,-2.12773 -0.002,-1.328984 -0.04239,-1.64991 -0.270295,-2.147375 -0.349366,-0.762569 -0.770768,-0.971036 -2.244783,-1.110492 -1.599653,-0.151343 -2.071565,-0.412054 -2.303244,-1.272443 -0.193776,-0.719627 -0.05087,-1.127662 0.723531,-2.065861 0.950093,-1.151055 1.231346,-1.79654 1.048588,-2.406536 -0.187933,-0.627263 -0.979982,-1.596278 -1.991837,-2.436869 -1.462297,-1.214795 -2.113812,-1.205811 -3.609196,0.04977 -1.202905,1.010003 -1.282414,1.045118 -2.00153,0.88396 -0.641586,-0.143782 -1.118246,-0.501159 -1.301456,-0.975769 -0.06245,-0.161765 -0.193295,-0.825051 -0.290779,-1.473968 -0.19059,-1.268697 -0.427926,-1.803759 -0.984211,-2.218847 -0.291628,-0.217606 -0.570018,-0.270583 -1.61097,-0.306567 -1.747643,-0.06041 -2.517995,0.054 -2.979759,0.442546 -0.565111,0.47551 -0.733344,0.905123 -0.924557,2.36102 -0.193928,1.476574 -0.317563,1.69795 -1.158412,2.074219 -0.703406,0.314766 -0.969961,0.228985 -2.247043,-0.72313 -1.820544,-1.357286 -2.354917,-1.333255 -3.942814,0.177319 -0.55591,0.52884 -1.170641,1.211602 -1.36607,1.51725 -0.651874,1.019523 -0.429536,1.971287 0.702399,3.006777 0.773737,0.70781 1.01732,1.732921 0.581567,2.447505 -0.327476,0.537024 -0.979832,0.806705 -2.243205,0.927335 -1.31812,0.125855 -1.635487,0.240421 -2.058444,0.743079 -0.425226,0.505351 -0.525252,1.019099 -0.524633,2.694581 4.25e-4,1.167928 0.04239,1.460123 0.278595,1.94023 0.396044,0.804988 0.826327,1.015411 2.282901,1.116424 1.318329,0.09143 1.616067,0.230641 2.207379,1.032117 0.535892,0.726363 0.395547,1.219988 -0.756632,2.661229 -0.9813,1.227491 -1.060248,1.522636 -0.638101,2.385476 0.373051,0.76249 1.680375,2.144244 2.551331,2.696589 0.327964,0.207988 0.733868,0.355435 0.978472,0.355435 0.48803,0 1.230636,-0.352541 1.810822,-0.859661 1.198493,-1.047561 1.903674,-1.246725 2.698498,-0.762135 0.51607,0.31464 0.718095,0.8022 0.822411,1.984785 0.100211,1.136046 0.391335,1.823709 0.997316,2.355761 l 0.462699,0.40625 h 1.749665 c 1.229409,0 1.876097,-0.05283 2.174865,-0.17766 z"
       id="path9215"
       inkscape:connector-curvature="0"
       transform="matrix(0.26458333,0,0,0.26458333,0,282.4479)" />
    <path
       style="opacity:0.4;fill:#cccccc;stroke-width:0.125"
       d="m 26.106519,41.484961 c -0.327043,-0.131881 -0.373235,-0.281208 -0.483394,-1.562671 -0.04728,-0.55 -0.170713,-1.211857 -0.274296,-1.470794 -0.372553,-0.931306 -1.810815,-1.841706 -2.909553,-1.841706 -0.789002,0 -1.602134,0.377123 -2.429192,1.126635 -0.454185,0.411601 -0.915917,0.748365 -1.026072,0.748365 -0.203764,0 -2.222819,-1.888219 -2.431258,-2.27371 -0.08847,-0.163611 0.0422,-0.395569 0.579818,-1.029281 0.91431,-1.077736 1.236095,-1.800331 1.228861,-2.759509 -0.01345,-1.783052 -1.240081,-2.836612 -3.550849,-3.049837 -0.626296,-0.05779 -1.205115,-0.171469 -1.286264,-0.252619 -0.235343,-0.235343 -0.199315,-2.949345 0.04236,-3.19102 0.121873,-0.121873 0.630413,-0.235583 1.419553,-0.317412 1.39803,-0.144968 1.916674,-0.34732 2.451514,-0.956469 0.652469,-0.743121 0.927731,-1.405557 0.927731,-2.232643 0,-0.884476 -0.257909,-1.450416 -1.116863,-2.450778 -0.958405,-1.116186 -0.979657,-0.976661 0.351522,-2.30784 0.648385,-0.648385 1.238692,-1.178882 1.311793,-1.178882 0.0731,0 0.376346,0.196121 0.673878,0.435825 1.324906,1.067397 1.843967,1.355319 2.548704,1.413761 2.0653,0.171271 3.322366,-1.040186 3.503843,-3.376717 0.116479,-1.49967 0.163131,-1.535369 2.006476,-1.535369 1.058474,0 1.45551,0.04335 1.53204,0.167287 0.05682,0.09201 0.141333,0.62332 0.187815,1.180694 0.190145,2.27999 1.369063,3.589519 3.231503,3.589519 0.933667,0 1.331385,-0.177331 2.632045,-1.173557 0.503687,-0.385793 0.977482,-0.701443 1.052877,-0.701443 0.170719,0 2.408164,2.210366 2.408164,2.379019 0,0.06766 -0.336061,0.52327 -0.746802,1.012459 -1.538727,1.832612 -1.619855,3.509261 -0.232902,4.813278 0.645314,0.606725 1.166062,0.808744 2.377685,0.9224 0.614435,0.05764 1.192897,0.167654 1.28547,0.244484 0.337658,0.280231 0.390185,2.729705 0.06966,3.248329 -0.06495,0.105092 -0.509454,0.199967 -1.209159,0.258084 -0.608548,0.05054 -1.331451,0.185886 -1.606451,0.300758 -1.136281,0.474645 -1.840574,1.569558 -1.8494,2.875129 -0.0063,0.928585 0.302505,1.588188 1.175704,2.511466 0.405762,0.429034 0.611196,0.754344 0.611196,0.967849 0,0.349104 -0.893571,1.41344 -1.768321,2.106255 -0.588388,0.466013 -0.662166,0.446268 -1.814373,-0.48558 -1.199076,-0.969754 -2.18704,-1.21999 -3.30829,-0.837942 -1.35492,0.461667 -1.958777,1.367988 -2.11333,3.171862 -0.135895,1.586119 -0.199205,1.639958 -1.915783,1.629226 -0.697072,-0.0044 -1.389019,-0.05696 -1.53766,-0.116905 z m 3.12912,-6.436475 c 1.70031,-0.360236 3.45902,-1.498613 4.494472,-2.909182 0.23923,-0.325896 0.650996,-1.014295 0.915036,-1.529776 l 0.480073,-0.937238 0.04275,-1.954494 c 0.04034,-1.843957 0.02522,-1.99792 -0.267395,-2.722349 -0.48451,-1.199525 -1.078385,-2.1053 -1.969008,-3.003115 -2.260306,-2.278563 -5.661292,-2.858103 -8.64028,-1.472335 -1.692348,0.787247 -2.903264,2.004783 -3.817437,3.838305 l -0.468169,0.938988 -0.04428,1.898665 c -0.03396,1.456041 0.0011,2.05342 0.150444,2.5625 0.5264,1.79455 2.185437,3.713644 3.974296,4.597271 0.596403,0.2946 1.383903,0.608124 1.75,0.69672 0.901729,0.218219 2.358823,0.216522 3.399493,-0.004 z"
       id="path9217"
       inkscape:connector-curvature="0"
       transform="matrix(0.26458333,0,0,0.26458333,0,282.4479)" />
    <path
       style="opacity:0.4;fill:#cccccc;stroke-width:0.125"
       d="m 25.870165,33.684391 c -1.65354,-0.517905 -3.301438,-1.897171 -4.055409,-3.394317 l -0.43702,-0.867784 -4.8e-4,-1.875 c -4.74e-4,-1.850746 0.0047,-1.885928 0.399702,-2.719816 1.350984,-2.852039 4.744444,-4.367677 7.618758,-3.402801 2.810123,0.943327 4.54356,3.295371 4.54356,6.165007 0,2.775633 -2.05266,5.355866 -4.830543,6.072086 -0.909038,0.234377 -2.526421,0.245675 -3.238568,0.02262 z"
       id="path9219"
       inkscape:connector-curvature="0"
       transform="matrix(0.26458333,0,0,0.26458333,0,282.4479)" />
  </g>
</svg>
