<?xml version="1.0" encoding="UTF-8" standalone="no"?>
<!-- Created with Inkscape (http://www.inkscape.org/) -->

<svg
   xmlns:dc="http://purl.org/dc/elements/1.1/"
   xmlns:cc="http://creativecommons.org/ns#"
   xmlns:rdf="http://www.w3.org/1999/02/22-rdf-syntax-ns#"
   xmlns:svg="http://www.w3.org/2000/svg"
   xmlns="http://www.w3.org/2000/svg"
   xmlns:sodipodi="http://sodipodi.sourceforge.net/DTD/sodipodi-0.dtd"
   xmlns:inkscape="http://www.inkscape.org/namespaces/inkscape"
   width="55"
   height="55"
   viewBox="0 0 14.552083 14.552084"
   version="1.1"
   id="svg5625"
   inkscape:version="0.92.4 (f8dce91, 2019-08-02)"
   sodipodi:docname="settings2.svg">
  <defs
     id="defs5619" />
  <sodipodi:namedview
     id="base"
     pagecolor="#ffffff"
     bordercolor="#666666"
     borderopacity="1.0"
     inkscape:pageopacity="0.0"
     inkscape:pageshadow="2"
     inkscape:zoom="5.6568543"
     inkscape:cx="0.10024339"
     inkscape:cy="6.6875805"
     inkscape:document-units="mm"
     inkscape:current-layer="layer1"
     showgrid="false"
     units="px"
     inkscape:window-width="1280"
     inkscape:window-height="996"
     inkscape:window-x="1366"
     inkscape:window-y="0"
     inkscape:window-maximized="1" />
  <metadata
     id="metadata5622">
    <rdf:RDF>
      <cc:Work
         rdf:about="">
        <dc:format>image/svg+xml</dc:format>
        <dc:type
           rdf:resource="http://purl.org/dc/dcmitype/StillImage" />
        <dc:title></dc:title>
      </cc:Work>
    </rdf:RDF>
  </metadata>
  <g
     inkscape:groupmode="layer"
     id="layer3"
     inkscape:label="background"
     style="display:none">
    <rect
       style="fill:#ffffff;stroke:#000000;stroke-width:0.26499999;stroke-miterlimit:4;stroke-dasharray:none;stroke-opacity:0"
       id="rect5632"
       width="18.757069"
       height="17.434153"
       x="-0.8976934"
       y="-0.94494051" />
  </g>
  <g
     inkscape:label="Layer 1"
     inkscape:groupmode="layer"
     id="layer1"
     transform="translate(0,-282.4479)"
     style="display:inline">
    <path
       style="fill:#333333;stroke-width:0.99999994;opacity:0.4"
       d="M 5.0390625 0.072265625 C 2.3170469 0.072265625 0.12695312 2.2643125 0.12695312 4.9863281 L 0.12695312 49.960938 C 0.12695312 52.682953 2.3170469 54.873047 5.0390625 54.873047 L 50.519531 54.873047 C 53.241547 54.873047 55.431641 52.682953 55.431641 49.960938 L 55.431641 4.9863281 C 55.431641 2.2643125 53.241547 0.072265625 50.519531 0.072265625 L 5.0390625 0.072265625 z M 7.0664062 2.1445312 L 47.822266 2.1445312 C 50.261515 2.1445312 52.224609 4.1076258 52.224609 6.546875 L 52.224609 48.386719 C 52.224609 50.825968 50.261515 52.791016 47.822266 52.791016 L 7.0664062 52.791016 C 4.627157 52.791016 2.6640625 50.825968 2.6640625 48.386719 L 2.6640625 6.546875 C 2.6640625 4.1076258 4.627157 2.1445312 7.0664062 2.1445312 z "
       transform="matrix(0.26458333,0,0,0.26458333,0,282.4479)"
       id="rect978" />
    <rect
       id="rect978-5"
       width="13.11291"
       height="13.400226"
       x="0.70492369"
       y="283.01511"
       rx="1.1649543"
       style="display:inline;fill:#ffffff;stroke-width:0.24078348;opacity:0.4" />
    <path
       style="fill:#000000;stroke-width:0.04850694"
       d="m 6.6998066,293.7217 c -0.1819715,-0.14314 -0.2723845,-0.36961 -0.2737148,-0.6856 -0.00114,-0.27075 -0.078907,-0.41723 -0.2746474,-0.51733 -0.1992583,-0.1019 -0.3429214,-0.0619 -0.6009745,0.16727 -0.4625554,0.41081 -0.6400423,0.40063 -1.1216911,-0.0644 -0.3316945,-0.32023 -0.4605161,-0.55702 -0.4024892,-0.73985 0.017318,-0.0546 0.1389524,-0.22201 0.2702986,-0.37211 0.303271,-0.34657 0.3203948,-0.52548 0.073888,-0.77198 -0.1518025,-0.15181 -0.1886562,-0.16493 -0.4632248,-0.16493 -0.5696061,0 -0.730046,-0.18655 -0.730046,-0.84887 0,-0.65301 0.1628014,-0.84887 0.7055843,-0.84887 0.6633707,0 0.8701742,-0.52 0.3858219,-0.97014 -0.3547893,-0.32973 -0.3334464,-0.56676 0.09108,-1.01153 0.4946651,-0.51825 0.6844807,-0.54197 1.1622156,-0.14525 0.3158519,0.2623 0.4517828,0.28947 0.6978071,0.13946 0.1685851,-0.10279 0.1923997,-0.16712 0.2212169,-0.59755 0.020279,-0.3029 0.1279243,-0.49952 0.3304641,-0.60361 0.1379814,-0.0709 0.8579655,-0.0814 1.0325284,-0.015 0.1951469,0.0742 0.292672,0.27515 0.3249311,0.66955 0.035048,0.42849 0.152108,0.58492 0.4695729,0.6275 0.1827121,0.0245 0.2147616,0.0101 0.4341701,-0.19513 0.4519295,-0.42273 0.656443,-0.41324 1.1392142,0.0528 0.506681,0.48916 0.525933,0.68936 0.109137,1.13495 -0.172865,0.18481 -0.215758,0.26546 -0.215758,0.40571 0,0.35146 0.205382,0.50821 0.665895,0.50821 0.49455,0 0.643793,0.19678 0.643793,0.84887 0,0.6619 -0.160553,0.84887 -0.728927,0.84887 -0.263788,0 -0.313115,0.0159 -0.438971,0.14179 -0.110826,0.11083 -0.14179,0.18543 -0.14179,0.34163 0,0.17019 0.03267,0.23476 0.220229,0.43528 0.392422,0.41953 0.375782,0.63981 -0.08333,1.10303 -0.4744553,0.47872 -0.7473413,0.50578 -1.1316152,0.11225 -0.4532678,-0.46419 -0.9455662,-0.20005 -0.9455662,0.50733 0,0.22704 -0.021427,0.29158 -0.1414497,0.42599 -0.1401346,0.15694 -0.1461155,0.15857 -0.6431176,0.17462 -0.460293,0.0149 -0.513121,0.007 -0.6405395,-0.093 z m 1.0578399,-0.3147 c 0.052476,-0.0525 0.076225,-0.16754 0.076225,-0.36932 0,-0.47488 0.1974849,-0.73993 0.6474668,-0.86898 0.2320247,-0.0665 0.5394612,0.0396 0.8043514,0.27779 0.1297589,0.11667 0.2660911,0.21212 0.3029602,0.21212 0.036869,0 0.2051146,-0.13932 0.3738789,-0.3096 0.3504702,-0.35361 0.3539762,-0.39478 0.057526,-0.67569 -0.2273499,-0.21544 -0.3170887,-0.45416 -0.2734092,-0.72731 0.072385,-0.45268 0.3954582,-0.71275 0.8854042,-0.71275 0.15844,0 0.312922,-0.0261 0.345072,-0.0582 0.07822,-0.0782 0.07822,-0.82402 0,-0.90223 -0.03201,-0.032 -0.172477,-0.0582 -0.312138,-0.0582 -0.307635,0 -0.482023,-0.0611 -0.6664009,-0.2335 -0.3821314,-0.35729 -0.3581258,-0.83984 0.063614,-1.27875 0.108362,-0.11277 0.197022,-0.22436 0.197022,-0.24797 0,-0.0736 -0.5936426,-0.66513 -0.6675322,-0.66513 -0.038539,0 -0.1789965,0.0979 -0.3121272,0.21763 -0.1334925,0.12002 -0.3273723,0.2406 -0.4322812,0.26885 -0.5632437,0.15167 -1.0619135,-0.28206 -1.0619135,-0.92362 0,-0.14908 -0.026194,-0.29725 -0.058208,-0.32927 -0.035231,-0.0352 -0.2061929,-0.0582 -0.4330977,-0.0582 -0.4738948,0 -0.5273398,0.0448 -0.5273398,0.44244 0,0.44956 -0.2219268,0.75993 -0.6184635,0.86491 -0.2963459,0.0785 -0.5531607,-0.004 -0.8353734,-0.26786 -0.1263424,-0.11818 -0.2596046,-0.21487 -0.2961383,-0.21487 -0.085519,0 -0.6753719,0.58311 -0.6753719,0.66765 0,0.0353 0.097148,0.16797 0.215884,0.29491 0.2984522,0.31907 0.3726702,0.59778 0.2424408,0.91043 -0.053984,0.1296 -0.1737086,0.29089 -0.279158,0.37608 -0.1598807,0.12916 -0.2314189,0.1517 -0.5335764,0.16812 -0.1919176,0.0104 -0.3762262,0.041 -0.4095747,0.068 -0.080896,0.0654 -0.082929,0.82008 -0.00243,0.90059 0.032015,0.032 0.1793544,0.0587 0.3274219,0.0593 0.8938129,0.004 1.2625044,0.83373 0.6528243,1.46999 -0.1176101,0.12274 -0.2138365,0.25065 -0.2138365,0.28425 0,0.0891 0.5898658,0.67004 0.6803072,0.67004 0.042225,0 0.1519963,-0.0782 0.243936,-0.17375 0.1955525,-0.20327 0.2966674,-0.26377 0.5298239,-0.31702 0.3273477,-0.0747 0.7356845,0.12738 0.900262,0.44563 0.039118,0.0756 0.071018,0.26759 0.071018,0.42732 0,0.39868 0.05277,0.44244 0.5335764,0.44244 0.281802,0 0.4009909,-0.0199 0.4573511,-0.0762 z m -0.7884454,-1.67176 c -0.3541678,-0.0508 -0.8574826,-0.30909 -1.1264238,-0.57803 -0.1230744,-0.12308 -0.298415,-0.3754 -0.3896458,-0.56071 -0.1584702,-0.3219 -0.1658742,-0.36085 -0.1658742,-0.87256 0,-0.51171 0.0074,-0.55066 0.1658742,-0.87255 0.632466,-1.28472 2.3278565,-1.56002 3.2969398,-0.53536 0.1399397,0.14797 0.321586,0.41344 0.4071222,0.59501 0.1414375,0.30022 0.1544456,0.36869 0.1544456,0.8129 0,0.44369 -0.013108,0.51289 -0.1536467,0.8112 -0.4112826,0.87298 -1.2527951,1.33438 -2.1887913,1.2001 z m 0.8231807,-0.38654 c 1.1070191,-0.34918 1.551545,-1.61809 0.9074844,-2.59045 -0.3180804,-0.48021 -0.9834346,-0.79841 -1.5464314,-0.73957 -0.590826,0.0618 -1.1414808,0.43612 -1.3921609,0.94647 -0.1197154,0.24373 -0.1344483,0.32688 -0.1344483,0.75879 0,0.43192 0.014733,0.51506 0.1344483,0.75879 0.2157215,0.43918 0.6719396,0.7955 1.1752194,0.91789 0.2626166,0.0639 0.5426763,0.0469 0.8558885,-0.0519 z"
       id="path8615"
       inkscape:connector-curvature="0" />
  </g>
</svg>
